<svg width="66" height="41" viewBox="0 0 66 41" fill="none" xmlns="http://www.w3.org/2000/svg">
<g id="Symbol.svg" clip-path="url(#clip0_20456_37458)">
<g id="Group">
<g id="Group_2">
<path id="Vector" d="M41.5549 4.7793H24.0549V36.2237H41.5549V4.7793Z" fill="#FF5F00"/>
<path id="Vector_2" d="M25.166 20.5007C25.166 14.3896 27.9993 8.55627 32.7771 4.7785C24.1104 -2.05484 11.5549 -0.554837 4.72155 8.16738C-2.11178 16.8341 -0.611783 29.3896 8.11044 36.2229C15.3882 41.9452 25.5549 41.9452 32.8327 36.2229C27.9993 32.4452 25.166 26.6118 25.166 20.5007Z" fill="#EB001B"/>
<path id="Vector_3" d="M65.166 20.5007C65.166 31.5563 56.2215 40.5007 45.166 40.5007C40.666 40.5007 36.3327 39.0007 32.8327 36.2229C41.4993 29.3896 42.9993 16.834 36.166 8.11183C35.166 6.88961 34.0549 5.72294 32.8327 4.7785C41.4993 -2.05484 54.1104 -0.554837 60.8882 8.16738C63.666 11.6674 65.166 16.0007 65.166 20.5007Z" fill="#F79E1B"/>
<path id="Vector_4" d="M63.2771 32.8891V32.2224H63.5549V32.1113H62.8882V32.2224H63.166V32.8891H63.2771ZM64.5549 32.8891V32.1113H64.3327L64.1104 32.6669L63.8882 32.1113H63.666V32.8891H63.8327V32.278L64.0549 32.778H64.2215L64.4438 32.278V32.8891H64.5549Z" fill="#F79E1B"/>
</g>
</g>
</g>
<defs>
<clipPath id="clip0_20456_37458">
<rect width="64.7222" height="40" fill="white" transform="translate(0.443787 0.5)"/>
</clipPath>
</defs>
</svg>
