<svg width="155" height="41" viewBox="0 0 155 41" fill="none" xmlns="http://www.w3.org/2000/svg">
<g id="paypal_logo.svg">
<path id="Vector" d="M134.582 9.84421L131.307 30.4214C131.295 30.4969 131.3 30.5742 131.32 30.6479C131.341 30.7216 131.378 30.7898 131.428 30.8479C131.478 30.9059 131.54 30.9523 131.609 30.9838C131.679 31.0153 131.755 31.0312 131.831 31.0303H135.707C135.844 31.0315 135.977 30.9837 136.081 30.8955C136.186 30.8072 136.255 30.6845 136.277 30.5495L139.552 9.97237C139.565 9.89681 139.56 9.81948 139.539 9.74581C139.519 9.67213 139.482 9.60389 139.432 9.54587C139.382 9.48785 139.32 9.44145 139.25 9.40993C139.181 9.3784 139.105 9.36252 139.028 9.36339H135.152C135.015 9.36068 134.882 9.40797 134.777 9.49645C134.672 9.58493 134.603 9.70854 134.582 9.84421ZM130.444 15.8491H126.766C126.63 15.8478 126.497 15.8955 126.393 15.9835C126.288 16.0716 126.219 16.1942 126.197 16.3291L126.076 17.0867C126.076 17.0867 123.219 13.9895 118.162 16.0826C115.261 17.2809 113.868 19.7569 113.276 21.5707C113.276 21.5707 111.395 27.0834 115.649 30.1177C115.649 30.1177 119.593 33.036 124.035 29.9381L123.958 30.4214C123.94 30.5349 123.96 30.6511 124.015 30.7522C124.069 30.8534 124.155 30.9338 124.26 30.9814C124.329 31.014 124.405 31.0303 124.482 31.0303H128.162C128.299 31.033 128.433 30.9857 128.538 30.8973C128.642 30.8088 128.711 30.6852 128.732 30.5495L130.97 16.4581C130.983 16.3826 130.978 16.3053 130.957 16.2317C130.936 16.1582 130.899 16.0902 130.849 16.0328C130.799 15.9743 130.737 15.9274 130.667 15.8955C130.597 15.8636 130.521 15.8483 130.444 15.8491ZM125.032 23.6369C124.889 24.6214 124.391 25.5198 123.632 26.1634C122.87 26.8094 121.901 27.1581 120.902 27.1454C120.51 27.15 120.12 27.0932 119.746 26.9773C118.158 26.4711 117.252 24.9577 117.512 23.3169C117.657 22.3328 118.155 21.4352 118.914 20.792C119.675 20.1456 120.644 19.7958 121.643 19.8067C122.035 19.8026 122.425 19.8599 122.799 19.9765C124.396 20.4793 125.298 21.9952 125.036 23.6377H125.032V23.6369ZM105.395 24.0262C107.389 24.0262 109.318 23.3177 110.833 22.0295C112.345 20.7457 113.346 18.962 113.654 17.0026C114.298 12.9267 111.091 9.36911 106.544 9.36911H99.2192C99.0825 9.36779 98.9499 9.41561 98.8455 9.50386C98.741 9.5921 98.6718 9.71491 98.6503 9.84992L95.3743 30.4271C95.3566 30.5406 95.3765 30.6568 95.431 30.7579C95.4856 30.8591 95.5717 30.9396 95.6764 30.9871C95.7466 31.0197 95.8217 31.036 95.8984 31.036H99.7768C99.9135 31.0374 100.046 30.9895 100.151 30.9013C100.255 30.813 100.324 30.6902 100.346 30.5552L101.307 24.5128C101.328 24.377 101.397 24.2532 101.501 24.1645C101.606 24.0759 101.74 24.0285 101.877 24.0311L105.395 24.0262ZM108.639 16.8173C108.4 18.3242 107.226 19.4336 104.98 19.4336H102.109L102.981 13.9536H105.8C108.122 13.9577 108.878 15.3169 108.639 16.8214V16.8173Z" fill="#0070E0"/>
<path id="Vector_2" d="M90.9556 16.1977L86.5197 23.6304L84.2682 16.2524C84.233 16.1347 84.1604 16.0316 84.0615 15.9587C83.9625 15.8858 83.8426 15.8471 83.7197 15.8484H79.7164C79.6128 15.847 79.5123 15.883 79.4332 15.9499C79.3541 16.0168 79.3019 16.1101 79.2862 16.2124C79.2765 16.2803 79.2835 16.3495 79.3066 16.4141L83.3409 28.8418L79.6919 34.6982C79.6609 34.7464 79.6401 34.8004 79.6307 34.8569C79.6214 34.9135 79.6236 34.9713 79.6374 35.0269C79.6511 35.0826 79.6761 35.1348 79.7107 35.1805C79.7454 35.2261 79.789 35.2642 79.8388 35.2924C79.9056 35.3308 79.9814 35.3505 80.0584 35.3496H84.3703C84.4933 35.35 84.6144 35.3187 84.7218 35.2586C84.8292 35.1985 84.9193 35.1118 84.9833 35.0067L96.2519 16.503C96.2927 16.4386 96.3152 16.3642 96.3167 16.288C96.3183 16.2117 96.299 16.1365 96.2609 16.0704C96.2228 16.0041 96.1677 15.9492 96.1012 15.9115C96.0347 15.8737 95.9594 15.8544 95.8829 15.8557H91.5727C91.4491 15.8546 91.3272 15.8855 91.2191 15.9454C91.1109 16.0054 91.0201 16.0923 90.9556 16.1977ZM77.447 15.8484H73.7662C73.6293 15.847 73.4964 15.8949 73.3918 15.9833C73.2873 16.0717 73.2179 16.1948 73.1964 16.33L73.0772 17.0867C73.0772 17.0867 70.2184 13.9896 65.1613 16.0826C62.2609 17.281 60.8674 19.7569 60.2772 21.5708C60.2772 21.5708 58.3948 27.0835 62.6478 30.1177C62.6478 30.1177 66.5931 33.0361 71.0348 29.9381L70.958 30.4214C70.94 30.535 70.9598 30.6513 71.0143 30.7525C71.0689 30.8537 71.1553 30.9341 71.2601 30.9814C71.3295 31.0141 71.4054 31.0304 71.4821 31.0304H75.1621C75.2987 31.0314 75.4312 30.9834 75.5355 30.8952C75.6399 30.8071 75.7093 30.6845 75.7311 30.5496L77.9703 16.4581C77.9885 16.3445 77.9688 16.228 77.9142 16.1266C77.8596 16.0252 77.7732 15.9447 77.6682 15.8973C77.5986 15.8653 77.5237 15.8486 77.447 15.8484ZM72.0348 23.6377C71.8899 24.6211 71.3919 25.518 70.6339 26.161C69.8724 26.8069 68.9035 27.1565 67.905 27.1455C67.5138 27.1498 67.1243 27.0931 66.7507 26.9773C65.1637 26.4712 64.2584 24.9577 64.5188 23.3161C64.6639 22.3299 65.1641 21.4306 65.9254 20.7871C66.6896 20.1408 67.6617 19.7926 68.6625 19.8067C69.0544 19.8026 69.4454 19.8598 69.8193 19.9765C71.4005 20.4794 72.3009 21.9945 72.0397 23.6377H72.0348ZM52.398 24.0263C54.3889 24.0253 56.3147 23.3167 57.8315 22.0271C59.3421 20.7433 60.3419 18.9602 60.6495 17.0018C61.2944 12.9267 58.0862 9.36917 53.5409 9.36917H46.2152C46.0785 9.3678 45.9458 9.41547 45.8413 9.50354C45.7367 9.59161 45.6672 9.71424 45.6454 9.84917L42.3801 30.4206C42.3618 30.5343 42.3815 30.6508 42.4361 30.7522C42.4907 30.8535 42.5772 30.9341 42.6821 30.9814C42.7515 31.0133 42.8274 31.0304 42.9041 31.0304H46.7801C46.917 31.0317 47.0498 30.9838 47.1544 30.8954C47.259 30.807 47.3284 30.684 47.3499 30.5488L48.3099 24.5063C48.3303 24.3706 48.3993 24.247 48.5042 24.1586C48.609 24.0701 48.7425 24.0228 48.8797 24.0255L52.398 24.0263ZM55.6421 16.8165C55.4029 18.3235 54.2299 19.4328 51.9841 19.4328H49.1131L49.9833 13.9528H52.8029C55.1254 13.9569 55.8805 15.3169 55.6421 16.8206V16.8165Z" fill="#003087"/>
<path id="Vector_3" d="M27.3409 10.4259C27.4282 5.8822 23.6805 2.39648 18.527 2.39648H7.86739C7.61899 2.39637 7.37871 2.48496 7.18983 2.6463C7.00096 2.80763 6.8759 3.03112 6.83719 3.27648L2.56617 29.9646C2.54706 30.0856 2.55439 30.2092 2.58765 30.3271C2.62091 30.4449 2.67931 30.5541 2.75883 30.6472C2.83836 30.7403 2.93711 30.8151 3.0483 30.8664C3.15949 30.9176 3.28046 30.9442 3.4029 30.9442H9.71801L8.73107 37.1238C8.71196 37.2448 8.71929 37.3684 8.75255 37.4862C8.78581 37.6041 8.84421 37.7133 8.92373 37.8064C9.00325 37.8995 9.10201 37.9743 9.2132 38.0255C9.32438 38.0768 9.44536 38.1034 9.5678 38.1034H14.7123C14.9605 38.1034 15.1817 38.0144 15.3711 37.8536C15.5588 37.692 15.5898 37.4691 15.629 37.2234L17.1392 28.3385C17.1776 28.0936 17.3025 27.7753 17.4911 27.6136C17.6796 27.452 17.8445 27.3638 18.0935 27.3638H21.2413C26.2886 27.3638 30.5703 23.7761 31.3531 18.7867C31.9074 15.2455 30.389 12.0234 27.3409 10.4259Z" fill="#001C64"/>
<path id="Vector_4" d="M11.0846 21.1025L9.5115 31.0764L8.52374 37.3327C8.50475 37.4537 8.5122 37.5773 8.54557 37.6951C8.57893 37.8129 8.63743 37.922 8.71703 38.0151C8.79663 38.1081 8.89544 38.1828 9.00666 38.2339C9.11788 38.2851 9.23887 38.3116 9.36129 38.3115H14.8062C15.0544 38.3114 15.2943 38.2227 15.4829 38.0613C15.6715 37.9 15.7963 37.6767 15.8348 37.4315L17.2699 28.3384C17.3086 28.0932 17.4335 27.8698 17.6222 27.7085C17.8109 27.5472 18.051 27.4585 18.2993 27.4584H21.5042C26.5515 27.4584 30.8331 23.7768 31.6168 18.7874C32.1719 15.2462 30.3891 12.0233 27.3409 10.4258C27.3327 10.8029 27.3001 11.1792 27.2421 11.5523C26.4593 16.5401 22.176 20.2225 17.1303 20.2225H12.1139C11.8656 20.2228 11.6255 20.3116 11.4368 20.4731C11.2481 20.6346 11.1232 20.8572 11.0846 21.1025Z" fill="#0070E0"/>
<path id="Vector_5" d="M9.51066 31.0765H3.17597C3.05356 31.0765 2.9326 31.0499 2.82144 30.9986C2.71029 30.9473 2.61158 30.8726 2.53212 30.7795C2.45265 30.6863 2.39433 30.5771 2.36117 30.4593C2.32802 30.3414 2.32081 30.2178 2.34005 30.0969L6.61107 3.01281C6.64976 2.76758 6.7747 2.54421 6.9634 2.38289C7.15211 2.22157 7.3922 2.13289 7.64046 2.13281H18.527C23.6805 2.13281 27.4282 5.88302 27.3409 10.4259C26.0584 9.75322 24.5515 9.36873 22.9009 9.36873H13.825C13.5765 9.36861 13.3363 9.4572 13.1474 9.61854C12.9585 9.77988 12.8335 10.0034 12.7947 10.2487L11.0854 21.1026L9.50985 31.0765H9.51066Z" fill="#003087"/>
</g>
</svg>
