<svg width="85" height="41" viewBox="0 0 85 41" fill="none" xmlns="http://www.w3.org/2000/svg">
<g id="stripe_logo.svg">
<g id="Group">
<path id="Vector" fill-rule="evenodd" clip-rule="evenodd" d="M74.4572 20.8861C74.4572 16.2838 72.228 12.6523 67.9673 12.6523C63.6887 12.6523 61.0999 16.2838 61.0999 20.8501C61.0999 26.2613 64.1561 28.9939 68.5426 28.9939C70.6819 28.9939 72.2999 28.5085 73.5224 27.8254V24.2299C72.2999 24.8411 70.8977 25.2186 69.1179 25.2186C67.3741 25.2186 65.828 24.6074 65.6302 22.4861H74.4213C74.4213 22.2523 74.4572 21.3175 74.4572 20.8861ZM65.5763 19.1782C65.5763 17.1467 66.8168 16.3018 67.9493 16.3018C69.046 16.3018 70.2145 17.1467 70.2145 19.1782H65.5763Z" fill="#0A2540"/>
<path id="Vector_2" fill-rule="evenodd" clip-rule="evenodd" d="M54.1609 12.6523C52.3991 12.6523 51.2665 13.4793 50.6373 14.0546L50.4036 12.94H46.4485V33.9018L50.9429 32.949L50.9609 27.8613C51.6081 28.3287 52.5609 28.9939 54.1429 28.9939C57.3609 28.9939 60.2912 26.4052 60.2912 20.7063C60.2733 15.4928 57.307 12.6523 54.1609 12.6523ZM53.0823 25.0389C52.0216 25.0389 51.3924 24.6613 50.9609 24.1939L50.9429 17.5243C51.4103 17.0029 52.0575 16.6434 53.0823 16.6434C54.7182 16.6434 55.8508 18.4771 55.8508 20.8321C55.8508 23.2411 54.7362 25.0389 53.0823 25.0389Z" fill="#0A2540"/>
<path id="Vector_3" fill-rule="evenodd" clip-rule="evenodd" d="M40.2645 11.5909L44.7768 10.6201V6.9707L40.2645 7.92351V11.5909Z" fill="#0A2540"/>
<path id="Vector_4" d="M44.7768 12.957H40.2645V28.6874H44.7768V12.957Z" fill="#0A2540"/>
<path id="Vector_5" fill-rule="evenodd" clip-rule="evenodd" d="M35.4289 14.2876L35.1413 12.9573H31.2581V28.6876H35.7525V18.027C36.8132 16.6427 38.6109 16.8944 39.1682 17.0921V12.9573C38.5929 12.7416 36.4896 12.3461 35.4289 14.2876Z" fill="#0A2540"/>
<path id="Vector_6" fill-rule="evenodd" clip-rule="evenodd" d="M26.4394 9.05469L22.0529 9.98952L22.0349 24.3895C22.0349 27.0502 24.0304 29.0097 26.6911 29.0097C28.1653 29.0097 29.2439 28.7401 29.8372 28.4165V24.767C29.2619 25.0008 26.4215 25.8277 26.4215 23.167V16.785H29.8372V12.9558H26.4215L26.4394 9.05469Z" fill="#0A2540"/>
<path id="Vector_7" fill-rule="evenodd" clip-rule="evenodd" d="M14.2869 17.5243C14.2869 16.8231 14.8622 16.5535 15.815 16.5535C17.1813 16.5535 18.9071 16.967 20.2734 17.704V13.4793C18.7813 12.8861 17.3071 12.6523 15.815 12.6523C12.1656 12.6523 9.73859 14.558 9.73859 17.74C9.73859 22.7018 16.57 21.9108 16.57 24.0501C16.57 24.8771 15.8509 25.1467 14.8442 25.1467C13.3521 25.1467 11.4465 24.5355 9.93634 23.7085V27.9872C11.6082 28.7063 13.2981 29.0119 14.8442 29.0119C18.5835 29.0119 21.1543 27.1602 21.1543 23.9422C21.1363 18.5849 14.2869 19.5377 14.2869 17.5243Z" fill="#0A2540"/>
</g>
</g>
</svg>
