<svg width="20" height="20" viewBox="0 0 20 20" fill="none" xmlns="http://www.w3.org/2000/svg">
<path d="M15 6.66699C15 5.34091 14.4732 4.06914 13.5355 3.13146C12.5979 2.19378 11.3261 1.66699 10 1.66699C8.67392 1.66699 7.40215 2.19378 6.46447 3.13146C5.52678 4.06914 5 5.34091 5 6.66699C5 12.5003 2.5 14.167 2.5 14.167H17.5C17.5 14.167 15 12.5003 15 6.66699Z" stroke="#525252" stroke-width="1.33" stroke-linecap="round" stroke-linejoin="round"/>
<path d="M11.4414 17.5C11.2949 17.7526 11.0846 17.9622 10.8316 18.1079C10.5786 18.2537 10.2918 18.3304 9.99977 18.3304C9.70779 18.3304 9.42093 18.2537 9.16792 18.1079C8.9149 17.9622 8.70461 17.7526 8.55811 17.5" stroke="#525252" stroke-width="1.33" stroke-linecap="round" stroke-linejoin="round"/>
</svg>
