<svg width="30" height="30" viewBox="0 0 30 30" fill="none" xmlns="http://www.w3.org/2000/svg">
<path d="M26.512 19.8626C25.7168 21.7432 24.473 23.4004 22.8894 24.6892C21.3057 25.9781 19.4305 26.8594 17.4276 27.2561C15.4247 27.6528 13.3551 27.5528 11.3997 26.9648C9.44436 26.3769 7.66281 25.3189 6.2108 23.8834C4.75879 22.4479 3.68055 20.6785 3.07032 18.73C2.4601 16.7815 2.33648 14.7132 2.71027 12.7059C3.08407 10.6986 3.9439 8.81337 5.21458 7.21512C6.48527 5.61687 8.12813 4.35423 9.99953 3.53758" stroke="#FAFAFA" stroke-width="2" stroke-linecap="round" stroke-linejoin="round"/>
<path d="M27.5 15C27.5 13.3585 27.1767 11.733 26.5485 10.2164C25.9203 8.69987 24.9996 7.32188 23.8388 6.16115C22.6781 5.00042 21.3001 4.07967 19.7835 3.45149C18.267 2.82331 16.6415 2.49998 15 2.49998V15H27.5Z" stroke="#FAFAFA" stroke-width="2" stroke-linecap="round" stroke-linejoin="round"/>
</svg>
