<svg width="25" height="25" viewBox="0 0 25 25" fill="none" xmlns="http://www.w3.org/2000/svg">
<g id="icon">
<path id="Vector" d="M12.375 13.5C12.9273 13.5 13.375 13.0523 13.375 12.5C13.375 11.9477 12.9273 11.5 12.375 11.5C11.8227 11.5 11.375 11.9477 11.375 12.5C11.375 13.0523 11.8227 13.5 12.375 13.5Z" stroke="#141414" stroke-width="2" stroke-linecap="round" stroke-linejoin="round"/>
<path id="Vector_2" d="M12.375 6.5C12.9273 6.5 13.375 6.05228 13.375 5.5C13.375 4.94772 12.9273 4.5 12.375 4.5C11.8227 4.5 11.375 4.94772 11.375 5.5C11.375 6.05228 11.8227 6.5 12.375 6.5Z" stroke="#141414" stroke-width="2" stroke-linecap="round" stroke-linejoin="round"/>
<path id="Vector_3" d="M12.375 20.5C12.9273 20.5 13.375 20.0523 13.375 19.5C13.375 18.9477 12.9273 18.5 12.375 18.5C11.8227 18.5 11.375 18.9477 11.375 19.5C11.375 20.0523 11.8227 20.5 12.375 20.5Z" stroke="#141414" stroke-width="2" stroke-linecap="round" stroke-linejoin="round"/>
</g>
</svg>
