<svg width="20" height="20" viewBox="0 0 20 20" fill="none" xmlns="http://www.w3.org/2000/svg">
<path d="M13.3333 17.5V15.8333C13.3333 14.9493 12.9821 14.1014 12.357 13.4763C11.7319 12.8512 10.884 12.5 9.99999 12.5H4.99999C4.11593 12.5 3.26809 12.8512 2.64297 13.4763C2.01785 14.1014 1.66666 14.9493 1.66666 15.8333V17.5" stroke="#525252" stroke-width="1.33" stroke-linecap="round" stroke-linejoin="round"/>
<path d="M7.49999 9.16667C9.34094 9.16667 10.8333 7.67428 10.8333 5.83333C10.8333 3.99238 9.34094 2.5 7.49999 2.5C5.65904 2.5 4.16666 3.99238 4.16666 5.83333C4.16666 7.67428 5.65904 9.16667 7.49999 9.16667Z" stroke="#525252" stroke-width="1.33" stroke-linecap="round" stroke-linejoin="round"/>
<path d="M15.8333 10.8333C16.7538 10.8333 17.5 10.0871 17.5 9.16667C17.5 8.24619 16.7538 7.5 15.8333 7.5C14.9128 7.5 14.1667 8.24619 14.1667 9.16667C14.1667 10.0871 14.9128 10.8333 15.8333 10.8333Z" stroke="#525252" stroke-linecap="round" stroke-linejoin="round"/>
<path d="M15.8333 6.6665V7.49984" stroke="#525252" stroke-linecap="round" stroke-linejoin="round"/>
<path d="M15.8333 10.8335V11.6668" stroke="#525252" stroke-linecap="round" stroke-linejoin="round"/>
<path d="M18 7.9165L17.275 8.33317" stroke="#525252" stroke-linecap="round" stroke-linejoin="round"/>
<path d="M14.3917 10L13.6667 10.4167" stroke="#525252" stroke-linecap="round" stroke-linejoin="round"/>
<path d="M18 10.4167L17.275 10" stroke="#525252" stroke-linecap="round" stroke-linejoin="round"/>
<path d="M14.3917 8.33317L13.6667 7.9165" stroke="#525252" stroke-linecap="round" stroke-linejoin="round"/>
</svg>
