<svg width="20" height="20" viewBox="0 0 20 20" fill="none" xmlns="http://www.w3.org/2000/svg">
<path d="M16.6667 5H3.33332C2.41285 5 1.66666 5.74619 1.66666 6.66667V13.3333C1.66666 14.2538 2.41285 15 3.33332 15H16.6667C17.5871 15 18.3333 14.2538 18.3333 13.3333V6.66667C18.3333 5.74619 17.5871 5 16.6667 5Z" stroke="#525252" stroke-width="1.33" stroke-linecap="round" stroke-linejoin="round"/>
<path d="M10 11.6668C10.9205 11.6668 11.6667 10.9206 11.6667 10.0002C11.6667 9.07969 10.9205 8.3335 10 8.3335C9.07954 8.3335 8.33334 9.07969 8.33334 10.0002C8.33334 10.9206 9.07954 11.6668 10 11.6668Z" stroke="#525252" stroke-width="1.33" stroke-linecap="round" stroke-linejoin="round"/>
<path d="M5 10H5.00833M15 10H15.0083" stroke="#525252" stroke-width="1.33" stroke-linecap="round" stroke-linejoin="round"/>
</svg>
