<svg width="20" height="20" viewBox="0 0 20 20" fill="none" xmlns="http://www.w3.org/2000/svg">
<path d="M13.3333 17.5V15.8333C13.3333 14.9493 12.9821 14.1014 12.357 13.4763C11.7319 12.8512 10.884 12.5 9.99999 12.5H4.99999C4.11593 12.5 3.26809 12.8512 2.64297 13.4763C2.01785 14.1014 1.66666 14.9493 1.66666 15.8333V17.5" stroke="#525252" stroke-width="1.33" stroke-linecap="round" stroke-linejoin="round"/>
<path d="M7.49999 9.16667C9.34094 9.16667 10.8333 7.67428 10.8333 5.83333C10.8333 3.99238 9.34094 2.5 7.49999 2.5C5.65904 2.5 4.16666 3.99238 4.16666 5.83333C4.16666 7.67428 5.65904 9.16667 7.49999 9.16667Z" stroke="#525252" stroke-width="1.33" stroke-linecap="round" stroke-linejoin="round"/>
<path d="M18.3333 17.5001V15.8334C18.3328 15.0948 18.087 14.3774 17.6345 13.7937C17.182 13.2099 16.5485 12.793 15.8333 12.6084" stroke="#525252" stroke-linecap="round" stroke-linejoin="round"/>
<path d="M13.3333 2.6084C14.0504 2.79198 14.6859 3.20898 15.1397 3.79366C15.5935 4.37833 15.8399 5.09742 15.8399 5.83757C15.8399 6.57771 15.5935 7.2968 15.1397 7.88147C14.6859 8.46615 14.0504 8.88315 13.3333 9.06673" stroke="#525252" stroke-linecap="round" stroke-linejoin="round"/>
</svg>
