<svg width="57" height="52" viewBox="0 0 57 52" fill="none" xmlns="http://www.w3.org/2000/svg">
<path d="M5.24219 48.6562V8.79687H15.5078V12.5H9.71094V44.9531H15.5078V48.6562H5.24219ZM51.7539 8.79687V48.6562H41.4883V44.9531H47.2852V12.5H41.4883V8.79687H51.7539Z" fill="#6614B8"/>
<g clip-path="url(#clip0_5043_215)">
<path d="M29.6668 17C23.4135 17 18.3335 20.5867 18.3335 25C18.3335 26.5867 19.0002 28.12 20.2535 29.44C19.0134 31.0285 18.3378 32.9848 18.3335 35V39.6667C18.3335 41.1467 19.5202 42.3333 21.0002 42.3333H38.3335C39.8135 42.3333 41.0002 41.1467 41.0002 39.6667V35C41.0002 33.3733 40.5468 31.76 39.6668 30.3333L42.3335 27.6667L38.3335 23.6667L35.5335 26.4667C33.731 25.4959 31.7141 24.9917 29.6668 25C27.2002 25 24.9335 25.7067 23.0668 26.88C22.5868 26.2933 22.3335 25.6667 22.3335 25C22.3335 22.6133 25.6135 20.6667 29.6668 20.6667C31.5735 20.6667 33.4002 21.1067 34.7735 21.8933L37.4668 19.2C35.3602 17.7867 32.5735 17 29.6668 17ZM29.6668 27.6667C30.1202 27.6667 30.5602 27.72 31.0002 27.7867C26.8535 28.4267 23.6668 32 23.6668 36.3333V39.6667H21.0002V36.3333C21.0002 34.0348 21.9133 31.8304 23.5386 30.2051C25.1639 28.5798 27.3683 27.6667 29.6668 27.6667Z" fill="#484141"/>
</g>
<defs>
<clipPath id="clip0_5043_215">
<rect width="32" height="32" fill="white" transform="translate(13 10)"/>
</clipPath>
</defs>
</svg>
