<svg width="40" height="38" viewBox="0 0 40 38" fill="none" xmlns="http://www.w3.org/2000/svg">
<path d="M3.71953 34.1594V6.25781H10.9055V8.85H6.84766V31.5672H10.9055V34.1594H3.71953ZM36.2777 6.25781V34.1594H29.0918V31.5672H33.1496V8.85H29.0918V6.25781H36.2777Z" fill="#6614B8"/>
<g clip-path="url(#clip0_5043_4407)">
<path d="M21.7668 12.4C17.3894 12.4 13.8334 14.9107 13.8334 18C13.8334 19.1107 14.3001 20.184 15.1774 21.108C14.3094 22.2199 13.8365 23.5894 13.8334 25V28.2667C13.8334 29.3027 14.6641 30.1334 15.7001 30.1334H27.8334C28.8694 30.1334 29.7001 29.3027 29.7001 28.2667V25C29.7001 23.8614 29.3828 22.732 28.7668 21.7334L30.6334 19.8667L27.8334 17.0667L25.8734 19.0267C24.6117 18.3471 23.1999 17.9942 21.7668 18C20.0401 18 18.4534 18.4947 17.1468 19.316C16.8108 18.9054 16.6334 18.4667 16.6334 18C16.6334 16.3294 18.9294 14.9667 21.7668 14.9667C23.1014 14.9667 24.3801 15.2747 25.3414 15.8254L27.2268 13.94C25.7521 12.9507 23.8014 12.4 21.7668 12.4ZM21.7668 19.8667C22.0841 19.8667 22.3921 19.904 22.7001 19.9507C19.7974 20.3987 17.5668 22.9 17.5668 25.9334V28.2667H15.7001V25.9334C15.7001 24.3244 16.3393 22.7813 17.477 21.6436C18.6147 20.5059 20.1578 19.8667 21.7668 19.8667Z" fill="#484141"/>
</g>
<defs>
<clipPath id="clip0_5043_4407">
<rect width="22.4" height="22.4" fill="white" transform="translate(10.1 7.5)"/>
</clipPath>
</defs>
</svg>
