<svg width="16" height="16" viewBox="0 0 16 16" fill="none" xmlns="http://www.w3.org/2000/svg">
<g opacity="0.5">
<path d="M13.711 13.71L13.3575 13.3563C13.3444 13.3694 13.3232 13.3694 13.3101 13.3563L10.2834 10.3296L9.96699 10.0131L9.61753 10.2927C8.88184 10.8813 7.94958 11.2328 6.93379 11.2328C4.55897 11.2328 2.63379 9.30764 2.63379 6.93281C2.63379 4.55799 4.55897 2.63281 6.93379 2.63281C9.30861 2.63281 11.2338 4.55799 11.2338 6.93281C11.2338 7.9486 10.8822 8.88087 10.2937 9.61655L10.0141 9.96602L10.3305 10.2825L13.3573 13.3091C13.3704 13.3222 13.3704 13.3434 13.3573 13.3565L13.711 13.71ZM13.711 13.71C13.9192 13.5017 13.9192 13.164 13.711 12.9556L12.9566 13.71C13.1649 13.9182 13.5026 13.9182 13.711 13.71ZM6.93379 11.1661C9.2718 11.1661 11.1671 9.27082 11.1671 6.93281C11.1671 4.5948 9.2718 2.69948 6.93379 2.69948C4.59578 2.69948 2.70046 4.5948 2.70046 6.93281C2.70046 9.27082 4.59578 11.1661 6.93379 11.1661Z" fill="#0A0A0A" stroke="#0A0A0A"/>
</g>
</svg>
