<svg width="16" height="16" viewBox="0 0 16 16" fill="none" xmlns="http://www.w3.org/2000/svg">
<g opacity="0.5">
<path d="M13.7105 13.7105L13.3571 13.3568C13.344 13.3699 13.3227 13.3699 13.3097 13.3568L10.283 10.33L9.96657 10.0136L9.6171 10.2932C8.88142 10.8817 7.94915 11.2333 6.93336 11.2333C4.55854 11.2333 2.63336 9.30812 2.63336 6.9333C2.63336 4.55848 4.55854 2.6333 6.93336 2.6333C9.30819 2.6333 11.2334 4.55848 11.2334 6.9333C11.2334 7.94909 10.8818 8.88136 10.2932 9.61704L10.0136 9.9665L10.3301 10.283L13.3569 13.3096C13.37 13.3227 13.37 13.3439 13.3569 13.357L13.7105 13.7105ZM13.7105 13.7105C13.9187 13.5022 13.9187 13.1644 13.7105 12.9561L12.9562 13.7105C13.1645 13.9187 13.5022 13.9187 13.7105 13.7105ZM6.93336 11.1666C9.27137 11.1666 11.1667 9.27131 11.1667 6.9333C11.1667 4.59529 9.27137 2.69997 6.93336 2.69997C4.59535 2.69997 2.70003 4.59529 2.70003 6.9333C2.70003 9.27131 4.59535 11.1666 6.93336 11.1666Z" fill="#0A0A0A" stroke="#0A0A0A"/>
</g>
</svg>
