<svg width="154" height="40" viewBox="0 0 154 40" fill="none" xmlns="http://www.w3.org/2000/svg">
<g id="paypal_logo.svg">
<path id="Vector" d="M134.416 9.34421L131.141 29.9214C131.129 29.9969 131.133 30.0742 131.154 30.1479C131.175 30.2216 131.212 30.2898 131.262 30.3479C131.311 30.4059 131.374 30.4523 131.443 30.4838C131.513 30.5153 131.589 30.5312 131.665 30.5303H135.541C135.678 30.5315 135.811 30.4837 135.915 30.3955C136.02 30.3072 136.089 30.1845 136.111 30.0495L139.386 9.47237C139.398 9.39681 139.394 9.31948 139.373 9.24581C139.353 9.17213 139.316 9.10389 139.266 9.04587C139.216 8.98785 139.154 8.94145 139.084 8.90993C139.014 8.8784 138.939 8.86252 138.862 8.86339H134.986C134.849 8.86068 134.716 8.90797 134.611 8.99645C134.506 9.08493 134.437 9.20854 134.416 9.34421ZM130.278 15.3491H126.6C126.463 15.3478 126.331 15.3955 126.227 15.4835C126.122 15.5716 126.053 15.6942 126.031 15.8291L125.909 16.5867C125.909 16.5867 123.053 13.4895 117.996 15.5826C115.095 16.7809 113.702 19.2569 113.109 21.0707C113.109 21.0707 111.229 26.5834 115.483 29.6177C115.483 29.6177 119.427 32.536 123.869 29.4381L123.792 29.9214C123.774 30.0349 123.794 30.1511 123.849 30.2522C123.903 30.3534 123.989 30.4338 124.094 30.4814C124.163 30.514 124.239 30.5303 124.316 30.5303H127.996C128.133 30.533 128.267 30.4857 128.371 30.3973C128.476 30.3088 128.545 30.1852 128.566 30.0495L130.804 15.9581C130.817 15.8826 130.812 15.8053 130.791 15.7317C130.77 15.6582 130.733 15.5902 130.683 15.5328C130.633 15.4743 130.571 15.4274 130.501 15.3955C130.431 15.3636 130.354 15.3483 130.278 15.3491ZM124.866 23.1369C124.723 24.1214 124.225 25.0198 123.466 25.6634C122.704 26.3094 121.734 26.6581 120.736 26.6454C120.344 26.65 119.954 26.5932 119.58 26.4773C117.992 25.9711 117.086 24.4577 117.346 22.8169C117.491 21.8328 117.989 20.9352 118.748 20.292C119.509 19.6456 120.478 19.2958 121.477 19.3067C121.869 19.3026 122.259 19.3599 122.633 19.4765C124.23 19.9793 125.132 21.4952 124.87 23.1377H124.866V23.1369ZM105.229 23.5262C107.223 23.5262 109.152 22.8177 110.667 21.5295C112.179 20.2457 113.18 18.462 113.488 16.5026C114.132 12.4267 110.925 8.86911 106.378 8.86911H99.0531C98.9164 8.86779 98.7838 8.91561 98.6794 9.00386C98.5749 9.0921 98.5057 9.21491 98.4841 9.34992L95.2082 29.9271C95.1905 30.0406 95.2104 30.1568 95.2649 30.2579C95.3195 30.3591 95.4056 30.4396 95.5103 30.4871C95.5805 30.5197 95.6556 30.536 95.7323 30.536H99.6107C99.7474 30.5374 99.88 30.4895 99.9845 30.4013C100.089 30.313 100.158 30.1902 100.18 30.0552L101.141 24.0128C101.162 23.877 101.23 23.7532 101.335 23.6645C101.44 23.5759 101.574 23.5285 101.711 23.5311L105.229 23.5262ZM108.473 16.3173C108.234 17.8242 107.06 18.9336 104.814 18.9336H101.943L102.815 13.4536H105.634C107.956 13.4577 108.712 14.8169 108.473 16.3214V16.3173Z" fill="#0070E0"/>
<path id="Vector_2" d="M90.7894 15.6977L86.3535 23.1304L84.1021 15.7524C84.0668 15.6347 83.9943 15.5316 83.8953 15.4587C83.7964 15.3858 83.6764 15.3471 83.5535 15.3484H79.5502C79.4467 15.347 79.3461 15.383 79.267 15.4499C79.188 15.5168 79.1358 15.6101 79.12 15.7124C79.1103 15.7803 79.1173 15.8495 79.1404 15.9141L83.1747 28.3418L79.5257 34.1982C79.4948 34.2464 79.4739 34.3004 79.4646 34.3569C79.4552 34.4135 79.4575 34.4713 79.4712 34.5269C79.485 34.5826 79.5099 34.6348 79.5446 34.6805C79.5792 34.7261 79.6228 34.7642 79.6727 34.7924C79.7394 34.8308 79.8153 34.8505 79.8923 34.8496H84.2041C84.3272 34.85 84.4482 34.8187 84.5556 34.7586C84.663 34.6985 84.7531 34.6118 84.8172 34.5067L96.0857 16.003C96.1266 15.9386 96.149 15.8642 96.1506 15.788C96.1522 15.7117 96.1328 15.6365 96.0947 15.5704C96.0567 15.5041 96.0015 15.4492 95.935 15.4115C95.8686 15.3737 95.7932 15.3544 95.7168 15.3557H91.4066C91.2829 15.3546 91.1611 15.3855 91.0529 15.4454C90.9448 15.5054 90.854 15.5923 90.7894 15.6977ZM77.2808 15.3484H73.6C73.4631 15.347 73.3303 15.3949 73.2257 15.4833C73.1211 15.5717 73.0517 15.6948 73.0302 15.83L72.911 16.5867C72.911 16.5867 70.0523 13.4896 64.9951 15.5826C62.0947 16.781 60.7012 19.2569 60.111 21.0708C60.111 21.0708 58.2286 26.5835 62.4817 29.6177C62.4817 29.6177 66.427 32.5361 70.8686 29.4381L70.7919 29.9214C70.7738 30.035 70.7936 30.1513 70.8482 30.2525C70.9028 30.3537 70.9891 30.4341 71.0939 30.4814C71.1633 30.5141 71.2392 30.5304 71.3159 30.5304H74.9959C75.1326 30.5314 75.265 30.4834 75.3694 30.3952C75.4737 30.3071 75.5431 30.1845 75.5649 30.0496L77.8041 15.9581C77.8224 15.8445 77.8027 15.728 77.7481 15.6266C77.6935 15.5252 77.607 15.4447 77.5021 15.3973C77.4324 15.3653 77.3575 15.3486 77.2808 15.3484ZM71.8686 23.1377C71.7237 24.1211 71.2258 25.018 70.4678 25.661C69.7062 26.3069 68.7373 26.6565 67.7388 26.6455C67.3476 26.6498 66.9582 26.5931 66.5845 26.4773C64.9976 25.9712 64.0923 24.4577 64.3527 22.8161C64.4977 21.8299 64.9979 20.9306 65.7592 20.2871C66.5234 19.6408 67.4956 19.2926 68.4964 19.3067C68.8882 19.3026 69.2792 19.3598 69.6531 19.4765C71.2343 19.9794 72.1347 21.4945 71.8735 23.1377H71.8686ZM52.2319 23.5263C54.2228 23.5253 56.1485 22.8167 57.6653 21.5271C59.1759 20.2433 60.1758 18.4602 60.4833 16.5018C61.1282 12.4267 57.92 8.86917 53.3747 8.86917H46.049C45.9123 8.8678 45.7797 8.91547 45.6751 9.00354C45.5706 9.09161 45.5011 9.21424 45.4792 9.34917L42.2139 29.9206C42.1957 30.0343 42.2153 30.1508 42.2699 30.2522C42.3245 30.3535 42.411 30.4341 42.5159 30.4814C42.5853 30.5133 42.6612 30.5304 42.738 30.5304H46.6139C46.7508 30.5317 46.8837 30.4838 46.9882 30.3954C47.0928 30.307 47.1622 30.184 47.1837 30.0488L48.1437 24.0063C48.1641 23.8706 48.2332 23.747 48.338 23.6586C48.4429 23.5701 48.5763 23.5228 48.7135 23.5255L52.2319 23.5263ZM55.4759 16.3165C55.2368 17.8235 54.0637 18.9328 51.818 18.9328H48.947L49.8172 13.4528H52.6368C54.9592 13.4569 55.7143 14.8169 55.4759 16.3206V16.3165Z" fill="#003087"/>
<path id="Vector_3" d="M27.1747 9.92587C27.2621 5.3822 23.5143 1.89648 18.3608 1.89648H7.70126C7.45285 1.89637 7.21257 1.98496 7.02369 2.1463C6.83482 2.30763 6.70976 2.53112 6.67105 2.77648L2.40003 29.4646C2.38092 29.5856 2.38825 29.7092 2.42151 29.8271C2.45477 29.9449 2.51317 30.0541 2.5927 30.1472C2.67222 30.2403 2.77097 30.3151 2.88216 30.3664C2.99335 30.4176 3.11433 30.4442 3.23677 30.4442H9.55187L8.56493 36.6238C8.54582 36.7448 8.55315 36.8684 8.58641 36.9862C8.61967 37.1041 8.67807 37.2133 8.75759 37.3064C8.83712 37.3995 8.93587 37.4743 9.04706 37.5255C9.15825 37.5768 9.27922 37.6034 9.40166 37.6034H14.5462C14.7943 37.6034 15.0155 37.5144 15.2049 37.3536C15.3927 37.192 15.4237 36.9691 15.4629 36.7234L16.9731 27.8385C17.0115 27.5936 17.1364 27.2753 17.3249 27.1136C17.5135 26.952 17.6784 26.8638 17.9274 26.8638H21.0751C26.1225 26.8638 30.4041 23.2761 31.187 18.2867C31.7413 14.7455 30.2229 11.5234 27.1747 9.92587Z" fill="#001C64"/>
<path id="Vector_4" d="M10.9185 20.6025L9.34542 30.5764L8.35767 36.8327C8.33868 36.9537 8.34612 37.0773 8.37949 37.1951C8.41286 37.3129 8.47135 37.422 8.55095 37.5151C8.63055 37.6081 8.72936 37.6828 8.84058 37.7339C8.9518 37.7851 9.07279 37.8116 9.19522 37.8115H14.6401C14.8883 37.8114 15.1283 37.7227 15.3168 37.5613C15.5054 37.4 15.6302 37.1767 15.6687 36.9315L17.1038 27.8384C17.1425 27.5932 17.2674 27.3698 17.4561 27.2085C17.6448 27.0472 17.8849 26.9585 18.1332 26.9584H21.3381C26.3854 26.9584 30.6671 23.2768 31.4507 18.2874C32.0058 14.7462 30.223 11.5233 27.1748 9.92578C27.1666 10.3029 27.134 10.6792 27.076 11.0523C26.2932 16.0401 22.0099 19.7225 16.9642 19.7225H11.9479C11.6995 19.7228 11.4594 19.8116 11.2707 19.9731C11.0821 20.1346 10.9572 20.3572 10.9185 20.6025Z" fill="#0070E0"/>
<path id="Vector_5" d="M9.34447 30.5765H3.00977C2.88736 30.5765 2.7664 30.5499 2.65525 30.4986C2.54409 30.4473 2.44538 30.3726 2.36592 30.2795C2.28645 30.1863 2.22813 30.0771 2.19498 29.9593C2.16182 29.8414 2.15461 29.7178 2.17385 29.5969L6.44487 2.51281C6.48356 2.26758 6.6085 2.04421 6.79721 1.88289C6.98591 1.72157 7.226 1.63289 7.47426 1.63281H18.3608C23.5143 1.63281 27.262 5.38302 27.1747 9.92587C25.8922 9.25322 24.3853 8.86873 22.7347 8.86873H13.6588C13.4103 8.86861 13.1701 8.9572 12.9812 9.11854C12.7923 9.27988 12.6673 9.50336 12.6285 9.74873L10.9192 20.6026L9.34365 30.5765H9.34447Z" fill="#003087"/>
</g>
</svg>
