<svg width="85" height="40" viewBox="0 0 85 40" fill="none" xmlns="http://www.w3.org/2000/svg">
<g id="stripe_logo.svg">
<g id="Group">
<path id="Vector" fill-rule="evenodd" clip-rule="evenodd" d="M75.2914 20.3861C75.2914 15.7838 73.0622 12.1523 68.8015 12.1523C64.5228 12.1523 61.9341 15.7838 61.9341 20.3501C61.9341 25.7613 64.9903 28.4939 69.3768 28.4939C71.5161 28.4939 73.1341 28.0085 74.3565 27.3254V23.7299C73.1341 24.3411 71.7318 24.7186 69.9521 24.7186C68.2082 24.7186 66.6622 24.1074 66.4644 21.9861H75.2554C75.2554 21.7523 75.2914 20.8175 75.2914 20.3861ZM66.4105 18.6782C66.4105 16.6467 67.6509 15.8018 68.7835 15.8018C69.8801 15.8018 71.0487 16.6467 71.0487 18.6782H66.4105Z" fill="#0A2540"/>
<path id="Vector_2" fill-rule="evenodd" clip-rule="evenodd" d="M54.9951 12.1523C53.2333 12.1523 52.1007 12.9793 51.4715 13.5546L51.2378 12.44H47.2827V33.4018L51.7771 32.449L51.7951 27.3613C52.4423 27.8287 53.3951 28.4939 54.9771 28.4939C58.1951 28.4939 61.1254 25.9052 61.1254 20.2063C61.1074 14.9928 58.1411 12.1523 54.9951 12.1523ZM53.9164 24.5389C52.8557 24.5389 52.2265 24.1613 51.7951 23.6939L51.7771 17.0243C52.2445 16.5029 52.8917 16.1434 53.9164 16.1434C55.5524 16.1434 56.685 17.9771 56.685 20.3321C56.685 22.7411 55.5704 24.5389 53.9164 24.5389Z" fill="#0A2540"/>
<path id="Vector_3" fill-rule="evenodd" clip-rule="evenodd" d="M41.0986 11.0909L45.611 10.1201V6.4707L41.0986 7.42351V11.0909Z" fill="#0A2540"/>
<path id="Vector_4" d="M45.611 12.457H41.0986V28.1874H45.611V12.457Z" fill="#0A2540"/>
<path id="Vector_5" fill-rule="evenodd" clip-rule="evenodd" d="M36.2631 13.7876L35.9754 12.4573H32.0923V28.1876H36.5867V17.527C37.6473 16.1427 39.4451 16.3944 40.0024 16.5921V12.4573C39.4271 12.2416 37.3237 11.8461 36.2631 13.7876Z" fill="#0A2540"/>
<path id="Vector_6" fill-rule="evenodd" clip-rule="evenodd" d="M27.2736 8.55469L22.8871 9.48952L22.8691 23.8895C22.8691 26.5502 24.8646 28.5097 27.5253 28.5097C28.9995 28.5097 30.0781 28.2401 30.6714 27.9165V24.267C30.0961 24.5008 27.2557 25.3277 27.2557 22.667V16.285H30.6714V12.4558H27.2557L27.2736 8.55469Z" fill="#0A2540"/>
<path id="Vector_7" fill-rule="evenodd" clip-rule="evenodd" d="M15.1211 17.0243C15.1211 16.3231 15.6964 16.0535 16.6492 16.0535C18.0155 16.0535 19.7413 16.467 21.1076 17.204V12.9793C19.6154 12.3861 18.1413 12.1523 16.6492 12.1523C12.9997 12.1523 10.5728 14.058 10.5728 17.24C10.5728 22.2018 17.4042 21.4108 17.4042 23.5501C17.4042 24.3771 16.6851 24.6467 15.6784 24.6467C14.1862 24.6467 12.2806 24.0355 10.7705 23.2085V27.4872C12.4424 28.2063 14.1323 28.5119 15.6784 28.5119C19.4177 28.5119 21.9885 26.6602 21.9885 23.4422C21.9705 18.0849 15.1211 19.0377 15.1211 17.0243Z" fill="#0A2540"/>
</g>
</g>
</svg>
