<svg width="178" height="178" viewBox="0 0 178 178" fill="none" xmlns="http://www.w3.org/2000/svg">
<g id="Payment Error" clip-path="url(#clip0_2266_10263)">
<g id="Clip path group">
<mask id="mask0_2266_10263" style="mask-type:luminance" maskUnits="userSpaceOnUse" x="0" y="0" width="179" height="179">
<g id="clip0_101_35704">
<path id="Vector" d="M178.016 0.0253906H0.015625V178.025H178.016V0.0253906Z" fill="white"/>
</g>
</mask>
<g mask="url(#mask0_2266_10263)">
<g id="Group">
<path id="Vector_2" fill-rule="evenodd" clip-rule="evenodd" d="M27.9922 67.3913C27.9922 61.9623 32.3933 57.5609 37.8224 57.5609H85.1254C90.5544 57.5609 94.9557 61.9623 94.9557 67.3913V151.567C94.9557 156.996 90.5544 161.397 85.1254 161.397H37.8224C32.3933 161.397 27.9922 156.996 27.9922 151.567V67.3913ZM37.8224 58.4971C32.9103 58.4971 28.9283 62.4791 28.9283 67.3913V151.567C28.9283 156.479 32.9103 160.46 37.8224 160.46H85.1254C90.0376 160.46 94.0195 156.479 94.0195 151.567V67.3913C94.0195 62.4791 90.0376 58.4971 85.1254 58.4971H37.8224Z" fill="#F1F1F1"/>
<path id="Vector_3" fill-rule="evenodd" clip-rule="evenodd" d="M115.727 67.8903C117.02 67.8903 118.068 68.9381 118.068 70.231V156.016C118.068 157.309 117.02 158.356 115.727 158.356H62.0983C60.8057 158.356 59.7578 157.309 59.7578 156.016V110.622L67.7288 112.947C68.1127 113.059 68.5268 113.002 68.8662 112.79L74.1593 109.482C74.7521 109.111 75.527 109.233 75.9773 109.768L81.3102 116.1C81.7415 116.613 82.4749 116.749 83.0617 116.426L91.7849 111.619C92.2572 111.359 92.8363 111.392 93.2753 111.704L98.537 115.438C98.9482 115.73 99.4852 115.779 99.9426 115.566L110.862 110.482C111.338 110.261 111.897 110.323 112.312 110.643L118.068 115.083V70.231C118.068 68.9381 117.02 67.8903 115.727 67.8903H62.0982C62.0673 67.8903 62.0366 67.8909 62.0059 67.892C62.0366 67.8909 62.0674 67.8903 62.0983 67.8903H115.727Z" fill="#CC8553"/>
<path id="Vector_4" d="M71.3281 30.5891H77.7593V34.8766H71.3281V30.5891Z" fill="#E5E5E5"/>
<path id="Vector_5" d="M42.6094 6.15039H79.9107V32.7328H42.6094V6.15039Z" fill="#FA822F"/>
<path id="Vector_6" d="M17.3125 56.2436C17.3125 51.073 21.504 46.8815 26.6746 46.8815H73.9775C79.1484 46.8815 83.3397 51.073 83.3397 56.2436V140.419C83.3397 145.59 79.1484 149.781 73.9775 149.781H26.6746C21.504 149.781 17.3125 145.59 17.3125 140.419V56.2436Z" fill="#F1F1F1"/>
<path id="Vector_7" fill-rule="evenodd" clip-rule="evenodd" d="M16.8438 56.2436C16.8438 50.8146 21.2449 46.4135 26.6739 46.4135H73.9768C79.4064 46.4135 83.8072 50.8146 83.8072 56.2436V140.419C83.8072 145.848 79.4064 150.249 73.9768 150.249H26.6739C21.2449 150.249 16.8438 145.848 16.8438 140.419V56.2436ZM26.6739 47.3496C21.7619 47.3496 17.7799 51.3316 17.7799 56.2436V140.419C17.7799 145.331 21.7619 149.313 26.6739 149.313H73.9768C78.889 149.313 82.8709 145.331 82.8709 140.419V56.2436C82.8709 51.3316 78.889 47.3496 73.9768 47.3496H26.6739Z" fill="#3E3D3D"/>
<path id="Vector_8" fill-rule="evenodd" clip-rule="evenodd" d="M20.7422 49.0003C22.3571 47.6761 24.4228 46.8815 26.6742 46.8815H73.9771C76.2288 46.8815 78.2948 47.6762 79.9098 49.0004V147.662C78.2948 148.986 76.2288 149.781 73.9771 149.781H26.6742C24.4228 149.781 22.3571 148.986 20.7422 147.663V49.0003Z" fill="white"/>
<path id="Vector_9" opacity="0.5" d="M25.8828 67.6583C25.8828 66.3655 26.9307 65.3176 28.2233 65.3176H72.4199C73.7122 65.3176 74.76 66.3655 74.76 67.6583V95.9912C74.76 97.2835 73.7122 98.3313 72.4199 98.3313H28.2233C26.9307 98.3313 25.8828 97.2835 25.8828 95.9912V67.6583Z" fill="#F1F1F1"/>
<path id="Vector_10" d="M25.8829 106.906H38.3166V114.624H25.8829V106.906ZM43.4614 106.906H55.8952V114.624H43.4614V106.906ZM61.0403 106.906H74.76V114.624H61.0403V106.906ZM25.8828 119.34H38.3165V127.058H25.8828V119.34ZM43.4613 119.34H55.895V127.058H43.4613V119.34ZM61.0402 119.34H74.76V127.058H61.0402V119.34Z" fill="#CC8553"/>
<path id="Vector_11" d="M25.8828 132.202H38.3165V139.92H25.8828V132.202Z" fill="#F97316"/>
<path id="Vector_12" d="M43.4609 132.202H55.8947V139.92H43.4609V132.202Z" fill="#CC8553"/>
<path id="Vector_13" d="M61.0391 132.202H74.7589V139.92H61.0391V132.202Z" fill="#F97316"/>
<path id="Vector_14" fill-rule="evenodd" clip-rule="evenodd" d="M16.8438 56.2436C16.8438 50.8146 21.2449 46.4135 26.6739 46.4135H73.9768C79.4064 46.4135 83.8072 50.8146 83.8072 56.2436V140.419C83.8072 145.848 79.4064 150.249 73.9768 150.249H26.6739C21.2449 150.249 16.8438 145.848 16.8438 140.419V56.2436ZM26.6739 47.3496C21.7619 47.3496 17.7799 51.3316 17.7799 56.2436V140.419C17.7799 145.331 21.7619 149.313 26.6739 149.313H73.9768C78.889 149.313 82.8709 145.331 82.8709 140.419V56.2436C82.8709 51.3316 78.889 47.3496 73.9768 47.3496H26.6739Z" fill="#3E3D3D"/>
<path id="Vector_15" d="M29.3125 28.0166H71.3298V57.6003H29.3125V28.0166Z" fill="#F1F1F1"/>
<path id="Vector_16" fill-rule="evenodd" clip-rule="evenodd" d="M71.3298 28.0165H29.3125V25.6584L29.3222 25.6477C29.3159 25.5807 29.3126 25.5127 29.3126 25.444C29.3126 24.2601 30.2723 23.3004 31.4562 23.3003H73.4735L71.3298 25.6584V28.0165Z" fill="#F1F1F1"/>
<path id="Vector_17" d="M79.9046 32.7329C79.9046 33.9168 78.9452 34.8766 77.7609 34.8766C76.5772 34.8766 75.6172 33.9168 75.6172 32.7329C75.6172 31.5489 76.5772 30.5891 77.7609 30.5891C78.9452 30.5891 79.9046 31.5489 79.9046 32.7329Z" fill="#FA822F"/>
<path id="Vector_18" d="M75.6156 25.444C75.6156 26.6279 74.6561 27.5878 73.4718 27.5878C72.2881 27.5878 71.3281 26.6279 71.3281 25.444C71.3281 24.2601 72.2881 23.3003 73.4718 23.3003C74.6561 23.3003 75.6156 24.2601 75.6156 25.444Z" fill="#E5E5E5"/>
<path id="Vector_19" d="M71.3281 25.4441H75.6156V34.8765H71.3281V25.4441Z" fill="#E5E5E5"/>
<path id="Vector_20" d="M65.1157 81.8247C65.1157 89.8756 58.5893 96.4023 50.5384 96.4023C42.4875 96.4023 35.9609 89.8756 35.9609 81.8247C35.9609 73.7737 42.4875 67.2471 50.5384 67.2471C58.5893 67.2471 65.1157 73.7737 65.1157 81.8247Z" fill="#F97316"/>
<path id="Vector_21" d="M29.3125 54.599H71.3298V57.6002H29.3125V54.599Z" fill="#E5E5E5"/>
<path id="Vector_22" fill-rule="evenodd" clip-rule="evenodd" d="M41.3203 88.3965L57.1118 72.605L59.7598 75.253L43.9683 91.0446L41.3203 88.3965Z" fill="white"/>
<path id="Vector_23" fill-rule="evenodd" clip-rule="evenodd" d="M43.9683 72.605L59.7598 88.3965L57.1118 91.0446L41.3203 75.253L43.9683 72.605Z" fill="white"/>
<path id="Vector_24" fill-rule="evenodd" clip-rule="evenodd" d="M92.7656 111.479V158.356H106.057V112.717L99.9367 115.566C99.4792 115.779 98.9428 115.73 98.5316 115.438L93.27 111.704C93.1157 111.594 92.9442 111.519 92.7656 111.479Z" fill="#BC7646"/>
<path id="Vector_25" fill-rule="evenodd" clip-rule="evenodd" d="M162.323 91.8562C162.788 93.0618 162.187 94.417 160.981 94.8822L119.133 111.022L121.204 104.055C121.354 103.552 121.21 103.007 120.833 102.644L112.161 94.2847C111.798 93.934 111.65 93.416 111.774 92.9271L113.365 86.6746C113.497 86.1525 113.32 85.6001 112.908 85.2536L105.284 78.8444C104.771 78.413 104.634 77.6797 104.957 77.0928L108.947 69.8388C109.284 69.2258 109.118 68.4587 108.559 68.0392L103.568 64.2911C103.248 64.0508 103.046 63.6853 103.012 63.286L102.312 55.0127L139.999 40.4781C141.205 40.013 142.559 40.6136 143.025 41.8196L162.323 91.8562Z" fill="#CC8553"/>
<path id="Vector_26" fill-rule="evenodd" clip-rule="evenodd" d="M57.7827 121.817L53 109.415L57.7828 121.817H57.7827ZM117.021 98.9697L112.16 94.2848C111.797 93.9347 111.65 93.4161 111.774 92.9272L113.365 86.6747C113.411 86.4913 113.42 86.3038 113.393 86.1235L154.062 70.4381L158.845 82.8394L117.021 98.9697Z" fill="#BC7646"/>
<path id="Vector_27" d="M115.489 31.0177C115.489 38.2399 109.635 44.0946 102.412 44.0946C95.1904 44.0946 89.3359 38.2399 89.3359 31.0177C89.3359 23.7956 95.1904 17.9409 102.412 17.9409C109.635 17.9409 115.489 23.7956 115.489 31.0177Z" fill="#F97316"/>
<path id="Vector_28" d="M130.074 31.0177C130.074 28.5314 128.059 26.5159 125.572 26.5159C123.086 26.5159 121.07 28.5314 121.07 31.0177C121.07 33.504 123.086 35.5196 125.572 35.5196C128.059 35.5196 130.074 33.504 130.074 31.0177Z" fill="#FA822F"/>
<path id="Vector_29" fill-rule="evenodd" clip-rule="evenodd" d="M95.0391 36.0768L107.474 23.6423L109.791 25.9594L97.356 38.3938L95.0391 36.0768Z" fill="white"/>
<path id="Vector_30" fill-rule="evenodd" clip-rule="evenodd" d="M97.356 23.6426L109.791 36.0771L107.474 38.394L95.0391 25.9595L97.356 23.6426Z" fill="white"/>
<path id="Vector_31" d="M164.797 165.431H125.781V171.433H164.797V165.431Z" fill="#F97316"/>
<path id="Vector_32" d="M169.516 159.857H130.5V165.431H169.516V159.857Z" fill="#CC8553"/>
<path id="Vector_33" d="M166.946 153.854H127.93V159.857H166.946V153.854Z" fill="#FA822F"/>
<path id="Vector_34" fill-rule="evenodd" clip-rule="evenodd" d="M3.33594 171.433C3.33594 171.175 3.54552 170.965 3.80404 170.965H174.232C174.49 170.965 174.7 171.175 174.7 171.433C174.7 171.691 174.49 171.901 174.232 171.901H3.80404C3.54552 171.901 3.33594 171.691 3.33594 171.433Z" fill="#3E3D3D"/>
<path id="Vector_35" fill-rule="evenodd" clip-rule="evenodd" d="M162.227 123.238H130.07V122.302H162.227V123.238ZM162.227 131.599H130.07V130.663H162.227V131.599ZM146.792 140.603H130.07V139.666H146.792V140.603Z" fill="#F1F1F1"/>
<path id="Vector_36" fill-rule="evenodd" clip-rule="evenodd" d="M65.1157 32.9865H35.9609V32.0503H65.1157V32.9865ZM65.1157 40.4896H35.9609V39.5534H65.1157V40.4896ZM65.1157 47.3496H35.9609V46.4134H65.1157V47.3496Z" fill="#3E3D3D"/>
</g>
</g>
</g>
</g>
<defs>
<clipPath id="clip0_2266_10263">
<rect width="178" height="178" fill="white"/>
</clipPath>
</defs>
</svg>
