<svg width="65" height="40" viewBox="0 0 65 40" fill="none" xmlns="http://www.w3.org/2000/svg">
<g id="Symbol.svg" clip-path="url(#clip0_20456_39432)">
<g id="Group">
<g id="Group_2">
<path id="Vector" d="M41.3889 4.2793H23.8889V35.7237H41.3889V4.2793Z" fill="#FF5F00"/>
<path id="Vector_2" d="M25 20.0007C25 13.8896 27.8334 8.05627 32.6112 4.2785C23.9445 -2.55484 11.3889 -1.05484 4.5556 7.66738C-2.27774 16.3341 -0.777738 28.8896 7.94448 35.7229C15.2223 41.4452 25.3889 41.4452 32.6667 35.7229C27.8334 31.9452 25 26.1118 25 20.0007Z" fill="#EB001B"/>
<path id="Vector_3" d="M65.0001 20.0007C65.0001 31.0563 56.0556 40.0007 45.0001 40.0007C40.5001 40.0007 36.1667 38.5007 32.6667 35.7229C41.3334 28.8896 42.8334 16.334 36.0001 7.61183C35.0001 6.38961 33.889 5.22294 32.6667 4.2785C41.3334 -2.55484 53.9445 -1.05484 60.7223 7.66738C63.5001 11.1674 65.0001 15.5007 65.0001 20.0007Z" fill="#F79E1B"/>
<path id="Vector_4" d="M63.1111 32.3891V31.7224H63.3888V31.6113H62.7222V31.7224H62.9999V32.3891H63.1111ZM64.3888 32.3891V31.6113H64.1666L63.9444 32.1669L63.7222 31.6113H63.4999V32.3891H63.6666V31.778L63.8888 32.278H64.0555L64.2777 31.778V32.3891H64.3888Z" fill="#F79E1B"/>
</g>
</g>
</g>
<defs>
<clipPath id="clip0_20456_39432">
<rect width="64.7222" height="40" fill="white" transform="translate(0.277832)"/>
</clipPath>
</defs>
</svg>
