<svg xmlns="http://www.w3.org/2000/svg" width="25" height="24" viewBox="0 0 25 24" fill="none">
  <path d="M21.25 15.9999V7.9999C21.2496 7.64918 21.1571 7.30471 20.9815 7.00106C20.806 6.69742 20.5537 6.44526 20.25 6.2699L13.25 2.2699C12.946 2.09437 12.6011 2.00195 12.25 2.00195C11.8989 2.00195 11.554 2.09437 11.25 2.2699L4.25 6.2699C3.94626 6.44526 3.69398 6.69742 3.51846 7.00106C3.34294 7.30471 3.25036 7.64918 3.25 7.9999V15.9999C3.25036 16.3506 3.34294 16.6951 3.51846 16.9987C3.69398 17.3024 3.94626 17.5545 4.25 17.7299L11.25 21.7299C11.554 21.9054 11.8989 21.9979 12.25 21.9979C12.6011 21.9979 12.946 21.9054 13.25 21.7299L20.25 17.7299C20.5537 17.5545 20.806 17.3024 20.9815 16.9987C21.1571 16.6951 21.2496 16.3506 21.25 15.9999Z" stroke="#0A0A0A" stroke-width="2" stroke-linecap="round" stroke-linejoin="round"/>
  <path d="M3.54001 7L12.25 12L20.96 7" stroke="#0A0A0A" stroke-width="2" stroke-linecap="round" stroke-linejoin="round"/>
  <path d="M12.25 22V12" stroke="black" stroke-width="2" stroke-linecap="round" stroke-linejoin="round"/>
</svg>