<svg width="310" height="196" viewBox="0 0 310 196" fill="none" xmlns="http://www.w3.org/2000/svg">
<path d="M239.136 46.5147L239.549 47.8985L238.234 56.7106L235.783 57.3574L237.081 48.9373L233.841 49.784L234.283 51.2893L232.291 51.8224L231.336 48.5727L239.136 46.5147Z" fill="#E0E0E0"/>
<path d="M249.121 50.7052C249.6 52.3437 248.753 54.1038 245.971 54.8369C244.664 55.2082 243.27 55.2082 241.962 54.8369L242.375 52.9631C243.345 53.2981 244.401 53.3338 245.393 53.065C246.517 52.7671 247.083 52.136 246.864 51.3833C246.645 50.6307 246.009 50.3132 244.239 50.7797L241.759 51.4382L240.734 46.1031L246.678 44.5351L247.17 46.256L243.103 47.3261L243.467 49.1254L244.26 48.9137C247.141 48.1415 248.641 49.0705 249.121 50.7052Z" fill="#E0E0E0"/>
<path d="M248.939 46.5578C248.501 45.0526 249.096 43.8138 250.407 43.4689C251.717 43.1239 252.887 43.8609 253.341 45.3975C253.796 46.9342 253.172 48.1415 251.874 48.4865C250.576 48.8314 249.382 48.0631 248.939 46.5578ZM252.659 45.5818C252.308 44.3822 251.502 43.8256 250.593 44.0647C249.683 44.3038 249.299 45.1858 249.65 46.3775C250.002 47.5692 250.795 48.1376 251.717 47.8946C252.639 47.6515 252.994 46.7852 252.643 45.5818H252.659ZM256.342 41.9793L257.169 41.7637L253.226 52.7593L252.399 52.9749L256.342 41.9793ZM256.206 49.341C255.768 47.8358 256.375 46.597 257.669 46.2521C258.963 45.9071 260.149 46.6754 260.608 48.1807C261.067 49.686 260.451 50.9247 259.14 51.2697C257.83 51.6146 256.632 50.8463 256.189 49.341H256.206ZM259.926 48.365C259.579 47.189 258.781 46.6049 257.859 46.8479C256.937 47.091 256.561 47.9573 256.917 49.1568C257.272 50.3563 258.074 50.913 258.983 50.6738C259.893 50.4347 260.24 49.5527 259.893 48.365H259.926Z" fill="#E0E0E0"/>
<path d="M260.367 175.192L289.469 175.409L289.757 140.569L260.655 140.352L260.367 175.192Z" fill="#EBEBEB"/>
<path d="M278.371 141.602L277.854 175.334L273.258 175.302L274.242 141.571L278.371 141.602Z" fill="#FAFAFA"/>
<path d="M243.945 141.347L260.639 141.473L289.742 141.688L260.61 145.322L260.362 175.204L243.672 175.083L243.945 141.347Z" fill="#E0E0E0"/>
<path d="M253.031 141.414L252.366 175.146L247.414 175.11L248.224 141.379L253.031 141.414Z" fill="#FAFAFA"/>
<path d="M266.246 131.147C266.246 131.218 265.754 131.304 264.857 131.387C263.589 131.504 262.316 131.557 261.042 131.547C259.118 131.555 257.202 131.316 255.346 130.838C255.058 130.75 254.78 130.631 254.52 130.485C254.213 130.318 253.952 130.084 253.759 129.803C253.56 129.501 253.454 129.152 253.453 128.795C253.454 128.483 253.496 128.173 253.577 127.87C253.837 126.738 254.198 125.629 254.656 124.554C254.909 123.993 255.225 123.459 255.598 122.963C255.971 122.452 256.44 122.012 256.983 121.665C257.274 121.479 257.599 121.346 257.942 121.273C258.291 121.201 258.651 121.201 259 121.273C259.594 121.434 260.143 121.718 260.608 122.104C262.112 123.259 263.393 124.653 264.394 126.224C265.067 127.271 265.583 128.402 265.928 129.583C266.155 130.422 266.18 130.901 266.118 130.916C265.936 130.967 265.527 129.082 263.753 126.604C262.712 125.175 261.442 123.909 259.988 122.853C259.625 122.565 259.203 122.352 258.748 122.229C258.537 122.19 258.321 122.192 258.111 122.235C257.901 122.278 257.703 122.362 257.529 122.48C257.104 122.766 256.737 123.122 256.446 123.531C256.12 123.971 255.843 124.441 255.619 124.934C255.19 125.953 254.843 127.001 254.582 128.07C254.43 128.451 254.44 128.873 254.61 129.246C254.873 129.57 255.24 129.804 255.656 129.913C256.127 130.058 256.606 130.178 257.09 130.273C257.566 130.375 258.037 130.454 258.496 130.52C259.409 130.657 260.269 130.736 261.063 130.787C262.646 130.889 263.956 130.908 264.836 130.951C265.717 130.995 266.242 131.077 266.246 131.147Z" fill="#E0E0E0"/>
<path d="M265.645 131.402C265.645 131.332 266.174 131.183 267.153 130.971C268.133 130.759 269.563 130.481 271.287 130.085C273.314 129.642 275.302 129.047 277.23 128.305C277.759 128.116 278.261 127.863 278.722 127.553C278.919 127.421 279.082 127.249 279.202 127.051C279.297 126.875 279.326 126.673 279.285 126.479C279.223 126.22 279.127 125.97 278.999 125.734C278.863 125.456 278.722 125.173 278.586 124.891C278.308 124.33 277.991 123.788 277.635 123.268C277.286 122.764 276.869 122.304 276.395 121.9C275.966 121.513 275.464 121.206 274.916 120.995C274.426 120.813 273.886 120.791 273.382 120.932C272.872 121.102 272.404 121.369 272.006 121.716C270.454 123.004 269.113 124.504 268.025 126.165C267.292 127.291 266.698 128.493 266.256 129.748C265.946 130.646 265.822 131.159 265.74 131.147C265.657 131.136 265.661 130.603 265.851 129.65C266.149 128.302 266.659 127.005 267.364 125.801C268.411 124.009 269.758 122.391 271.353 121.01C271.843 120.561 272.427 120.215 273.068 119.995C273.788 119.778 274.563 119.796 275.271 120.046C275.617 120.164 275.947 120.321 276.255 120.513C276.555 120.701 276.841 120.909 277.11 121.136C277.649 121.597 278.12 122.125 278.512 122.704C278.893 123.263 279.234 123.846 279.533 124.448L279.946 125.315C280.112 125.632 280.232 125.97 280.301 126.318C280.379 126.728 280.308 127.151 280.099 127.518C279.906 127.839 279.64 128.116 279.322 128.329C278.785 128.682 278.201 128.967 277.586 129.176C275.589 129.896 273.526 130.437 271.423 130.791C269.641 131.104 268.191 131.265 267.19 131.363C266.19 131.461 265.657 131.469 265.645 131.402Z" fill="#FAFAFA"/>
<path d="M238.647 141.297L281.426 141.616L281.521 130.083L238.743 129.765L238.647 141.297Z" fill="#E0E0E0"/>
<path d="M254.385 141.41L293.051 141.698L293.146 130.166L254.48 129.878L254.385 141.41Z" fill="#EBEBEB"/>
<path d="M281.27 130.093L281.002 141.677L276.492 141.586L276.806 130.058L281.27 130.093Z" fill="#FAFAFA"/>
<path d="M249.234 129.913L248.796 141.394L243.84 141.355L244.104 129.819L249.234 129.913Z" fill="#FAFAFA"/>
<path d="M282.567 175.6L295.859 175.699L295.991 159.785L282.699 159.685L282.567 175.6Z" fill="#EBEBEB"/>
<path d="M290.785 160.265L290.549 175.671L288.445 175.659L288.896 160.25L290.785 160.265Z" fill="#FAFAFA"/>
<path d="M275.058 160.148L282.684 160.203L295.976 160.304L282.671 161.963L282.555 175.612L274.934 175.557L275.058 160.148Z" fill="#E0E0E0"/>
<path d="M279.207 160.179L278.906 175.589L276.641 175.569L277.013 160.163L279.207 160.179Z" fill="#FAFAFA"/>
<path d="M285.247 155.491C285.247 155.62 284.358 155.816 282.862 155.883C281.958 155.914 281.055 155.821 280.179 155.604C279.826 155.516 279.516 155.314 279.303 155.032C279.183 154.853 279.118 154.645 279.117 154.432C279.117 154.267 279.137 154.103 279.175 153.942C279.294 153.407 279.463 152.882 279.679 152.374C279.803 152.098 279.958 151.835 280.142 151.59C280.333 151.325 280.576 151.098 280.857 150.92C281.023 150.817 281.209 150.746 281.405 150.713C281.6 150.68 281.801 150.685 281.994 150.728C282.3 150.815 282.583 150.965 282.821 151.167C283.522 151.715 284.111 152.379 284.561 153.127C285.309 154.424 285.301 155.361 285.173 155.377C285.044 155.393 284.759 154.593 283.933 153.519C283.449 152.904 282.872 152.36 282.221 151.904C282.088 151.796 281.931 151.717 281.763 151.673C281.703 151.664 281.642 151.667 281.584 151.682C281.525 151.697 281.471 151.723 281.424 151.759C281.262 151.872 281.122 152.012 281.01 152.17C280.875 152.356 280.76 152.554 280.667 152.762C280.476 153.212 280.321 153.674 280.204 154.146C280.142 154.366 280.155 154.464 280.175 154.487C280.259 154.585 280.374 154.655 280.502 154.687C280.907 154.814 281.321 154.912 281.742 154.981C282.155 155.052 282.535 155.099 282.891 155.134C284.321 155.275 285.243 155.338 285.247 155.491Z" fill="#E0E0E0"/>
<path d="M284.97 155.624C284.945 155.475 285.941 155.232 287.508 154.84C288.414 154.612 289.302 154.325 290.166 153.981C290.384 153.899 290.591 153.793 290.782 153.664C290.837 153.625 290.884 153.576 290.918 153.519C290.918 153.488 290.918 153.488 290.918 153.429C290.838 153.205 290.738 152.987 290.62 152.778C290.498 152.534 290.36 152.297 290.207 152.069C290.062 151.859 289.892 151.667 289.699 151.496C289.53 151.344 289.334 151.222 289.12 151.136C288.955 151.069 288.772 151.058 288.599 151.104C288.402 151.168 288.22 151.269 288.066 151.402C287.368 151.966 286.756 152.619 286.247 153.343C285.375 154.589 285.193 155.546 285.007 155.522C284.941 155.522 284.896 155.259 284.949 154.809C285.045 154.17 285.256 153.552 285.574 152.982C286.038 152.126 286.654 151.353 287.396 150.697C287.645 150.465 287.944 150.287 288.273 150.175C288.659 150.054 289.077 150.061 289.459 150.195C289.64 150.253 289.812 150.333 289.971 150.434C290.117 150.526 290.255 150.628 290.385 150.74C290.65 150.971 290.882 151.235 291.075 151.524C291.256 151.789 291.417 152.065 291.559 152.351C291.625 152.488 291.687 152.621 291.753 152.743C291.838 152.911 291.899 153.089 291.935 153.272C291.977 153.517 291.934 153.77 291.811 153.989C291.701 154.169 291.552 154.324 291.373 154.444C291.107 154.612 290.817 154.744 290.513 154.836C289.583 155.16 288.62 155.392 287.64 155.53C286.024 155.745 284.995 155.734 284.97 155.624Z" fill="#FAFAFA"/>
<path d="M272.646 160.116L292.184 160.262L292.227 154.994L272.69 154.848L272.646 160.116Z" fill="#E0E0E0"/>
<path d="M279.831 160.171L297.492 160.302L297.536 155.034L279.875 154.902L279.831 160.171Z" fill="#EBEBEB"/>
<path d="M292.108 155.009L291.984 160.297L289.926 160.257L290.07 154.993L292.108 155.009Z" fill="#FAFAFA"/>
<path d="M277.471 154.922L277.273 160.167L275.008 160.152L275.132 154.879L277.471 154.922Z" fill="#FAFAFA"/>
<path d="M29.644 175.547L53.4844 175.724L53.7207 147.184L29.8804 147.006L29.644 175.547Z" fill="#EBEBEB"/>
<path d="M44.3865 148.019L43.9649 175.655L40.1953 175.628L41.0054 147.996L44.3865 148.019Z" fill="#FAFAFA"/>
<path d="M16.1841 147.811L29.8613 147.913L53.7024 148.09L29.8365 151.069L29.634 175.549L15.9609 175.447L16.1841 147.811Z" fill="#E0E0E0"/>
<path d="M23.6277 147.866L23.0863 175.498L19.0273 175.471L19.6887 147.839L23.6277 147.866Z" fill="#FAFAFA"/>
<path d="M34.4531 139.458C34.4531 139.599 34.0398 139.744 33.3247 139.885C31.5543 140.202 29.7474 140.294 27.9514 140.16C27.538 140.124 27.1247 140.081 26.7114 140.011C26.2507 139.945 25.7951 139.851 25.3474 139.728C25.0663 139.647 24.7959 139.535 24.5414 139.395C24.2092 139.215 23.9261 138.964 23.7147 138.662C23.4908 138.325 23.3692 137.936 23.3634 137.537C23.3611 137.233 23.3986 136.93 23.475 136.635C23.6884 135.671 23.9913 134.727 24.3802 133.813C24.6023 133.316 24.8794 132.843 25.2068 132.402C25.3817 132.179 25.5708 131.967 25.7731 131.767C25.9956 131.545 26.247 131.352 26.5212 131.191C26.8254 131.004 27.163 130.871 27.5174 130.799C27.8908 130.728 28.276 130.736 28.6458 130.822C29.2173 130.978 29.7443 131.254 30.1875 131.63C31.4513 132.625 32.5107 133.833 33.3123 135.193C33.8508 136.097 34.2265 137.08 34.4242 138.102C34.544 138.823 34.482 139.238 34.3456 139.278C34.0274 139.352 33.519 137.87 32.031 135.985C31.158 134.897 30.1252 133.933 28.964 133.123C28.7361 132.941 28.4698 132.807 28.1828 132.731C28.0892 132.719 27.9938 132.725 27.9028 132.749C27.8117 132.774 27.727 132.815 27.6538 132.872C27.5264 132.957 27.4087 133.054 27.3024 133.162C27.1867 133.284 27.0586 133.437 26.9428 133.586C26.7058 133.912 26.5037 134.26 26.3394 134.625C26.0022 135.427 25.7259 136.251 25.5127 137.09C25.469 137.225 25.4426 137.365 25.4342 137.506C25.4342 137.596 25.4342 137.604 25.4342 137.623C25.5725 137.78 25.7588 137.893 25.9674 137.945C26.3266 138.065 26.6922 138.167 27.0627 138.251C27.4388 138.341 27.8108 138.411 28.1704 138.478C28.8938 138.603 29.584 138.693 30.2371 138.764C31.5102 138.901 32.5683 138.984 33.2999 139.089C34.0315 139.195 34.449 139.317 34.4531 139.458Z" fill="#E0E0E0"/>
<path d="M33.9628 139.662C33.9091 139.372 35.6947 138.901 38.5095 138.168C40.1261 137.75 41.7102 137.226 43.2504 136.6C43.6326 136.458 43.9939 136.27 44.3251 136.04C44.4157 135.981 44.4907 135.903 44.5442 135.812C44.5442 135.777 44.5442 135.812 44.5442 135.714C44.4978 135.557 44.4341 135.404 44.354 135.26L44.011 134.581C43.792 134.148 43.5449 133.728 43.2711 133.323C43.019 132.953 42.719 132.615 42.3783 132.316C42.2184 132.173 42.0471 132.042 41.8658 131.924C41.7145 131.823 41.5507 131.74 41.378 131.677C41.1053 131.565 40.8009 131.545 40.5142 131.618C40.1727 131.729 39.859 131.905 39.5924 132.135C38.3459 133.136 37.2488 134.292 36.3312 135.573C34.7564 137.784 34.401 139.493 34.0744 139.446C33.9339 139.446 33.8347 138.972 33.9256 138.156C34.0838 137.003 34.4531 135.885 35.0168 134.852C35.8434 133.305 36.9484 131.907 38.2822 130.72C38.7402 130.296 39.2883 129.968 39.89 129.76C40.6079 129.538 41.3836 129.55 42.0931 129.795C42.4235 129.905 42.7386 130.052 43.0314 130.234C43.3053 130.402 43.5651 130.589 43.8084 130.795C44.2846 131.205 44.7016 131.673 45.0484 132.186C45.3756 132.668 45.6683 133.169 45.9247 133.688L46.2719 134.409C46.4296 134.718 46.5422 135.047 46.6067 135.385C46.6888 135.849 46.6044 136.325 46.367 136.737C46.1619 137.076 45.8795 137.367 45.5403 137.588C45.055 137.904 44.5266 138.156 43.9696 138.337C42.2961 138.916 40.5629 139.326 38.7988 139.56C37.6316 139.73 36.4537 139.825 35.2731 139.846C34.4588 139.87 33.9835 139.803 33.9628 139.662Z" fill="#FAFAFA"/>
<path d="M11.8532 147.78L46.8945 148.041L46.9728 138.594L11.9314 138.333L11.8532 147.78Z" fill="#E0E0E0"/>
<path d="M24.7333 147.873L56.4102 148.109L56.4884 138.663L24.8115 138.427L24.7333 147.873Z" fill="#EBEBEB"/>
<path d="M46.7619 138.592L46.5429 148.082L42.8477 148.007L43.1039 138.564L46.7619 138.592Z" fill="#FAFAFA"/>
<path d="M20.5162 138.443L20.1607 147.851L16.0977 147.819L16.3167 138.368L20.5162 138.443Z" fill="#FAFAFA"/>
<path d="M56.9548 30.0586L57.3681 31.5521L51.0648 33.0887L50.7424 31.9127L53.181 28.2475C53.739 27.4008 53.7597 26.9618 53.6564 26.5776C53.4869 25.9543 52.9372 25.7034 52.0568 25.919C51.7189 25.9871 51.4039 26.1332 51.14 26.3446C50.8761 26.5559 50.6713 26.8258 50.544 27.1303L48.8906 26.6129C49.304 25.5623 50.3042 24.7038 51.784 24.3354C53.644 23.8846 55.1278 24.4882 55.504 25.9034C55.7148 26.6874 55.6776 27.4282 54.7848 28.7414L53.334 30.9249L56.9548 30.0586Z" fill="#E0E0E0"/>
<path d="M57.0635 27.4086C56.3567 24.794 57.4768 22.9437 59.5435 22.4459C61.6102 21.9481 63.5198 23.0535 64.2266 25.6642C64.9334 28.2749 63.8132 30.1252 61.7466 30.6269C59.6799 31.1287 57.7703 30.0193 57.0635 27.4086ZM62.2715 26.1385C61.7838 24.3393 60.9158 23.7591 59.9486 23.9943C58.9814 24.2295 58.5308 25.135 59.0186 26.9304C59.5063 28.7257 60.3743 29.3098 61.3291 29.0785C62.2839 28.8473 62.7592 27.9339 62.2715 26.1385Z" fill="#E0E0E0"/>
<path d="M64.6891 23.5631C64.3378 22.2734 64.871 21.2111 65.9912 20.9563C67.1113 20.7015 68.1033 21.3483 68.4712 22.6458C68.839 23.9433 68.2769 24.9978 67.1691 25.2526C66.0614 25.5074 65.0363 24.8489 64.6891 23.5631ZM67.8594 22.7791C67.5783 21.7481 66.9005 21.2621 66.1276 21.4541C65.3546 21.6462 65.0074 22.3871 65.3009 23.4141C65.5944 24.4412 66.2433 24.9312 67.0327 24.7391C67.8222 24.547 68.1363 23.8179 67.8594 22.7909V22.7791ZM71.0586 19.7685L71.7613 19.6L68.1984 28.91L67.4957 29.0825L71.0586 19.7685ZM70.8106 26.0405C70.4634 24.7509 71.0049 23.6885 72.1126 23.4337C73.2204 23.1789 74.2289 23.8257 74.5926 25.1233C74.9564 26.4208 74.4108 27.4753 73.2906 27.7261C72.1705 27.977 71.162 27.3341 70.8106 26.0484V26.0405ZM73.9809 25.2565C73.704 24.2373 73.0385 23.7395 72.249 23.9316C71.4596 24.1237 71.1289 24.8528 71.4224 25.8916C71.7158 26.9304 72.3813 27.4047 73.1542 27.2165C73.9272 27.0284 74.2578 26.2914 73.985 25.2761L73.9809 25.2565Z" fill="#E0E0E0"/>
<path d="M135.252 54.8447C135.285 56.4637 134.012 57.9807 131.119 58.0121C129.756 58.0592 128.409 57.7238 127.246 57.0478L128.122 55.3347C128.974 55.885 129.985 56.17 131.016 56.1501C132.185 56.1305 132.901 55.6679 132.888 54.8839C132.888 54.1587 132.301 53.7079 130.974 53.7393H129.904L129.879 52.2732L131.917 50.0074L127.61 50.078L127.581 48.2944L134.657 48.1807L134.686 49.6194L132.458 52.136C134.285 52.383 135.228 53.4335 135.252 54.8447Z" fill="#E0E0E0"/>
<path d="M136.302 52.967C136.244 49.784 138.051 47.9769 140.531 47.9338C143.011 47.8906 144.895 49.6586 144.953 52.822C145.011 55.9854 143.209 57.8161 140.712 57.8553C138.216 57.8945 136.36 56.1305 136.302 52.967ZM142.618 52.8612C142.577 50.6856 141.75 49.7918 140.58 49.8114C139.41 49.831 138.633 50.7483 138.675 52.9474C138.716 55.1466 139.539 56.0168 140.692 55.9972C141.845 55.9776 142.655 55.0407 142.618 52.8612Z" fill="#E0E0E0"/>
<path d="M146.114 50.5445C146.085 48.9765 146.99 47.9259 148.35 47.9024C149.71 47.8789 150.652 48.8942 150.681 50.47C150.71 52.0458 149.788 53.0885 148.445 53.1082C147.102 53.1277 146.143 52.1046 146.114 50.5445ZM149.958 50.4818C149.933 49.2352 149.301 48.5218 148.362 48.5218C147.424 48.5218 146.812 49.3058 146.837 50.5366C146.862 51.7675 147.478 52.4966 148.433 52.4966C149.388 52.4966 149.979 51.744 149.958 50.4818ZM154.476 47.871H155.327L148.598 57.573H147.747L154.476 47.871ZM152.409 54.9623C152.384 53.3943 153.302 52.3438 154.645 52.3241C155.988 52.3045 156.947 53.3277 156.976 54.8878C157.005 56.448 156.1 57.5064 154.74 57.5299C153.38 57.5534 152.421 56.5264 152.392 54.9623H152.409ZM156.253 54.8996C156.232 53.6687 155.612 52.9396 154.658 52.9396C153.703 52.9396 153.112 53.704 153.132 54.9505C153.153 56.1971 153.79 56.9105 154.728 56.9105C155.666 56.9105 156.261 56.1344 156.236 54.8996H156.253Z" fill="#E0E0E0"/>
<path d="M184.173 25.2173C183.975 26.4403 182.854 27.3694 180.771 27.0675C179.786 26.9418 178.86 26.5452 178.109 25.9268L178.973 24.7979C179.511 25.2952 180.201 25.6178 180.945 25.7191C181.792 25.8406 182.367 25.5819 182.458 25.0174C182.549 24.4529 182.226 24.0648 180.904 23.8727L179.039 23.6023L180.04 19.7646L184.487 20.4075L184.28 21.6932L181.238 21.2542L180.912 22.5478L181.507 22.634C183.665 22.9476 184.371 23.9903 184.173 25.2173Z" fill="#F5F5F5"/>
<path d="M185.066 24.0335C185.433 21.7481 186.975 20.6466 188.786 20.8975C190.596 21.1483 191.704 22.6419 191.336 24.9272C190.968 27.2126 189.435 28.3102 187.616 28.0632C185.797 27.8163 184.702 26.3149 185.066 24.0335ZM189.612 24.692C189.864 23.124 189.385 22.3831 188.542 22.2616C187.699 22.1401 187.021 22.7085 186.769 24.2804C186.516 25.8523 186.992 26.5854 187.827 26.7069C188.662 26.8284 189.368 26.2639 189.621 24.6959L189.612 24.692Z" fill="#F5F5F5"/>
<path d="M192.433 23.4298C192.615 22.3048 193.404 21.6502 194.384 21.7913C195.363 21.9324 195.909 22.7713 195.727 23.9081C195.545 25.0449 194.747 25.6878 193.776 25.5466C192.805 25.4055 192.251 24.5588 192.433 23.4298ZM198.811 22.4812L199.426 22.5714L193.313 28.765L192.697 28.6748L198.811 22.4812ZM195.227 23.8336C195.372 22.932 195.008 22.3362 194.33 22.2382C193.652 22.1402 193.119 22.6302 192.974 23.5082C192.83 24.3863 193.181 25.0018 193.871 25.1037C194.561 25.2056 195.062 24.7313 195.206 23.8336H195.227ZM196.397 27.3381C196.579 26.213 197.376 25.5584 198.348 25.6995C199.319 25.8406 199.873 26.6913 199.691 27.8163C199.509 28.9414 198.72 29.596 197.74 29.4549C196.76 29.3138 196.194 28.467 196.376 27.3381H196.397ZM199.17 27.7301C199.311 26.8402 198.963 26.2326 198.273 26.1346C197.583 26.0366 197.062 26.5031 196.917 27.4008C196.773 28.2985 197.137 28.9022 197.814 29.0002C198.492 29.0982 199.005 28.616 199.149 27.7418L199.17 27.7301Z" fill="#F5F5F5"/>
<path d="M18.2845 58.4824L16.7717 64.6094L15.292 64.2879L16.532 59.2978L15.2383 59.0116L15.5193 57.8709L18.2845 58.4824Z" fill="#F5F5F5"/>
<path d="M18.6553 61.7988C19.1513 59.7761 20.6187 58.8902 22.2059 59.243C23.7931 59.5958 24.6859 61.007 24.1899 63.0258C23.6939 65.0446 22.2389 65.9344 20.6393 65.5816C19.0397 65.2288 18.1552 63.8215 18.6553 61.7988ZM22.6895 62.6926C23.0325 61.301 22.6564 60.6071 21.9083 60.4425C21.1601 60.2778 20.5112 60.7404 20.1681 62.132C19.8251 63.5236 20.1971 64.2174 20.9369 64.3821C21.6768 64.5467 22.3423 64.0842 22.6895 62.6926Z" fill="#F5F5F5"/>
<path d="M31.0754 61.3245L31.621 61.446L25.6938 66.5929L25.1523 66.4714L31.0754 61.3245ZM25.2887 61.7517C25.5367 60.7521 26.2931 60.219 27.1611 60.4111C28.0291 60.6032 28.4549 61.3911 28.2069 62.3985C27.9589 63.406 27.1983 63.9273 26.3386 63.7392C25.4789 63.551 25.0573 62.7474 25.3011 61.7517H25.2887ZM27.7439 62.2966C27.9423 61.5126 27.6613 60.9403 27.0619 60.807C26.4626 60.6737 25.9459 61.0657 25.7517 61.8537C25.5574 62.6416 25.8261 63.21 26.4378 63.3433C27.0495 63.4765 27.5621 63.112 27.7563 62.2966H27.7439ZM28.5375 65.5189C28.7814 64.5193 29.5461 63.9901 30.4058 64.1782C31.2655 64.3664 31.6995 65.17 31.4557 66.1657C31.2118 67.1613 30.4513 67.6984 29.5833 67.5063C28.7153 67.3142 28.3019 66.5145 28.5499 65.5189H28.5375ZM30.9969 66.0637C31.1911 65.2797 30.9225 64.7074 30.3149 64.5741C29.7073 64.4409 29.1989 64.825 29.0046 65.6208C28.8103 66.4165 29.0873 66.9771 29.6866 67.1104C30.2859 67.2437 30.8109 66.8517 30.9969 66.0637Z" fill="#F5F5F5"/>
<path d="M57.4125 121.861C50.2164 114.88 38.9448 111.943 29 114.468C37.4806 119.946 47.4865 122.911 57.7473 122.986" fill="#6614B8"/>
<path d="M47.7714 89.4975C48.9576 81.5556 45.7047 72.6415 39.4344 66.8517C39.2278 74.723 42.7411 83.5783 47.7714 89.4975Z" fill="#6614B8"/>
<path d="M52.7851 104.495C48.2518 96.3389 41.0385 89.8061 32.2383 85.8872C34.8547 95.0286 43.1007 102.508 52.8471 104.582" fill="#6614B8"/>
<path d="M53.8246 107.408C48.7696 107.541 43.6484 107.373 38.7586 106.146C33.8689 104.919 29.1858 102.559 25.9453 98.8859C35.8398 98.9188 45.5048 101.715 53.7337 106.926" fill="#6614B8"/>
<path d="M51.2539 97.8589C53.8207 88.7331 58.0574 82.4219 65.6172 77.3102C66.1963 81.7965 65.0676 86.3314 62.4344 90.0986C59.8012 93.8658 55.8364 96.6177 51.2539 97.8589Z" fill="#6614B8"/>
<path d="M70.3464 113.594C70.3651 110.932 69.5539 108.325 68.0147 106.099C66.4754 103.874 64.2769 102.129 61.6953 101.085C62.1086 105.789 66.0188 111.246 70.3464 113.594Z" fill="#6614B8"/>
<path d="M72.7461 105.899C73.3206 98.2784 79.0288 91.2263 86.6465 88.7332C84.9146 96.3576 80.2688 102.704 72.7461 105.899Z" fill="#6614B8"/>
<path d="M69.1211 119.56C70.9026 117.141 73.8124 115.64 76.8256 114.887C79.8388 114.135 82.9843 114.076 86.0967 114.013C83.9756 116.197 81.3809 117.919 78.4911 119.06C75.6013 120.202 72.485 120.736 69.3567 120.626" fill="#6614B8"/>
<path d="M65.5039 138.999C71.1791 137.339 77.3042 137.756 82.6714 140.167C88.0387 142.578 92.2587 146.809 94.4992 152.025C83.9675 150.136 73.5722 145.695 65.5039 138.999Z" fill="#6614B8"/>
<path d="M53.9476 132.241C55.696 137.145 55.3612 143.076 51.4676 147.302C50.6928 144.772 50.5134 142.112 50.9419 139.51C51.3705 136.908 52.3965 134.426 53.9476 132.241Z" fill="#6614B8"/>
<path d="M47.1217 129.517C46.838 132.678 45.7001 135.717 43.8177 138.34C41.9353 140.963 39.372 143.081 36.375 144.491C36.2355 144.576 36.0792 144.633 35.9156 144.658C35.752 144.682 35.5848 144.675 35.4244 144.636C34.949 144.456 34.9077 143.852 34.9656 143.358C35.7261 137.086 40.6365 130.999 47.1217 129.517Z" fill="#6614B8"/>
<path d="M42.6516 128.878C41.167 130.399 39.3688 131.614 37.3687 132.448C35.3685 133.283 33.2089 133.719 31.0237 133.73C28.8385 133.741 26.6743 133.326 24.6652 132.51C22.656 131.695 20.8448 130.498 19.3438 128.992C26.7507 128.208 35.3026 127.71 42.6516 128.878Z" fill="#6614B8"/>
<path d="M41.543 72.7042C41.5588 72.7751 41.5809 72.8446 41.6091 72.912C41.667 73.057 41.7414 73.253 41.8364 73.5039C42.0472 74.037 42.3448 74.8014 42.7292 75.7814C43.1136 76.7614 43.589 77.9766 44.1222 79.3878L44.9778 81.6418C45.2712 82.4258 45.5812 83.2961 45.9036 84.1859C47.218 87.7453 48.673 92.0259 50.2478 96.7691C51.8226 101.512 53.418 106.793 55.0135 112.339C56.609 117.886 57.9854 123.213 59.1716 128.07C60.3579 132.927 61.321 137.321 62.036 141.03C62.2207 141.955 62.3956 142.836 62.561 143.672C62.7139 144.507 62.8544 145.299 62.9743 146.024C63.243 147.498 63.4703 148.768 63.6274 149.815C63.7844 150.861 63.925 151.653 64.0159 152.214C64.0614 152.476 64.0986 152.684 64.1234 152.837C64.1324 152.908 64.1476 152.979 64.1688 153.049C64.1753 152.977 64.1753 152.905 64.1688 152.833C64.1482 152.68 64.1234 152.472 64.0862 152.206C64.0076 151.641 63.896 150.834 63.7514 149.799C63.6067 148.764 63.4 147.478 63.1479 146C63.0198 145.26 62.8875 144.468 62.7346 143.629C62.5816 142.79 62.408 141.912 62.2303 140.983C61.5359 137.267 60.577 132.872 59.4238 128.004C58.2706 123.135 56.857 117.812 55.2904 112.257C53.7239 106.702 52.0623 101.446 50.4999 96.6829C48.9375 91.9201 47.4371 87.6669 46.0979 84.1114C45.7672 83.2229 45.4517 82.3775 45.1514 81.5752L44.2751 79.3251C43.7254 77.9178 43.25 76.7105 42.8367 75.7305C42.4234 74.7505 42.1134 74.0017 41.8943 73.4725L41.6422 72.8885C41.6135 72.825 41.5804 72.7635 41.543 72.7042Z" fill="#6614B8"/>
<path d="M82.2515 92.806C82.2045 92.8393 82.1615 92.8774 82.1233 92.9197L81.7679 93.2725C81.4579 93.5861 81.0115 94.0565 80.4535 94.668C78.8638 96.4084 77.4052 98.2527 76.0887 100.187C74.1281 103.058 72.5979 106.173 71.542 109.443C70.302 113.123 69.558 117.314 68.8057 121.689C67.2971 130.45 65.4495 138.298 64.1103 143.974C63.4365 146.8 62.8703 149.089 62.5065 150.697C62.3247 151.481 62.18 152.088 62.0932 152.523C62.0477 152.723 62.0147 152.88 61.9857 153.002C61.9718 153.056 61.9635 153.111 61.9609 153.166C61.9849 153.115 62.0029 153.061 62.0147 153.005C62.0477 152.888 62.0932 152.731 62.1469 152.535C62.2627 152.104 62.4197 151.496 62.6264 150.72C63.0397 149.121 63.606 146.835 64.3169 144.017C65.7057 138.353 67.5864 130.505 69.0951 121.732C69.8515 117.357 70.5996 113.182 71.8024 109.513C72.8476 106.26 74.355 103.157 76.2829 100.289C77.5795 98.3524 79.0085 96.4982 80.5609 94.7386C81.1065 94.1114 81.5405 93.6331 81.8381 93.3078C81.9745 93.1549 82.0861 93.0334 82.1688 92.9354C82.2002 92.8946 82.2278 92.8513 82.2515 92.806Z" fill="#6614B8"/>
<path d="M40.4414 128.576C40.5266 128.604 40.6158 128.62 40.7059 128.623L41.4747 128.701L42.0286 128.756L42.6817 128.846C43.1529 128.913 43.6902 128.98 44.273 129.101L45.1947 129.278L46.1785 129.513C46.8646 129.658 47.5714 129.905 48.3278 130.113C49.9451 130.644 51.514 131.3 53.0191 132.073C54.5136 132.866 55.9228 133.795 57.2269 134.848C57.7916 135.31 58.3297 135.801 58.8389 136.318C59.2937 136.76 59.7202 137.227 60.1161 137.717C60.4549 138.113 60.7709 138.525 61.0626 138.952C61.2994 139.27 61.5161 139.602 61.7115 139.944L62.1042 140.575C62.1452 140.652 62.1966 140.723 62.2571 140.787C62.2355 140.703 62.2007 140.622 62.1538 140.548L61.8066 139.893C61.6292 139.543 61.4247 139.207 61.1949 138.886C60.9147 138.446 60.6083 138.022 60.2773 137.616C59.8857 137.114 59.4633 136.635 59.0125 136.181C58.5035 135.652 57.964 135.151 57.3963 134.679C56.0883 133.605 54.6672 132.66 53.1555 131.861C51.6359 131.08 50.0484 130.424 48.4105 129.901C47.6458 129.689 46.9307 129.458 46.2363 129.321L45.2402 129.097L44.3102 128.941C43.7191 128.827 43.1777 128.776 42.7023 128.721L42.041 128.65L41.483 128.623L40.7101 128.576C40.6209 128.565 40.5306 128.565 40.4414 128.576Z" fill="#6614B8"/>
<path d="M38.3281 92.9706C38.485 93.1505 38.6609 93.3147 38.8531 93.4606L40.3783 94.715C41.6761 95.7656 43.4783 97.2003 45.4788 98.7762C47.4793 100.352 49.3063 101.767 50.6331 102.778L52.2161 103.954C52.4018 104.105 52.6042 104.237 52.8196 104.346C52.6601 104.166 52.4814 104.002 52.2864 103.856L50.7612 102.602C49.4633 101.552 47.6612 100.117 45.6607 98.541C43.6601 96.9651 41.8373 95.5539 40.5105 94.5426L38.9275 93.3666C38.7405 93.2179 38.5399 93.0854 38.3281 92.9706Z" fill="#6614B8"/>
<path d="M36.5039 102.269C36.5039 102.339 40.3727 103.492 45.1839 104.844C49.9951 106.197 53.9342 107.232 53.9548 107.161C53.9755 107.09 50.086 105.934 45.2748 104.586C40.4636 103.237 36.5287 102.198 36.5039 102.269Z" fill="#6614B8"/>
<path d="M50.8711 98.5684C51.0271 98.4055 51.1655 98.2282 51.2844 98.0392L52.3095 96.5575C53.1775 95.307 54.4134 93.6057 55.8766 91.7907C57.3398 89.9758 58.7451 88.3999 59.7826 87.2749C60.2703 86.7418 60.6836 86.2949 61.0226 85.9421C61.1771 85.7851 61.3155 85.6144 61.4359 85.4325C61.2463 85.5564 61.0741 85.7026 60.9234 85.8676C60.6092 86.1616 60.1628 86.5967 59.6214 87.1455C58.5467 88.2431 57.1083 89.8111 55.641 91.63C54.1736 93.4489 52.9626 95.1776 52.1318 96.4516C51.7184 97.0906 51.3919 97.6276 51.1811 97.9843C51.0539 98.1668 50.9498 98.3628 50.8711 98.5684Z" fill="#6614B8"/>
<path d="M64.3789 103.727C64.6504 104.22 64.9555 104.695 65.2924 105.15C65.8752 106.016 66.6646 107.22 67.4789 108.58C68.2932 109.94 68.9834 111.203 69.4753 112.108C69.7162 112.615 69.9924 113.106 70.302 113.578C70.1409 113.037 69.9249 112.512 69.6572 112.01C69.2149 111.069 68.5494 109.791 67.731 108.419C66.9126 107.047 66.0777 105.86 65.466 105.017C65.1479 104.555 64.7839 104.123 64.3789 103.727Z" fill="#6614B8"/>
<path d="M69.0273 119.807C69.048 119.842 69.7879 119.497 71.0031 118.98C72.2183 118.462 73.8964 117.804 75.8308 117.145C77.7652 116.487 79.5219 116.036 80.8115 115.726C82.1011 115.417 82.9071 115.24 82.8781 115.201C82.6834 115.196 82.4888 115.216 82.2995 115.26C81.9275 115.311 81.3984 115.405 80.7453 115.538C79.0409 115.892 77.3609 116.345 75.7151 116.894C74.0694 117.439 72.46 118.078 70.8956 118.807C70.2963 119.09 69.8209 119.329 69.4944 119.509C69.3268 119.59 69.17 119.69 69.0273 119.807Z" fill="#6614B8"/>
<path d="M65.3633 139.031C65.4393 139.065 65.52 139.091 65.603 139.105L66.3057 139.274L68.8931 139.842C71.7457 140.41 74.5656 141.117 77.3417 141.959C80.1065 142.839 82.7533 144.023 85.2281 145.487C86.1705 146.055 86.9062 146.557 87.4022 146.922C87.6508 147.119 87.9116 147.303 88.1834 147.47C88.1834 147.47 88.1297 147.404 88.0098 147.294C87.8899 147.184 87.7122 147.027 87.4683 146.839C86.7892 146.296 86.077 145.791 85.3356 145.326C82.8747 143.811 80.2204 142.599 77.4368 141.72C74.6507 140.869 71.811 140.186 68.9345 139.674L66.3263 139.16C66.0092 139.094 65.6872 139.051 65.3633 139.031Z" fill="#6614B8"/>
<path d="M52.2067 143.766C52.2811 143.766 52.7441 141.191 53.2401 137.988C53.7361 134.785 54.0667 132.178 53.9923 132.167C53.9179 132.155 53.455 134.746 52.959 137.949C52.463 141.151 52.1282 143.758 52.2067 143.766Z" fill="#6614B8"/>
<path d="M38.5078 139.05C38.9528 138.613 39.3671 138.148 39.7478 137.659C40.4877 136.784 41.5127 135.581 42.6742 134.272C43.8357 132.962 44.9062 131.794 45.6874 130.952C46.1345 130.516 46.5489 130.051 46.9274 129.56C46.7751 129.648 46.6361 129.754 46.5141 129.877C46.2743 130.097 45.9395 130.418 45.5262 130.826C44.6995 131.638 43.6083 132.786 42.4427 134.099C41.2771 135.412 40.2769 136.636 39.5742 137.541C39.2229 137.996 38.9459 138.368 38.7475 138.627C38.6466 138.756 38.5659 138.899 38.5078 139.05Z" fill="#6614B8"/>
<path d="M74.765 151.1V157.521H73.0703L67.0563 175.534H53.7098L47.8818 157.698L45.625 157.521V151.1H74.765Z" fill="#6614B8"/>
<path d="M46.75 157.698C46.75 157.772 52.64 157.835 59.9064 157.835C67.1728 157.835 73.0669 157.772 73.0669 157.698C73.0669 157.623 67.1769 157.564 59.9064 157.564C52.6359 157.564 46.75 157.623 46.75 157.698Z" fill="#6614B8"/>
<path d="M37.1523 116.401C37.4306 116.496 37.7168 116.57 38.0079 116.62L40.3474 117.157C42.3231 117.62 45.0346 118.333 47.9734 119.258C50.9122 120.183 53.5245 121.191 55.4134 121.955L57.6206 122.869C57.8869 122.995 58.1633 123.101 58.4473 123.186C58.203 123.027 57.9443 122.89 57.6743 122.774C57.1701 122.524 56.4343 122.183 55.5002 121.779C50.6629 119.686 45.6097 118.074 40.4218 116.969C39.4298 116.761 38.6197 116.608 38.0575 116.518C37.7598 116.455 37.457 116.416 37.1523 116.401Z" fill="#6614B8"/>
<path d="M51.1836 167.702C51.1836 167.776 55.3169 167.835 60.4133 167.835C65.5097 167.835 69.6472 167.776 69.6472 167.702C69.6472 167.627 65.5139 167.568 60.4133 167.568C55.3128 167.568 51.1836 167.627 51.1836 167.702Z" fill="#FAFAFA"/>
<path d="M50.6602 166.208C50.6602 166.282 55.0415 166.341 60.4438 166.341C65.846 166.341 70.2315 166.282 70.2315 166.208C70.2315 166.134 65.8502 166.075 60.4438 166.075C55.0374 166.075 50.6602 166.137 50.6602 166.208Z" fill="#FAFAFA"/>
<path d="M262.942 126.134L235.385 96.7731C234.3 95.6171 232.971 94.6898 231.485 94.0511C229.998 93.4123 228.387 93.0763 226.755 93.0647L136.032 92.4415C134.491 92.4306 132.962 92.7096 131.535 93.2624C130.108 93.8151 128.811 94.6307 127.718 95.6619C126.625 96.6932 125.759 97.9196 125.169 99.2703C124.579 100.621 124.277 102.069 124.281 103.531L124.434 164.456C124.437 165.91 124.743 167.35 125.334 168.693C125.925 170.035 126.789 171.254 127.877 172.279C128.965 173.305 130.256 174.117 131.675 174.668C133.094 175.22 134.614 175.501 136.148 175.495L226.556 175.134C228.226 175.13 229.876 174.786 231.393 174.125C232.911 173.465 234.261 172.502 235.352 171.304L263.074 140.728C264.922 138.694 265.928 136.092 265.903 133.407C265.879 130.723 264.827 128.138 262.942 126.134ZM247.608 136.718C246.891 138.39 245.668 139.823 244.092 140.836C242.517 141.849 240.661 142.396 238.757 142.408C236.854 142.42 234.99 141.897 233.401 140.904C231.811 139.911 230.568 138.494 229.828 136.831C229.088 135.168 228.884 133.334 229.243 131.561C229.602 129.789 230.507 128.157 231.844 126.872C233.181 125.588 234.89 124.708 236.754 124.344C238.618 123.98 240.554 124.149 242.317 124.829C244.677 125.74 246.559 127.502 247.551 129.728C248.543 131.954 248.563 134.462 247.608 136.702V136.718Z" fill="#6614B8"/>
<g opacity="0.4">
<path d="M262.942 126.134L235.385 96.7731C234.3 95.6171 232.971 94.6898 231.485 94.0511C229.998 93.4123 228.387 93.0763 226.755 93.0647L136.032 92.4415C134.491 92.4306 132.962 92.7096 131.535 93.2624C130.108 93.8151 128.811 94.6307 127.718 95.6619C126.625 96.6932 125.759 97.9196 125.169 99.2703C124.579 100.621 124.277 102.069 124.281 103.531L124.434 164.456C124.437 165.91 124.743 167.35 125.334 168.693C125.925 170.035 126.789 171.254 127.877 172.279C128.965 173.305 130.256 174.117 131.675 174.668C133.094 175.22 134.614 175.501 136.148 175.495L226.556 175.134C228.226 175.13 229.876 174.786 231.393 174.125C232.911 173.465 234.261 172.502 235.352 171.304L263.074 140.728C264.922 138.694 265.928 136.092 265.903 133.407C265.879 130.723 264.827 128.138 262.942 126.134ZM247.608 136.718C246.891 138.39 245.668 139.823 244.092 140.836C242.517 141.849 240.661 142.396 238.757 142.408C236.854 142.42 234.99 141.897 233.401 140.904C231.811 139.911 230.568 138.494 229.828 136.831C229.088 135.168 228.884 133.334 229.243 131.561C229.602 129.789 230.507 128.157 231.844 126.872C233.181 125.588 234.89 124.708 236.754 124.344C238.618 123.98 240.554 124.149 242.317 124.829C244.677 125.74 246.559 127.502 247.551 129.728C248.543 131.954 248.563 134.462 247.608 136.702V136.718Z" fill="black"/>
</g>
<path d="M267.716 126.134L240.147 96.7731C239.061 95.6175 237.733 94.6905 236.246 94.0518C234.76 93.4131 233.148 93.0768 231.517 93.0648L140.794 92.4415C139.252 92.4301 137.724 92.7087 136.296 93.2613C134.869 93.8139 133.571 94.6295 132.479 95.6608C131.386 96.6921 130.519 97.9187 129.93 99.2697C129.34 100.621 129.039 102.069 129.043 103.531L129.192 164.456C129.196 165.914 129.503 167.356 130.097 168.701C130.69 170.046 131.558 171.266 132.65 172.292C133.743 173.318 135.038 174.129 136.462 174.679C137.886 175.228 139.41 175.505 140.947 175.495L231.351 175.134C233.021 175.13 234.67 174.785 236.188 174.125C237.705 173.464 239.055 172.502 240.147 171.304L267.865 140.728C269.712 138.692 270.715 136.089 270.687 133.404C270.66 130.719 269.604 128.135 267.716 126.134ZM252.386 136.718C251.669 138.39 250.446 139.823 248.871 140.836C247.295 141.849 245.439 142.396 243.536 142.408C241.632 142.42 239.768 141.897 238.179 140.904C236.589 139.911 235.346 138.494 234.606 136.831C233.866 135.168 233.663 133.334 234.022 131.561C234.38 129.789 235.286 128.157 236.622 126.872C237.959 125.588 239.668 124.708 241.532 124.344C243.396 123.98 245.332 124.149 247.095 124.829C249.455 125.74 251.337 127.502 252.329 129.728C253.321 131.954 253.341 134.462 252.386 136.702V136.718Z" fill="#6614B8"/>
<path d="M159.231 124.092C159.302 116.706 164.1 112.053 170.829 112.116C177.559 112.179 182.2 116.847 182.13 124.292C182.06 131.736 177.319 136.33 170.594 136.271C163.869 136.212 159.157 131.477 159.231 124.092ZM175.529 124.237C175.575 119.533 173.686 117.271 170.78 117.247C167.944 117.22 165.94 119.517 165.894 124.15C165.849 128.784 167.808 131.112 170.643 131.14C173.549 131.163 175.484 128.929 175.529 124.237ZM198.341 112.869L206.194 112.939L174.223 156.451L166.37 156.381L198.341 112.869ZM190.438 145.04C190.512 137.655 195.307 133.002 201.974 133.061C208.703 133.123 213.407 137.859 213.337 145.24C213.266 152.621 208.468 157.259 201.734 157.192C195.092 157.141 190.368 152.406 190.438 145.04ZM206.67 145.181C206.715 140.552 204.826 138.219 201.92 138.196C199.085 138.168 197.084 140.403 197.039 145.099C196.993 149.795 198.949 152.061 201.784 152.088C204.69 152.096 206.624 149.795 206.665 145.162L206.67 145.181Z" fill="white"/>
<path d="M264.698 144.256C265.028 144.422 265.332 144.629 265.604 144.871C266.17 145.299 266.996 145.942 268.042 146.792C269.088 147.643 270.361 148.693 271.791 149.96C273.221 151.226 274.825 152.704 276.482 154.456C278.305 156.355 279.954 158.397 281.414 160.559L282 161.449L282.554 162.378C282.941 163.013 283.292 163.667 283.604 164.338C284.299 165.761 284.701 167.296 284.786 168.862C284.813 169.699 284.684 170.533 284.406 171.328C284.116 172.149 283.652 172.905 283.042 173.55C281.792 174.858 280.136 175.755 278.314 176.114C276.465 176.46 274.559 176.418 272.729 175.988C270.892 175.567 269.112 174.945 267.426 174.134C264.113 172.532 261.107 170.411 258.536 167.862C257.31 166.668 256.163 165.404 255.101 164.076C254.065 162.787 253.078 161.505 252.141 160.23C248.421 155.134 245.528 150.234 243.709 145.851C243.255 144.758 242.862 143.707 242.523 142.696C242.358 142.19 242.201 141.696 242.072 141.206C241.932 140.732 241.831 140.249 241.771 139.76C241.627 138.832 241.872 137.888 242.453 137.129C242.953 136.521 243.636 136.07 244.412 135.836C244.732 135.735 245.062 135.663 245.396 135.62C245.689 135.591 245.985 135.584 246.28 135.601C246.743 135.622 247.198 135.716 247.628 135.879C247.889 135.983 248.131 136.124 248.347 136.298C248.487 136.42 248.549 136.487 248.537 136.502C248.525 136.518 248.438 136.475 248.281 136.385C248.053 136.253 247.809 136.149 247.553 136.075C247.138 135.956 246.706 135.898 246.272 135.903C245.995 135.905 245.719 135.926 245.445 135.965C245.139 136.021 244.839 136.103 244.548 136.208C243.873 136.444 243.286 136.864 242.862 137.416C242.389 138.083 242.211 138.899 242.366 139.689C242.434 140.15 242.542 140.605 242.688 141.049C242.825 141.52 242.994 141.998 243.168 142.492C243.529 143.48 243.942 144.51 244.408 145.581C246.28 149.854 249.207 154.679 252.943 159.693C253.88 160.947 254.868 162.211 255.907 163.484C256.952 164.776 258.08 166.006 259.284 167.168C261.781 169.629 264.692 171.68 267.898 173.237C269.515 174.012 271.221 174.61 272.982 175.016C274.659 175.415 276.408 175.462 278.107 175.153C279.714 174.843 281.177 174.061 282.29 172.919C283.322 171.813 283.866 170.373 283.811 168.897C283.732 167.445 283.362 166.02 282.72 164.699C282.426 164.05 282.096 163.417 281.732 162.802L281.215 161.896L280.653 161.01C279.248 158.866 277.659 156.836 275.904 154.938C274.308 153.182 272.758 151.677 271.357 150.375C269.956 149.074 268.745 147.984 267.741 147.094L265.459 145.04C265.172 144.81 264.917 144.546 264.698 144.256Z" fill="#6614B8"/>
<path d="M221.642 83.4137C221.584 83.4137 220.427 75.7501 219.055 66.2794C217.683 56.8087 216.62 49.1255 216.682 49.1176C216.744 49.1098 217.897 56.7812 219.27 66.2519C220.642 75.7227 221.704 83.4059 221.642 83.4137Z" fill="#6614B8"/>
<path d="M255.721 41.4579C255.714 41.4985 255.701 41.538 255.684 41.5755L255.552 41.9166L255.027 43.2219L253.059 48.0122C251.406 52.0576 249.141 57.6554 246.735 63.8764C244.33 70.0975 242.242 75.754 240.754 79.8583C240.014 81.9006 239.415 83.5588 238.997 84.723C238.791 85.2836 238.63 85.7265 238.514 86.044C238.46 86.1851 238.415 86.2949 238.382 86.3851C238.369 86.4245 238.353 86.4626 238.332 86.4987C238.335 86.4571 238.345 86.4161 238.361 86.3772L238.473 86.0284C238.576 85.7108 238.725 85.2443 238.915 84.6955C239.303 83.5391 239.882 81.8692 240.61 79.8112C242.064 75.6952 244.131 70.0112 246.537 63.8059C248.942 57.6005 251.22 51.991 252.914 47.9573C253.741 45.9424 254.46 44.3117 254.952 43.1906L255.518 41.9009C255.58 41.7637 255.634 41.6539 255.671 41.5677L255.721 41.4579Z" fill="#6614B8"/>
<path d="M280.14 71.6263C280.177 71.6694 274.262 76.0637 266.913 81.4263C259.564 86.7889 253.604 91.1244 253.567 91.0773C253.529 91.0303 259.448 86.6399 266.793 81.2773C274.138 75.9148 280.107 71.5793 280.14 71.6263Z" fill="#6614B8"/>
<path d="M207.296 84.8445C207.246 84.8798 204.96 82.1005 202.187 78.6666C199.413 75.2327 197.198 72.3946 197.227 72.3671C197.256 72.3397 199.562 75.1111 202.336 78.5451C205.109 81.979 207.341 84.8092 207.296 84.8445Z" fill="#6614B8"/>
<path d="M277.347 106.452C277.347 106.506 273.706 105.55 269.25 104.319C264.794 103.088 261.198 102.045 261.215 101.991C261.231 101.936 264.856 102.892 269.312 104.123C273.768 105.354 277.368 106.397 277.347 106.452Z" fill="#6614B8"/>
<path d="M225.262 106.326L227.948 104.86L229.374 102.249L230.924 104.797L233.677 106.154L230.991 107.62L229.56 110.23L228.015 107.682L225.262 106.326Z" fill="white"/>
<path d="M210.738 102.281L211.681 101.767L212.181 100.854L212.722 101.744L213.685 102.218L212.743 102.731L212.243 103.645L211.701 102.755L210.738 102.281Z" fill="white"/>
<path d="M220.012 120.285L221.83 119.293L222.798 117.526L223.843 119.25L225.707 120.168L223.889 121.159L222.922 122.927L221.876 121.202L220.012 120.285Z" fill="white"/>
<path d="M296.282 175.534C296.282 175.589 232.526 175.636 153.897 175.636C75.2688 175.636 11.5039 175.589 11.5039 175.534C11.5039 175.479 75.244 175.432 153.897 175.432C232.55 175.432 296.282 175.475 296.282 175.534Z" fill="#6614B8"/>
<path d="M98.9287 74.3741L95.1261 68.0159C97.4767 64.3964 98.3149 60.0739 97.4758 55.898C96.6367 51.7222 94.1811 47.995 90.5916 45.449C87.0021 42.9031 82.5383 41.7225 78.0775 42.1393C73.6168 42.5561 69.4818 44.5401 66.4851 47.7015C63.4885 50.8629 61.8471 54.9729 61.8834 59.2237C61.9197 63.4746 63.6312 67.5588 66.6815 70.6737C69.7317 73.7886 73.9002 75.7088 78.3674 76.057C82.8347 76.4051 87.2777 75.1561 90.8233 72.5553L98.9287 74.3741Z" fill="white"/>
<path d="M98.927 74.3741L90.805 72.6101C90.798 72.6093 90.7913 72.607 90.7853 72.6034C90.7793 72.5999 90.7742 72.5952 90.7703 72.5896C90.7664 72.584 90.7638 72.5778 90.7626 72.5712C90.7615 72.5646 90.7618 72.5578 90.7636 72.5513C90.7636 72.5513 90.7636 72.5513 90.7636 72.5317L90.838 72.6023C89.7013 73.441 88.4636 74.1489 87.1511 74.7113C85.5937 75.3753 83.9444 75.8254 82.2531 76.048C81.314 76.1721 80.3651 76.2167 79.4176 76.1813C78.9258 76.1577 78.4298 76.146 77.9296 76.1068L76.4127 75.8873C71.8989 75.0476 67.892 72.6086 65.2072 69.0665C63.7154 67.1062 62.6824 64.8662 62.1775 62.4965C61.6595 59.9907 61.7314 57.4073 62.3883 54.9309C63.0661 52.3435 64.3838 49.9463 66.2323 47.9377L66.9639 47.1537C67.2078 46.8949 67.493 46.6833 67.7534 46.4481C68.0138 46.2129 68.2742 45.9737 68.58 45.7777L69.4398 45.1662C69.7231 44.9597 70.0214 44.7723 70.3326 44.6057L71.2419 44.0843L72.1926 43.6453C72.5046 43.4956 72.8263 43.3647 73.1556 43.2533C75.7069 42.2938 78.4533 41.8919 81.1908 42.0773C83.7804 42.2431 86.2995 42.9485 88.5688 44.1431C92.6419 46.3042 95.683 49.8676 97.0628 54.096C97.6197 55.891 97.8832 57.7564 97.844 59.6271C97.7941 61.2502 97.4991 62.8581 96.9678 64.4017C96.52 65.6847 95.9152 66.9135 95.1656 68.0629V68.012L98.9228 74.3937L95.0664 68.0394C95.0625 68.0322 95.0604 68.0241 95.0604 68.0159C95.0604 68.0077 95.0625 67.9996 95.0664 67.9924C95.8017 66.8461 96.3939 65.6227 96.8314 64.3468C97.3537 62.8127 97.6405 61.2152 97.6828 59.6036C97.7141 57.7469 97.4479 55.8965 96.8934 54.1156C95.5076 49.9392 92.4871 46.4251 88.4531 44.296C86.2081 43.1186 83.7175 42.424 81.1578 42.2615C78.4502 42.0834 75.7351 42.4853 73.2135 43.4375C72.8885 43.5496 72.571 43.6805 72.2628 43.8295L71.3246 44.2607L70.4235 44.7781C70.1171 44.9431 69.8229 45.1278 69.5431 45.3309L68.6916 45.9345C68.4023 46.1305 68.1584 46.3814 67.8898 46.6009C67.6211 46.8205 67.3483 47.04 67.1127 47.2948L66.3894 48.0513C64.5611 50.0359 63.2576 52.405 62.5867 54.9623C61.9368 57.4089 61.8634 59.9612 62.3718 62.4377C62.8698 64.7809 63.8885 66.9966 65.3602 68.9371C68.0128 72.446 71.9727 74.8675 76.4375 75.7109L77.9379 75.9304C78.4339 75.9696 78.9258 75.9813 79.4094 76.0088C80.3511 76.0468 81.2945 76.0048 82.2283 75.8833C83.9125 75.6724 85.5563 75.2341 87.1098 74.5819C88.4163 74.0301 89.6497 73.3341 90.7843 72.5082C90.7893 72.5031 90.7954 72.4991 90.8022 72.4963C90.8089 72.4935 90.8162 72.4921 90.8236 72.4921C90.8309 72.4921 90.8382 72.4935 90.845 72.4963C90.8517 72.4991 90.8578 72.5031 90.8628 72.5082C90.8691 72.5176 90.8724 72.5285 90.8724 72.5396C90.8724 72.5507 90.8691 72.5616 90.8628 72.5709L90.8339 72.4886L98.927 74.3741Z" fill="#6614B8"/>
<path d="M74.5865 55.8756C74.306 55.7502 74.0032 55.6757 73.6937 55.6561C73.2402 55.5871 72.7756 55.6302 72.3447 55.7813C71.9139 55.9324 71.5315 56.1863 71.2344 56.5185C73.1729 57.5848 75.8141 58.9999 77.703 60.023L80.088 58.7294C78.3685 57.8317 76.2109 56.7028 74.5865 55.8756Z" fill="#6614B8"/>
<g opacity="0.3">
<path d="M74.5865 55.8756C74.306 55.7502 74.0032 55.6757 73.6937 55.6561C73.2402 55.5871 72.7756 55.6302 72.3447 55.7813C71.9139 55.9324 71.5315 56.1863 71.2344 56.5185C73.1729 57.5848 75.8141 58.9999 77.703 60.023L80.088 58.7294C78.3685 57.8317 76.2109 56.7028 74.5865 55.8756Z" fill="black"/>
</g>
<path d="M81.8893 62.4064L81.8025 62.3358C81.2073 62.0105 80.5625 61.3911 79.9756 61.4029C79.7483 61.4029 79.5003 61.595 78.9092 61.9086C77.9255 62.4378 76.268 63.359 75.276 63.8686C74.4493 64.3115 73.3995 64.6526 72.4364 64.3546C71.945 64.1835 71.4931 63.9239 71.1055 63.5902L81.8852 57.6632C81.8315 57.5103 81.7736 57.3653 81.7199 57.2163C81.5028 56.6165 81.4968 55.9661 81.703 55.3629C81.9091 54.7596 82.3161 54.2361 82.8629 53.8711C83.4097 53.5061 84.0666 53.3193 84.7349 53.3387C85.4033 53.3582 86.0469 53.5829 86.569 53.979C87.0911 54.3752 87.4635 54.9213 87.6303 55.5354C87.797 56.1496 87.749 56.7984 87.4935 57.3844C87.238 57.9704 86.7889 58.462 86.2136 58.7851C85.6382 59.1083 84.9679 59.2455 84.3032 59.1763C84.0549 59.1611 83.8068 59.2084 83.584 59.3135C83.1707 59.5017 82.7904 59.7408 82.2985 60.0074C83.1252 60.3602 83.6915 60.9246 84.6628 60.8384C86.002 60.7208 87.1883 61.642 87.5975 62.869C87.7902 63.4553 87.7829 64.0843 87.5766 64.6664C87.3703 65.2485 86.9754 65.754 86.4484 66.1108C85.918 66.4719 85.2806 66.6643 84.6277 66.6603C83.9748 66.6563 83.34 66.4561 82.8146 66.0885C82.2892 65.7209 81.9002 65.2048 81.7035 64.6143C81.5068 64.0239 81.5126 63.3895 81.7199 62.8023C81.7695 62.6887 81.8397 62.5554 81.8893 62.4064ZM84.6421 57.7024C84.8398 57.7045 85.0358 57.669 85.2187 57.5979C85.4016 57.5268 85.5675 57.4216 85.7067 57.2885C85.8458 57.1554 85.9554 56.9972 86.0289 56.8232C86.1023 56.6492 86.1382 56.4629 86.1343 56.2755C86.1278 55.906 85.9696 55.5534 85.6933 55.2927C85.4169 55.0321 85.0442 54.884 84.6545 54.88C84.2554 54.8841 83.874 55.0368 83.5925 55.3052C83.3111 55.5736 83.1521 55.9362 83.15 56.3147C83.1618 56.6832 83.3239 57.033 83.6023 57.2904C83.8806 57.5478 84.2534 57.6927 84.6421 57.6946V57.7024ZM84.6421 65.1818C85.032 65.1851 85.4078 65.0439 85.6896 64.7884C85.9713 64.5329 86.1368 64.1832 86.1508 63.8137C86.1591 63.6262 86.1275 63.439 86.0578 63.2634C85.9881 63.0878 85.8818 62.9273 85.7452 62.7915C85.6086 62.6557 85.4446 62.5475 85.2628 62.4732C85.0811 62.399 84.8855 62.3603 84.6876 62.3594C84.2976 62.3549 83.921 62.4942 83.6373 62.748C83.3535 63.0018 83.1847 63.3501 83.1665 63.7196C83.163 64.0943 83.3133 64.4555 83.5856 64.7269C83.8579 64.9984 84.2309 65.1587 84.6256 65.1739L84.6421 65.1818Z" fill="#6614B8"/>
<path d="M80.6318 59.976C80.5946 59.976 80.6111 59.7134 80.3052 59.5056C80.2211 59.4503 80.1241 59.4154 80.0225 59.4038C79.921 59.3922 79.8179 59.4042 79.7224 59.439C79.6087 59.4819 79.5112 59.5563 79.4424 59.6523C79.3737 59.7484 79.337 59.8619 79.337 59.978C79.337 60.0941 79.3737 60.2075 79.4424 60.3036C79.5112 60.3997 79.6087 60.474 79.7224 60.517C79.8179 60.5517 79.921 60.5638 80.0225 60.5522C80.1241 60.5406 80.2211 60.5056 80.3052 60.4503C80.6111 60.2426 80.5946 59.9682 80.6318 59.976C80.669 59.9838 80.6648 60.0387 80.6318 60.1485C80.6072 60.3117 80.5186 60.4601 80.3838 60.564C80.2818 60.6442 80.1599 60.6982 80.0296 60.7209C79.8993 60.7435 79.7651 60.7341 79.6398 60.6934C79.4827 60.6421 79.3464 60.5456 79.2499 60.4174C79.1534 60.2891 79.1016 60.1355 79.1016 59.978C79.1016 59.8204 79.1534 59.6668 79.2499 59.5386C79.3464 59.4103 79.4827 59.3138 79.6398 59.2626C79.7651 59.2219 79.8993 59.2124 80.0296 59.235C80.1599 59.2577 80.2818 59.3117 80.3838 59.3919C80.5184 59.4944 80.607 59.6415 80.6318 59.8035C80.6648 59.9133 80.6442 59.976 80.6318 59.976Z" fill="#6614B8"/>
<path d="M83.268 59.4781C83.1981 59.5281 83.1249 59.5739 83.049 59.6154L82.4331 59.9681L80.3954 61.105L78.3287 62.2182L77.7004 62.5475C77.6255 62.5918 77.5467 62.6298 77.4648 62.6612C77.534 62.609 77.6072 62.5618 77.6839 62.5201L78.2998 62.1673L80.3375 61.0344L82.4042 59.9211L83.0324 59.5879C83.1079 59.5457 83.1867 59.509 83.268 59.4781Z" fill="#6614B8"/>
<path d="M81.4767 57.9102C81.4454 57.9346 81.4122 57.9569 81.3775 57.9768L81.0799 58.1532L79.9804 58.8C79.0546 59.3331 77.7691 60.0622 76.3266 60.8345L72.6438 62.818L71.5071 63.3903L71.2012 63.5471L71.0938 63.5981C71.0938 63.5981 71.1268 63.5746 71.193 63.5354L71.4906 63.3629L72.5983 62.7474L76.2728 60.7443C77.7112 59.9603 79.0008 59.2508 79.9391 58.7334L81.0509 58.1258L81.3568 57.9611L81.4767 57.9102Z" fill="#6614B8"/>
<path d="M149.759 79.2546L150.544 80.6148L151.978 81.3596L150.544 82.1044L149.759 83.4647L148.973 82.1044L147.539 81.3596L148.973 80.6148L149.759 79.2546Z" fill="#6614B8"/>
<path d="M155 60.6267L155.814 60.5758L156.471 60.1132L156.525 60.8894L157.013 61.5127L156.195 61.5636L155.537 62.0223L155.484 61.25L155 60.6267Z" fill="#6614B8"/>
<path d="M287.207 122.484L288.021 122.433L288.678 121.971L288.732 122.747L289.22 123.37L288.402 123.421L287.744 123.88L287.691 123.108L287.207 122.484Z" fill="#6614B8"/>
<path d="M194.082 83.7822L194.896 83.7312L195.558 83.2726L195.611 84.0448L196.095 84.6681L195.281 84.7191L194.619 85.1777L194.57 84.4055L194.082 83.7822Z" fill="#6614B8"/>
<path d="M199.047 50.6582L199.861 50.6072L200.518 50.1486L200.572 50.9208L201.056 51.5441L200.241 51.595L199.584 52.0576L199.53 51.2814L199.047 50.6582Z" fill="#6614B8"/>
<path d="M174.02 71.2146L175.26 70.5365L175.917 69.333L176.632 70.509L177.905 71.1362L176.665 71.8105L176.004 73.0178L175.288 71.8418L174.02 71.2146Z" fill="#6614B8"/>
<path d="M278.203 138.055L279.443 137.376L280.1 136.173L280.815 137.349L282.084 137.972L280.844 138.65L280.187 139.854L279.472 138.678L278.203 138.055Z" fill="#6614B8"/>
<path d="M271.973 116.553L273.213 115.875L273.874 114.672L274.589 115.848L275.858 116.471L274.618 117.149L273.957 118.357L273.246 117.177L271.973 116.553Z" fill="#6614B8"/>
</svg>
