<svg width="25" height="24" viewBox="0 0 25 24" fill="none" xmlns="http://www.w3.org/2000/svg">
<path d="M12.1695 3C13.4893 2.99656 14.7913 3.30493 15.9695 3.9C17.3812 4.60557 18.5686 5.69025 19.3987 7.03255C20.2288 8.37485 20.6689 9.92176 20.6695 11.5C20.6729 12.8199 20.3645 14.1219 19.7695 15.3L21.6695 21L15.9695 19.1C14.7913 19.6951 13.4893 20.0034 12.1695 20C10.5912 19.9994 9.04431 19.5594 7.70201 18.7293C6.35971 17.8992 5.27503 16.7117 4.56946 15.3C3.97439 14.1219 3.66602 12.8199 3.66946 11.5V11C3.78445 8.91565 4.66422 6.94696 6.14032 5.47086C7.61642 3.99476 9.58511 3.11499 11.6695 3H12.1695Z" stroke="#525252" stroke-width="2" stroke-linecap="round" stroke-linejoin="round"/>
</svg>
