<svg width="23" height="22" viewBox="0 0 23 22" fill="none" xmlns="http://www.w3.org/2000/svg">
<path d="M14.8098 4.93045L13.8181 9.0164H19.5999C19.9078 9.0164 20.2115 9.0881 20.4869 9.2258C20.7623 9.36351 21.0019 9.56345 21.1867 9.80979C21.3714 10.0561 21.4963 10.3421 21.5514 10.6451C21.6064 10.948 21.5902 11.2596 21.504 11.5552L19.1933 19.4891C19.0731 19.9011 18.8226 20.263 18.4792 20.5205C18.1359 20.778 17.7183 20.9172 17.2891 20.9172H3.90071C3.37466 20.9172 2.87015 20.7083 2.49818 20.3363C2.12621 19.9643 1.91724 19.4598 1.91724 18.9338V10.9999C1.91724 10.4738 2.12621 9.96932 2.49818 9.59735C2.87015 9.22538 3.37466 9.0164 3.90071 9.0164H6.6379C7.00691 9.01621 7.36854 8.91308 7.68215 8.71861C7.99576 8.52413 8.2489 8.24604 8.4131 7.91558L11.8346 1.08252C12.3023 1.08831 12.7626 1.19971 13.1812 1.4084C13.5998 1.61709 13.9658 1.91767 14.2519 2.28768C14.5379 2.65769 14.7367 3.08757 14.8333 3.5452C14.93 4.00283 14.9219 4.47637 14.8098 4.93045Z" stroke="#0A0A0A" stroke-width="1.98347" stroke-linecap="round" stroke-linejoin="round"/>
</svg>
