<svg width="25" height="24" viewBox="0 0 25 24" fill="none" xmlns="http://www.w3.org/2000/svg">
<path d="M8.66943 6C8.66943 4.34315 7.32629 3 5.66943 3C4.01258 3 2.66943 4.34315 2.66943 6C2.66943 7.65685 4.01258 9 5.66943 9C7.32629 9 8.66943 7.65685 8.66943 6Z" stroke="#525252" stroke-width="2" stroke-linecap="round" stroke-linejoin="round"/>
<path d="M15.6694 18C15.6694 16.3431 14.3263 15 12.6694 15C11.0126 15 9.66943 16.3431 9.66943 18C9.66943 19.6569 11.0126 21 12.6694 21C14.3263 21 15.6694 19.6569 15.6694 18Z" stroke="#525252" stroke-width="2" stroke-linecap="round" stroke-linejoin="round"/>
<path d="M22.6694 6C22.6694 4.34315 21.3263 3 19.6694 3C18.0126 3 16.6694 4.34315 16.6694 6C16.6694 7.65685 18.0126 9 19.6694 9C21.3263 9 22.6694 7.65685 22.6694 6Z" stroke="#525252" stroke-width="2" stroke-linecap="round" stroke-linejoin="round"/>
<path d="M14.1792 15.4099L18.1592 8.57991" stroke="#525252" stroke-width="2" stroke-linecap="round" stroke-linejoin="round"/>
<path d="M7.1792 8.58991L11.1592 15.4099" stroke="#525252" stroke-width="2" stroke-linecap="round" stroke-linejoin="round"/>
</svg>
