<svg width="25" height="24" viewBox="0 0 25 24" fill="none" xmlns="http://www.w3.org/2000/svg">
<path d="M17.6694 14V2" stroke="#525252" stroke-width="2" stroke-linecap="round" stroke-linejoin="round"/>
<path d="M9.66936 18.12L10.6694 14H4.83936C4.52887 14 4.22264 13.9277 3.94493 13.7889C3.66722 13.65 3.42565 13.4484 3.23936 13.2C3.05306 12.9516 2.92716 12.6633 2.87162 12.3578C2.81607 12.0523 2.83242 11.7381 2.91936 11.44L5.24936 3.44C5.37052 3.02457 5.62316 2.65964 5.96936 2.4C6.31555 2.14036 6.73661 2 7.16936 2H20.6694C21.1998 2 21.7085 2.21071 22.0836 2.58579C22.4586 2.96086 22.6694 3.46957 22.6694 4V12C22.6694 12.5304 22.4586 13.0391 22.0836 13.4142C21.7085 13.7893 21.1998 14 20.6694 14H17.9094C17.5373 14.0002 17.1726 14.1042 16.8564 14.3003C16.5402 14.4964 16.2849 14.7768 16.1194 15.11L12.6694 22C12.1978 21.9942 11.7336 21.8818 11.3116 21.6714C10.8895 21.461 10.5204 21.1579 10.232 20.7848C9.94347 20.4117 9.74304 19.9782 9.64562 19.5168C9.5482 19.0554 9.55631 18.5779 9.66936 18.12Z" stroke="#525252" stroke-width="2" stroke-linecap="round" stroke-linejoin="round"/>
</svg>
