<svg width="16" height="16" viewBox="0 0 16 16" fill="none" xmlns="http://www.w3.org/2000/svg">
<path d="M14.6666 8H10.6666L9.33331 10H6.66665L5.33331 8H1.33331" stroke="#0A0A0A" stroke-width="2" stroke-linecap="round" stroke-linejoin="round"/>
<path d="M3.63331 3.40699L1.33331 8.00033V12.0003C1.33331 12.3539 1.47379 12.6931 1.72384 12.9431C1.97389 13.1932 2.31302 13.3337 2.66665 13.3337H13.3333C13.6869 13.3337 14.0261 13.1932 14.2761 12.9431C14.5262 12.6931 14.6666 12.3539 14.6666 12.0003V8.00033L12.3666 3.40699C12.2563 3.18485 12.0861 2.99791 11.8753 2.86718C11.6645 2.73645 11.4214 2.66712 11.1733 2.66699H4.82665C4.57859 2.66712 4.33549 2.73645 4.12468 2.86718C3.91386 2.99791 3.7437 3.18485 3.63331 3.40699Z" stroke="#0A0A0A" stroke-width="2" stroke-linecap="round" stroke-linejoin="round"/>
</svg>
