<svg width="130" height="24" viewBox="0 0 130 24" fill="none" xmlns="http://www.w3.org/2000/svg">
<path d="M0.721591 18.5V1.04545H7.40341C8.66477 1.04545 9.71307 1.24432 10.5483 1.64204C11.3892 2.03409 12.017 2.57102 12.4318 3.25284C12.8523 3.93466 13.0625 4.70739 13.0625 5.57102C13.0625 6.28125 12.9261 6.8892 12.6534 7.39489C12.3807 7.89489 12.0142 8.30114 11.554 8.61364C11.0938 8.92614 10.5795 9.15057 10.0114 9.28693V9.45739C10.6307 9.49148 11.2244 9.68182 11.7926 10.0284C12.3665 10.3693 12.8352 10.8523 13.1989 11.4773C13.5625 12.1023 13.7443 12.858 13.7443 13.7443C13.7443 14.6477 13.5256 15.4602 13.0881 16.1818C12.6506 16.8977 11.9915 17.4631 11.1108 17.8778C10.2301 18.2926 9.12216 18.5 7.78693 18.5H0.721591ZM3.88352 15.858H7.28409C8.43182 15.858 9.25852 15.6392 9.7642 15.2017C10.2756 14.7585 10.5312 14.1903 10.5312 13.4972C10.5312 12.9801 10.4034 12.5142 10.1477 12.0994C9.89205 11.679 9.52841 11.3494 9.05682 11.1108C8.58523 10.8665 8.02273 10.7443 7.36932 10.7443H3.88352V15.858ZM3.88352 8.46875H7.01136C7.55682 8.46875 8.0483 8.36932 8.4858 8.17045C8.9233 7.96591 9.26705 7.67898 9.51705 7.30966C9.77273 6.93466 9.90057 6.49148 9.90057 5.98011C9.90057 5.30398 9.66193 4.74716 9.18466 4.30966C8.71307 3.87216 8.01136 3.65341 7.07955 3.65341H3.88352V8.46875ZM22.0689 18.7557C20.7905 18.7557 19.6825 18.4744 18.745 17.9119C17.8075 17.3494 17.0803 16.5625 16.5632 15.5511C16.0518 14.5398 15.7962 13.358 15.7962 12.0057C15.7962 10.6534 16.0518 9.46875 16.5632 8.4517C17.0803 7.43466 17.8075 6.64489 18.745 6.08239C19.6825 5.51989 20.7905 5.23864 22.0689 5.23864C23.3473 5.23864 24.4553 5.51989 25.3928 6.08239C26.3303 6.64489 27.0547 7.43466 27.5661 8.4517C28.0831 9.46875 28.3416 10.6534 28.3416 12.0057C28.3416 13.358 28.0831 14.5398 27.5661 15.5511C27.0547 16.5625 26.3303 17.3494 25.3928 17.9119C24.4553 18.4744 23.3473 18.7557 22.0689 18.7557ZM22.0859 16.2841C22.7791 16.2841 23.3587 16.0937 23.8246 15.7131C24.2905 15.3267 24.6371 14.8097 24.8643 14.1619C25.0973 13.5142 25.2138 12.7926 25.2138 11.9972C25.2138 11.196 25.0973 10.4716 24.8643 9.82386C24.6371 9.17045 24.2905 8.65057 23.8246 8.2642C23.3587 7.87784 22.7791 7.68466 22.0859 7.68466C21.3757 7.68466 20.7848 7.87784 20.3132 8.2642C19.8473 8.65057 19.4979 9.17045 19.2649 9.82386C19.0376 10.4716 18.924 11.196 18.924 11.9972C18.924 12.7926 19.0376 13.5142 19.2649 14.1619C19.4979 14.8097 19.8473 15.3267 20.3132 15.7131C20.7848 16.0937 21.3757 16.2841 22.0859 16.2841ZM30.9602 18.5V5.40909H34.0455V18.5H30.9602ZM32.5114 3.55114C32.0227 3.55114 31.6023 3.3892 31.25 3.06534C30.8977 2.73579 30.7216 2.34091 30.7216 1.88068C30.7216 1.41477 30.8977 1.01989 31.25 0.696022C31.6023 0.366477 32.0227 0.201704 32.5114 0.201704C33.0057 0.201704 33.4261 0.366477 33.7727 0.696022C34.125 1.01989 34.3011 1.41477 34.3011 1.88068C34.3011 2.34091 34.125 2.73579 33.7727 3.06534C33.4261 3.3892 33.0057 3.55114 32.5114 3.55114ZM40.3033 1.04545V18.5H37.218V1.04545H40.3033ZM49.2713 18.7557C47.9588 18.7557 46.8253 18.483 45.8707 17.9375C44.9219 17.3864 44.1918 16.608 43.6804 15.6023C43.169 14.5909 42.9134 13.4006 42.9134 12.0312C42.9134 10.6847 43.169 9.50284 43.6804 8.4858C44.1974 7.46307 44.919 6.66761 45.8452 6.09943C46.7713 5.52557 47.8594 5.23864 49.1094 5.23864C49.9162 5.23864 50.6776 5.36932 51.3935 5.63068C52.1151 5.88636 52.7514 6.28409 53.3026 6.82386C53.8594 7.36364 54.2969 8.05114 54.6151 8.88636C54.9332 9.71591 55.0923 10.7045 55.0923 11.8523V12.7983H44.3622V10.7188H52.1349C52.1293 10.1278 52.0014 9.60227 51.7514 9.14205C51.5014 8.67614 51.152 8.30966 50.7031 8.04261C50.2599 7.77557 49.7429 7.64205 49.152 7.64205C48.5213 7.64205 47.9673 7.79545 47.4901 8.10227C47.0128 8.40341 46.6406 8.80114 46.3736 9.29545C46.1122 9.78409 45.9787 10.321 45.973 10.9062V12.7216C45.973 13.483 46.1122 14.1364 46.3906 14.6818C46.669 15.2216 47.0582 15.6364 47.5582 15.9261C48.0582 16.2102 48.6435 16.3523 49.3139 16.3523C49.7628 16.3523 50.169 16.2898 50.5327 16.1648C50.8963 16.0341 51.2116 15.8438 51.4787 15.5938C51.7457 15.3438 51.9474 15.0341 52.0838 14.6648L54.9645 14.9886C54.7827 15.75 54.4361 16.4148 53.9247 16.983C53.419 17.5455 52.7713 17.983 51.9815 18.2955C51.1918 18.6023 50.2884 18.7557 49.2713 18.7557ZM57.7024 18.5V5.40909H60.6939V7.59091H60.8303C61.0689 6.83523 61.478 6.25284 62.0575 5.84375C62.6428 5.42898 63.3104 5.22159 64.0604 5.22159C64.2308 5.22159 64.4212 5.23011 64.6314 5.24716C64.8473 5.25852 65.0263 5.27841 65.1683 5.30682V8.14489C65.0376 8.09943 64.8303 8.05966 64.5462 8.02557C64.2678 7.9858 63.9979 7.96591 63.7365 7.96591C63.174 7.96591 62.6683 8.08807 62.2195 8.33239C61.7763 8.57102 61.4268 8.90341 61.1712 9.32955C60.9155 9.75568 60.7876 10.2472 60.7876 10.804V18.5H57.7024ZM67.218 23.4091V5.40909H70.2521V7.57386H70.4311C70.5902 7.25568 70.8146 6.91761 71.1044 6.55966C71.3942 6.19602 71.7862 5.88636 72.2805 5.63068C72.7749 5.36932 73.4055 5.23864 74.1726 5.23864C75.1839 5.23864 76.0959 5.49716 76.9084 6.0142C77.7266 6.52557 78.3743 7.28409 78.8516 8.28977C79.3345 9.28977 79.576 10.517 79.576 11.9716C79.576 13.4091 79.3402 14.6307 78.8686 15.6364C78.397 16.642 77.755 17.4091 76.9425 17.9375C76.13 18.4659 75.2095 18.7301 74.1811 18.7301C73.4311 18.7301 72.8089 18.6051 72.3146 18.3551C71.8203 18.1051 71.4226 17.804 71.1214 17.4517C70.826 17.0937 70.5959 16.7557 70.4311 16.4375H70.3033V23.4091H67.218ZM70.2436 11.9545C70.2436 12.8011 70.3629 13.5426 70.6016 14.179C70.8459 14.8153 71.1953 15.3125 71.6499 15.6705C72.1101 16.0227 72.6669 16.1989 73.3203 16.1989C74.0021 16.1989 74.5732 16.017 75.0334 15.6534C75.4936 15.2841 75.8402 14.7812 76.0732 14.1449C76.3118 13.5028 76.4311 12.7727 76.4311 11.9545C76.4311 11.142 76.3146 10.4205 76.0817 9.78977C75.8487 9.15909 75.5021 8.66477 75.0419 8.30682C74.5817 7.94886 74.0078 7.76989 73.3203 7.76989C72.6612 7.76989 72.1016 7.94318 71.6413 8.28977C71.1811 8.63636 70.8317 9.12216 70.593 9.74716C70.3601 10.3722 70.2436 11.108 70.2436 11.9545ZM85.3033 1.04545V18.5H82.218V1.04545H85.3033ZM92.2429 18.7642C91.4134 18.7642 90.6662 18.6165 90.0014 18.321C89.3423 18.0199 88.8196 17.5767 88.4332 16.9915C88.0526 16.4062 87.8622 15.6847 87.8622 14.8267C87.8622 14.0881 87.9986 13.4773 88.2713 12.9943C88.544 12.5114 88.9162 12.125 89.3878 11.8352C89.8594 11.5455 90.3906 11.3267 90.9815 11.179C91.5781 11.0256 92.1946 10.9148 92.831 10.8466C93.598 10.767 94.2202 10.696 94.6974 10.6335C95.1747 10.5653 95.5213 10.4631 95.7372 10.3267C95.9588 10.1847 96.0696 9.96591 96.0696 9.67045V9.61932C96.0696 8.97727 95.8793 8.48011 95.4986 8.12784C95.1179 7.77557 94.5696 7.59943 93.8537 7.59943C93.098 7.59943 92.4986 7.7642 92.0554 8.09375C91.6179 8.4233 91.3224 8.8125 91.169 9.26136L88.2884 8.85227C88.5156 8.05682 88.8906 7.39205 89.4134 6.85795C89.9361 6.31818 90.5753 5.91477 91.331 5.64773C92.0866 5.375 92.9219 5.23864 93.8366 5.23864C94.4673 5.23864 95.0952 5.3125 95.7202 5.46023C96.3452 5.60795 96.9162 5.85227 97.4332 6.19318C97.9503 6.52841 98.3651 6.9858 98.6776 7.56534C98.9957 8.14489 99.1548 8.86932 99.1548 9.73864V18.5H96.1889V16.7017H96.0866C95.8991 17.0653 95.6349 17.4062 95.294 17.7244C94.9588 18.0369 94.5355 18.2898 94.0241 18.483C93.5185 18.6705 92.9247 18.7642 92.2429 18.7642ZM93.044 16.4972C93.6634 16.4972 94.2003 16.375 94.6548 16.1307C95.1094 15.8807 95.4588 15.5511 95.7031 15.142C95.9531 14.733 96.0781 14.2869 96.0781 13.804V12.2614C95.9815 12.3409 95.8168 12.4148 95.5838 12.483C95.3565 12.5511 95.1009 12.6108 94.8168 12.6619C94.5327 12.7131 94.2514 12.7585 93.973 12.7983C93.6946 12.8381 93.4531 12.8722 93.2486 12.9006C92.7884 12.9631 92.3764 13.0653 92.0128 13.2074C91.6491 13.3494 91.3622 13.5483 91.152 13.804C90.9418 14.054 90.8366 14.3778 90.8366 14.7756C90.8366 15.3438 91.044 15.7727 91.4588 16.0625C91.8736 16.3523 92.402 16.4972 93.044 16.4972ZM108.794 5.40909V7.79545H101.268V5.40909H108.794ZM103.126 2.27273H106.212V14.5625C106.212 14.9773 106.274 15.2955 106.399 15.517C106.53 15.733 106.7 15.8807 106.911 15.9602C107.121 16.0398 107.354 16.0795 107.609 16.0795C107.803 16.0795 107.979 16.0653 108.138 16.0369C108.303 16.0085 108.428 15.983 108.513 15.9602L109.033 18.3722C108.868 18.429 108.632 18.4915 108.325 18.5597C108.024 18.6278 107.655 18.6676 107.217 18.679C106.445 18.7017 105.749 18.5852 105.129 18.3295C104.51 18.0682 104.018 17.6648 103.655 17.1193C103.297 16.5739 103.121 15.892 103.126 15.0739V2.27273ZM117.029 18.7557C115.717 18.7557 114.583 18.483 113.629 17.9375C112.68 17.3864 111.95 16.608 111.438 15.6023C110.927 14.5909 110.671 13.4006 110.671 12.0312C110.671 10.6847 110.927 9.50284 111.438 8.4858C111.955 7.46307 112.677 6.66761 113.603 6.09943C114.529 5.52557 115.617 5.23864 116.867 5.23864C117.674 5.23864 118.435 5.36932 119.151 5.63068C119.873 5.88636 120.509 6.28409 121.06 6.82386C121.617 7.36364 122.055 8.05114 122.373 8.88636C122.691 9.71591 122.85 10.7045 122.85 11.8523V12.7983H112.12V10.7188H119.893C119.887 10.1278 119.759 9.60227 119.509 9.14205C119.259 8.67614 118.91 8.30966 118.461 8.04261C118.018 7.77557 117.501 7.64205 116.91 7.64205C116.279 7.64205 115.725 7.79545 115.248 8.10227C114.771 8.40341 114.398 8.80114 114.131 9.29545C113.87 9.78409 113.737 10.321 113.731 10.9062V12.7216C113.731 13.483 113.87 14.1364 114.148 14.6818C114.427 15.2216 114.816 15.6364 115.316 15.9261C115.816 16.2102 116.401 16.3523 117.072 16.3523C117.521 16.3523 117.927 16.2898 118.29 16.1648C118.654 16.0341 118.969 15.8438 119.237 15.5938C119.504 15.3438 119.705 15.0341 119.842 14.6648L122.722 14.9886C122.54 15.75 122.194 16.4148 121.683 16.983C121.177 17.5455 120.529 17.983 119.739 18.2955C118.95 18.6023 118.046 18.7557 117.029 18.7557ZM127.361 18.6875C126.844 18.6875 126.401 18.5057 126.031 18.142C125.662 17.7784 125.48 17.3352 125.486 16.8125C125.48 16.3011 125.662 15.8636 126.031 15.5C126.401 15.1364 126.844 14.9545 127.361 14.9545C127.861 14.9545 128.295 15.1364 128.665 15.5C129.04 15.8636 129.23 16.3011 129.236 16.8125C129.23 17.1591 129.139 17.4744 128.963 17.7585C128.793 18.0426 128.565 18.2699 128.281 18.4403C128.003 18.6051 127.696 18.6875 127.361 18.6875Z" fill="#121A26"/>
</svg>
