<svg width="19" height="19" viewBox="0 0 19 19" fill="none" xmlns="http://www.w3.org/2000/svg">
<path d="M13.125 8.5C13.125 8.69891 13.046 8.88968 12.9053 9.03033C12.7647 9.17098 12.5739 9.25 12.375 9.25H6C5.80109 9.25 5.61032 9.17098 5.46967 9.03033C5.32902 8.88968 5.25 8.69891 5.25 8.5C5.25 8.30109 5.32902 8.11032 5.46967 7.96967C5.61032 7.82902 5.80109 7.75 6 7.75H12.375C12.5739 7.75 12.7647 7.82902 12.9053 7.96967C13.046 8.11032 13.125 8.30109 13.125 8.5ZM12.375 10.75H6C5.80109 10.75 5.61032 10.829 5.46967 10.9697C5.32902 11.1103 5.25 11.3011 5.25 11.5C5.25 11.6989 5.32902 11.8897 5.46967 12.0303C5.61032 12.171 5.80109 12.25 6 12.25H12.375C12.5739 12.25 12.7647 12.171 12.9053 12.0303C13.046 11.8897 13.125 11.6989 13.125 11.5C13.125 11.3011 13.046 11.1103 12.9053 10.9697C12.7647 10.829 12.5739 10.75 12.375 10.75ZM18.75 9.625C18.7473 12.1106 17.7587 14.4935 16.0011 16.2511C14.2435 18.0087 11.8606 18.9973 9.375 19H1.5C1.10218 19 0.720644 18.842 0.43934 18.5607C0.158035 18.2794 0 17.8978 0 17.5V9.625C3.70503e-08 7.1386 0.98772 4.75403 2.74587 2.99587C4.50403 1.23772 6.8886 0.25 9.375 0.25C11.8614 0.25 14.246 1.23772 16.0041 2.99587C17.7623 4.75403 18.75 7.1386 18.75 9.625ZM17.25 9.625C17.25 7.53642 16.4203 5.53338 14.9435 4.05653C13.4666 2.57969 11.4636 1.75 9.375 1.75C7.28642 1.75 5.28338 2.57969 3.80653 4.05653C2.32968 5.53338 1.5 7.53642 1.5 9.625V17.5H9.375C11.4629 17.4978 13.4646 16.6674 14.941 15.191C16.4174 13.7146 17.2478 11.7129 17.25 9.625Z" fill="#FAFAFA"/>
</svg>
