<svg width="24" height="24" viewBox="0 0 24 24" fill="none" xmlns="http://www.w3.org/2000/svg">
<g clip-path="url(#clip0_5894_2797)">
<path d="M17.0725 -0.000610352H13.0278V16.3472C13.0278 18.2951 11.4722 19.8951 9.53626 19.8951C7.60034 19.8951 6.04469 18.2951 6.04469 16.3472C6.04469 14.4342 7.56577 12.8689 9.43257 12.7994V8.69506C5.31872 8.76459 2 12.1385 2 16.3472C2 20.5907 5.38786 23.9994 9.57085 23.9994C13.7538 23.9994 17.1416 20.5559 17.1416 16.3472V7.96459C18.6627 9.07766 20.5295 9.73852 22.5 9.77332V5.66896C19.4579 5.56461 17.0725 3.06026 17.0725 -0.000610352Z" fill="#5B5B5D"/>
</g>
<defs>
<clipPath id="clip0_5894_2797">
<rect width="24" height="24" fill="white" transform="translate(0 -0.000610352)"/>
</clipPath>
</defs>
</svg>
