<svg width="24" height="24" viewBox="0 0 24 24" fill="none" xmlns="http://www.w3.org/2000/svg">
<path d="M14.4375 5.65812C14.6456 6.54031 15.4378 7.1975 16.3838 7.1975C17.4881 7.1975 18.3834 6.30218 18.3834 5.19781C18.3834 4.09343 17.4881 3.19812 16.3838 3.19812C15.4181 3.19812 14.6128 3.8825 14.4253 4.79281C12.8081 4.96625 11.5453 6.33781 11.5453 8C11.5453 8.00375 11.5453 8.00656 11.5453 8.01031C9.78656 8.08437 8.18062 8.585 6.90562 9.37531C6.43219 9.00875 5.83781 8.79031 5.19281 8.79031C3.645 8.79031 2.39062 10.0447 2.39062 11.5925C2.39062 12.7156 3.05062 13.6831 4.00406 14.1303C4.09688 17.3834 7.64156 20 12.0019 20C16.3622 20 19.9116 17.3806 19.9997 14.1247C20.9456 13.6747 21.6 12.71 21.6 11.5934C21.6 10.0456 20.3456 8.79125 18.7978 8.79125C18.1556 8.79125 17.5641 9.00781 17.0916 9.37156C15.8053 8.57562 14.1816 8.075 12.405 8.00843C12.405 8.00562 12.405 8.00375 12.405 8.00093C12.405 6.81031 13.29 5.82218 14.4375 5.66V5.65812ZM6.79313 13.3709C6.84 12.3547 7.515 11.5747 8.29969 11.5747C9.08438 11.5747 9.68438 12.3987 9.6375 13.415C9.59063 14.4312 9.00469 14.8006 8.21906 14.8006C7.43344 14.8006 6.74625 14.3872 6.79313 13.3709ZM15.705 11.5747C16.4906 11.5747 17.1656 12.3547 17.2116 13.3709C17.2584 14.3872 16.5703 14.8006 15.7856 14.8006C15.0009 14.8006 14.4141 14.4322 14.3672 13.415C14.3203 12.3987 14.9194 11.5747 15.705 11.5747ZM14.7713 15.7222C14.9184 15.7372 15.0122 15.89 14.955 16.0269C14.4722 17.1809 13.3322 17.9919 12.0019 17.9919C10.6716 17.9919 9.5325 17.1809 9.04875 16.0269C8.99156 15.89 9.08531 15.7372 9.2325 15.7222C10.095 15.635 11.0278 15.5872 12.0019 15.5872C12.9759 15.5872 13.9078 15.635 14.7713 15.7222Z" fill="#5B5B5D"/>
</svg>
