<svg width="18" height="18" viewBox="0 0 18 18" fill="none" xmlns="http://www.w3.org/2000/svg">
<path fill-rule="evenodd" clip-rule="evenodd" d="M6.54547 17.4375H13.9091C14.5882 17.4375 15.1691 17.0156 15.4146 16.4081L17.8855 10.4597C17.9591 10.2656 18 10.0631 18 9.84375V8.15625C18 7.22813 17.2636 6.46875 16.3636 6.46875H11.2009L11.9782 2.61281L12.0027 2.34281C12.0027 1.99687 11.8636 1.67625 11.6427 1.44844L10.7755 0.5625L5.38365 6.12281C5.0891 6.42656 4.9091 6.84844 4.9091 7.3125V15.75C4.9091 16.6781 5.64547 17.4375 6.54547 17.4375ZM6.54538 7.31249L10.0963 3.65062L8.99992 8.15624H16.3636V9.84374L13.909 15.75H6.54538V7.31249ZM3.27273 7.3125H0V17.4375H3.27273V7.3125Z" fill="#FAFAFA"/>
</svg>
