<svg width="16" height="16" viewBox="0 0 16 16" fill="none" xmlns="http://www.w3.org/2000/svg">
<path d="M3.35782 1.77857C3.3576 2.25004 3.1805 2.7021 2.86548 3.03532C2.55047 3.36853 2.12334 3.55559 1.67807 3.55536C1.2328 3.55512 0.805847 3.36761 0.491147 3.03406C0.176448 2.70051 -0.000222427 2.24826 2.10167e-07 1.77679C0.000222847 1.30532 0.177321 0.853255 0.492335 0.520042C0.807349 0.186829 1.23447 -0.000235512 1.67975 2.22531e-07C2.12502 0.000235957 2.55197 0.187753 2.86667 0.521299C3.18137 0.854845 3.35804 1.3071 3.35782 1.77857ZM3.40819 4.87173H0.0503674V16H3.40819V4.87173ZM8.71354 4.87173H5.37251V16H8.67996V10.1603C8.67996 6.90717 12.6842 6.60497 12.6842 10.1603V16H16V8.9515C16 3.46736 10.0735 3.6718 8.67996 6.36498L8.71354 4.87173Z" fill="#FAFAFA"/>
</svg>

