<svg width="16" height="16" viewBox="0 0 16 16" fill="none" xmlns="http://www.w3.org/2000/svg">
<g id="mdi:instagram">
<path id="Vector" d="M5.20065 1.33301H10.8007C12.934 1.33301 14.6673 3.06634 14.6673 5.19968V10.7997C14.6673 11.8252 14.2599 12.8087 13.5348 13.5338C12.8097 14.259 11.8262 14.6663 10.8007 14.6663H5.20065C3.06732 14.6663 1.33398 12.933 1.33398 10.7997V5.19968C1.33398 4.17417 1.74136 3.19067 2.46651 2.46553C3.19165 1.74039 4.17515 1.33301 5.20065 1.33301ZM5.06732 2.66634C4.4308 2.66634 3.82035 2.9192 3.37026 3.36929C2.92017 3.81937 2.66732 4.42982 2.66732 5.06634V10.933C2.66732 12.2597 3.74065 13.333 5.06732 13.333H10.934C11.5705 13.333 12.181 13.0802 12.631 12.6301C13.0811 12.18 13.334 11.5695 13.334 10.933V5.06634C13.334 3.73967 12.2607 2.66634 10.934 2.66634H5.06732ZM11.5007 3.66634C11.7217 3.66634 11.9336 3.75414 12.0899 3.91042C12.2462 4.0667 12.334 4.27866 12.334 4.49967C12.334 4.72069 12.2462 4.93265 12.0899 5.08893C11.9336 5.24521 11.7217 5.33301 11.5007 5.33301C11.2796 5.33301 11.0677 5.24521 10.9114 5.08893C10.7551 4.93265 10.6673 4.72069 10.6673 4.49967C10.6673 4.27866 10.7551 4.0667 10.9114 3.91042C11.0677 3.75414 11.2796 3.66634 11.5007 3.66634ZM8.00065 4.66634C8.88471 4.66634 9.73255 5.01753 10.3577 5.64265C10.9828 6.26777 11.334 7.11562 11.334 7.99968C11.334 8.88373 10.9828 9.73158 10.3577 10.3567C9.73255 10.9818 8.88471 11.333 8.00065 11.333C7.1166 11.333 6.26875 10.9818 5.64363 10.3567C5.01851 9.73158 4.66732 8.88373 4.66732 7.99968C4.66732 7.11562 5.01851 6.26777 5.64363 5.64265C6.26875 5.01753 7.1166 4.66634 8.00065 4.66634ZM8.00065 5.99967C7.47022 5.99967 6.96151 6.21039 6.58644 6.58546C6.21137 6.96053 6.00065 7.46924 6.00065 7.99968C6.00065 8.53011 6.21137 9.03882 6.58644 9.41389C6.96151 9.78896 7.47022 9.99968 8.00065 9.99968C8.53109 9.99968 9.03979 9.78896 9.41487 9.41389C9.78994 9.03882 10.0007 8.53011 10.0007 7.99968C10.0007 7.46924 9.78994 6.96053 9.41487 6.58546C9.03979 6.21039 8.53109 5.99967 8.00065 5.99967Z" fill="#FAFAFA"/>
</g>
</svg>
