<svg width="16" height="16" viewBox="0 0 16 16" fill="none" xmlns="http://www.w3.org/2000/svg">
<g id="mdi:youtube">
<path id="Vector" d="M6.66732 9.99967L10.1273 7.99967L6.66732 5.99967V9.99967ZM14.374 4.77967C14.4607 5.09301 14.5207 5.51301 14.5607 6.04634C14.6073 6.57967 14.6273 7.03967 14.6273 7.43967L14.6673 7.99967C14.6673 9.45967 14.5607 10.533 14.374 11.2197C14.2073 11.8197 13.8207 12.2063 13.2207 12.373C12.9073 12.4597 12.334 12.5197 11.454 12.5597C10.5873 12.6063 9.79399 12.6263 9.06065 12.6263L8.00065 12.6663C5.20732 12.6663 3.46732 12.5597 2.78065 12.373C2.18065 12.2063 1.79398 11.8197 1.62732 11.2197C1.54065 10.9063 1.48065 10.4863 1.44065 9.95301C1.39398 9.41967 1.37398 8.95967 1.37398 8.55967L1.33398 7.99967C1.33398 6.53967 1.44065 5.46634 1.62732 4.77967C1.79398 4.17967 2.18065 3.79301 2.78065 3.62634C3.09398 3.53967 3.66732 3.47967 4.54732 3.43967C5.41398 3.39301 6.20732 3.37301 6.94065 3.37301L8.00065 3.33301C10.794 3.33301 12.534 3.43967 13.2207 3.62634C13.8207 3.79301 14.2073 4.17967 14.374 4.77967Z" fill="#FAFAFA"/>
</g>
</svg>
