<svg width="16" height="16" viewBox="0 0 16 16" fill="none" xmlns="http://www.w3.org/2000/svg">
<path d="M5.43359 2.16162H10.6836C12.6836 2.16162 14.3086 3.78662 14.3086 5.78662V11.0366C14.3086 11.998 13.9267 12.9201 13.2469 13.5999C12.567 14.2797 11.645 14.6616 10.6836 14.6616H5.43359C3.43359 14.6616 1.80859 13.0366 1.80859 11.0366V5.78662C1.80859 4.82521 2.19051 3.90318 2.87033 3.22336C3.55015 2.54354 4.47218 2.16162 5.43359 2.16162ZM5.30859 3.41162C4.71186 3.41162 4.13956 3.64867 3.7176 4.07063C3.29565 4.49259 3.05859 5.06488 3.05859 5.66162V11.1616C3.05859 12.4054 4.06484 13.4116 5.30859 13.4116H10.8086C11.4053 13.4116 11.9776 13.1746 12.3996 12.7526C12.8215 12.3307 13.0586 11.7584 13.0586 11.1616V5.66162C13.0586 4.41787 12.0523 3.41162 10.8086 3.41162H5.30859ZM11.3398 4.34912C11.547 4.34912 11.7458 4.43143 11.8923 4.57794C12.0388 4.72446 12.1211 4.92317 12.1211 5.13037C12.1211 5.33757 12.0388 5.53629 11.8923 5.6828C11.7458 5.82931 11.547 5.91162 11.3398 5.91162C11.1326 5.91162 10.9339 5.82931 10.7874 5.6828C10.6409 5.53629 10.5586 5.33757 10.5586 5.13037C10.5586 4.92317 10.6409 4.72446 10.7874 4.57794C10.9339 4.43143 11.1326 4.34912 11.3398 4.34912ZM8.05859 5.28662C8.8874 5.28662 9.68225 5.61586 10.2683 6.20191C10.8544 6.78796 11.1836 7.58282 11.1836 8.41162C11.1836 9.24042 10.8544 10.0353 10.2683 10.6213C9.68225 11.2074 8.8874 11.5366 8.05859 11.5366C7.22979 11.5366 6.43494 11.2074 5.84889 10.6213C5.26283 10.0353 4.93359 9.24042 4.93359 8.41162C4.93359 7.58282 5.26283 6.78796 5.84889 6.20191C6.43494 5.61586 7.22979 5.28662 8.05859 5.28662ZM8.05859 6.53662C7.56131 6.53662 7.0844 6.73417 6.73277 7.0858C6.38114 7.43743 6.18359 7.91434 6.18359 8.41162C6.18359 8.9089 6.38114 9.38582 6.73277 9.73745C7.0844 10.0891 7.56131 10.2866 8.05859 10.2866C8.55588 10.2866 9.03279 10.0891 9.38442 9.73745C9.73605 9.38582 9.93359 8.9089 9.93359 8.41162C9.93359 7.91434 9.73605 7.43743 9.38442 7.0858C9.03279 6.73417 8.55588 6.53662 8.05859 6.53662Z" fill="#FAFAFA"/>
</svg>
