<svg width="300" height="212" viewBox="0 0 300 212" fill="none" xmlns="http://www.w3.org/2000/svg">
<path d="M20.0479 111.885L138.704 44.3716C144.619 41.0258 151.848 41.0258 157.703 44.491L280.003 115.708C285.082 118.636 286.754 125.148 283.827 130.167C282.871 131.78 281.557 133.094 279.943 133.991L165.828 199.532C157.942 204.073 148.323 204.073 140.436 199.532L19.9882 130.227C14.9098 127.299 13.1771 120.847 16.1047 115.768C17.0606 114.155 18.4348 112.781 20.0479 111.885Z" fill="#E5E1E1" fill-opacity="0.6"/>
<path d="M160.091 143.43L150.89 139.367V69.2255L162.958 64.9238" fill="#7F1D18"/>
<path d="M165.831 55.7812V138.35L160.096 143.429V63.9067" fill="#AA3529"/>
<path d="M111.338 72.9888V42.4585C111.338 42.4585 110.501 37.0216 120.18 32.1822C129.859 27.3428 161.763 8.64225 161.763 8.64225C161.763 8.64225 177.417 5.83419 185.901 28.7169C187.394 32.6004 188.29 36.6034 188.709 40.7259V64.6841L142.286 90.4347L111.338 72.9888Z" fill="#F97316"/>
<path d="M113.129 70.7786V42.0407C113.129 42.0407 114.145 33.975 122.39 36.7831C130.635 39.5912 139.238 50.6442 141.03 60.9205V86.8503L114.145 71.1968" fill="#E98669"/>
<path d="M152.204 15.9316C152.921 15.9316 153.518 16.5291 153.518 17.2461V68.8667C153.518 69.5836 152.921 70.1811 152.204 70.1811C151.487 70.1811 150.89 69.5836 150.89 68.8667V17.2461C150.89 16.4694 151.487 15.9316 152.204 15.9316Z" fill="#AA3529"/>
<path d="M153.521 15.9304C153.521 15.9304 171.385 14.138 172.639 14.3173C173.894 14.4965 153.58 33.7945 153.58 33.7945" fill="#AA3529"/>
<path d="M112.718 73.5273L94.6146 95.4542C94.6146 95.4542 86.3696 108.12 99.8125 115.35C113.255 122.579 125.922 107.523 125.922 107.523L141.396 89.838L112.718 73.5273Z" fill="#F9B246"/>
<path d="M111.101 72.9883L92.9982 94.9151C92.9982 94.9151 84.7532 107.581 98.2558 114.811C111.758 122.04 124.365 106.984 124.365 106.984L139.839 89.299L111.101 72.9883Z" fill="#FFD7CB"/>
<path opacity="0.3" d="M137.571 51.2417C133.866 44.4306 128.011 38.6352 122.395 36.6636C114.15 33.8556 113.194 41.8615 113.194 41.8615V70.7189C122.276 63.4299 126.637 60.3231 137.571 51.2417Z" fill="#24116A"/>
<path d="M180.172 57.4606C183.325 51.0688 181.755 43.8518 176.666 41.341C171.576 38.8301 164.894 41.9763 161.74 48.3681C158.587 54.7598 160.157 61.9768 165.247 64.4877C170.337 66.9985 177.019 63.8523 180.172 57.4606Z" fill="#FFD7CB"/>
<path d="M174.97 45.8635C176.106 46.7597 176.763 48.1338 176.643 49.5677C176.703 50.8822 176.404 52.2563 175.747 53.3915C175.329 54.4669 174.492 55.3034 173.477 55.7813C172.999 56.0801 172.401 55.9008 172.103 55.4826C171.804 56.1398 171.326 56.6775 170.669 57.036C170.071 57.3347 169.414 57.2152 168.996 56.7373C168.458 56.0801 168.159 55.1839 168.219 54.3474C168.159 53.272 168.398 52.1966 168.936 51.2406C169.295 50.4042 169.952 49.8067 170.788 49.3885C171.206 49.2093 171.684 49.2093 172.043 49.4483L172.162 48.9703L173.656 48.3728L173.298 52.9733V53.75C173.298 53.989 173.417 54.1085 173.596 54.0487C174.074 53.75 174.492 53.272 174.672 52.6745C175.03 51.8978 175.209 51.0614 175.15 50.225C175.209 49.1495 174.791 48.0741 173.895 47.4169C172.999 46.8792 171.923 46.8194 171.027 47.2974C169.713 47.8949 168.637 48.9105 167.98 50.1652C167.144 51.5394 166.725 53.0928 166.785 54.6462C166.725 55.9008 167.203 57.0958 168.04 57.9322C168.876 58.7089 169.952 58.7686 171.386 58.1712C172.7 57.5737 173.835 56.6775 174.791 55.6021L175.329 57.036C174.253 58.2309 172.939 59.2466 171.445 59.9038C169.593 60.6805 168.1 60.561 166.964 59.6648C165.829 58.7686 165.232 57.275 165.172 55.3034C165.112 53.272 165.71 51.2406 166.785 49.508C167.741 47.8351 169.175 46.5207 170.908 45.6843C172.581 45.027 173.895 45.0868 174.97 45.8635ZM171.684 53.989C171.923 53.4512 172.043 52.9135 172.043 52.3161C172.103 51.9576 171.923 51.5991 171.684 51.3601C171.505 51.1809 171.147 51.1211 170.908 51.2406C170.549 51.4199 170.31 51.7784 170.131 52.1368C169.892 52.6148 169.832 53.1525 169.832 53.6902C169.832 54.1084 169.892 54.4669 170.071 54.8254C170.191 55.0644 170.43 55.1839 170.669 55.0644C171.147 54.8254 171.505 54.4669 171.684 53.989Z" fill="#AA3529"/>
<path d="M180.971 126.51L201.046 115.815L120.329 97.3535L180.553 128.959L180.971 126.51Z" fill="#F97316"/>
<path d="M180.553 128.959L176.072 144.971L120.329 97.3535L180.553 128.959Z" fill="#F97316"/>
<path opacity="0.5" d="M180.553 128.959L176.072 144.971L120.329 97.3535L180.553 128.959Z" fill="#24116A"/>
<path d="M171.175 133.858L149.427 144.971L120.331 97.3535L171.175 133.858Z" fill="#F97316"/>
<path d="M171.176 133.857L176.075 144.97L166.098 136.427L171.176 133.857Z" fill="#24116A"/>
<path d="M204.213 152.678C224.945 157.816 250.337 154.59 262.525 134.993C272.024 119.758 268.141 98.548 254.698 87.017C253.145 85.7623 255.355 83.6114 256.849 84.8661C271.307 97.2933 275.31 120.176 265.213 136.546C252.308 157.398 225.542 161.162 203.496 155.665C201.524 155.128 202.301 152.2 204.213 152.678Z" fill="#24116A"/>
<path d="M188.438 147.063L195.01 150.11C196.802 150.946 195.249 153.575 193.516 152.739L186.944 149.691C185.152 148.855 186.705 146.226 188.438 147.063Z" fill="#24116A"/>
</svg>
