<svg width="16" height="16" viewBox="0 0 16 16" fill="none" xmlns="http://www.w3.org/2000/svg">
<path d="M1.99998 14.0002C3.99998 14.0002 6.66665 13.3335 6.66665 8.66685V3.33352C6.66665 2.50018 6.16265 1.98885 5.33331 2.00018H2.66665C1.83331 2.00018 1.33331 2.50018 1.33331 3.31485V7.33352C1.33331 8.16685 1.83331 8.66685 2.66665 8.66685C3.33331 8.66685 3.33331 8.66685 3.33331 9.33352V10.0002C3.33331 10.6669 2.66665 11.3335 1.99998 11.3335C1.33331 11.3335 1.33331 11.3389 1.33331 12.0209V13.3335C1.33331 14.0002 1.33331 14.0002 1.99998 14.0002Z" stroke="#0A0A0A" stroke-width="2" stroke-linecap="round" stroke-linejoin="round"/>
<path d="M9.99998 14.0002C12 14.0002 14.6666 13.3335 14.6666 8.66685V3.33352C14.6666 2.50018 14.162 1.98885 13.3333 2.00018H10.6666C9.83331 2.00018 9.33331 2.50018 9.33331 3.31485V7.33352C9.33331 8.16685 9.83331 8.66685 10.6666 8.66685H11.1666C11.1666 10.1669 11.3333 11.3335 9.33331 11.3335V13.3335C9.33331 14.0002 9.33331 14.0002 9.99998 14.0002Z" stroke="#0A0A0A" stroke-width="2" stroke-linecap="round" stroke-linejoin="round"/>
</svg>
