<svg width="16" height="16" viewBox="0 0 16 16" fill="none" xmlns="http://www.w3.org/2000/svg">
<path d="M9.99998 1.33301H5.99998C5.63179 1.33301 5.33331 1.63148 5.33331 1.99967V3.33301C5.33331 3.7012 5.63179 3.99967 5.99998 3.99967H9.99998C10.3682 3.99967 10.6666 3.7012 10.6666 3.33301V1.99967C10.6666 1.63148 10.3682 1.33301 9.99998 1.33301Z" stroke="#0A0A0A" stroke-width="2" stroke-linecap="round" stroke-linejoin="round"/>
<path d="M10.6667 2.66699H12C12.3536 2.66699 12.6928 2.80747 12.9428 3.05752C13.1929 3.30756 13.3334 3.6467 13.3334 4.00033V13.3337C13.3334 13.6873 13.1929 14.0264 12.9428 14.2765C12.6928 14.5265 12.3536 14.667 12 14.667H4.00002C3.6464 14.667 3.30726 14.5265 3.05721 14.2765C2.80716 14.0264 2.66669 13.6873 2.66669 13.3337V4.00033C2.66669 3.6467 2.80716 3.30756 3.05721 3.05752C3.30726 2.80747 3.6464 2.66699 4.00002 2.66699H5.33335" stroke="#0A0A0A" stroke-width="2" stroke-linecap="round" stroke-linejoin="round"/>
<path d="M6 9.33333L7.33333 10.6667L10 8" stroke="#0A0A0A" stroke-width="2" stroke-linecap="round" stroke-linejoin="round"/>
</svg>
