<svg width="20" height="20" viewBox="0 0 20 20" fill="none" xmlns="http://www.w3.org/2000/svg">
<path d="M13.3332 17.5V15.8333C13.3332 14.9493 12.982 14.1014 12.3569 13.4763C11.7317 12.8512 10.8839 12.5 9.99984 12.5H4.99984C4.11578 12.5 3.26794 12.8512 2.64281 13.4763C2.01769 14.1014 1.6665 14.9493 1.6665 15.8333V17.5" stroke="#525252" stroke-width="1.33" stroke-linecap="round" stroke-linejoin="round"/>
<path d="M7.49984 9.16667C9.34079 9.16667 10.8332 7.67428 10.8332 5.83333C10.8332 3.99238 9.34079 2.5 7.49984 2.5C5.65889 2.5 4.1665 3.99238 4.1665 5.83333C4.1665 7.67428 5.65889 9.16667 7.49984 9.16667Z" stroke="#525252" stroke-width="1.33" stroke-linecap="round" stroke-linejoin="round"/>
<path d="M18.3335 17.5001V15.8334C18.3329 15.0948 18.0871 14.3774 17.6346 13.7937C17.1821 13.2099 16.5486 12.793 15.8335 12.6084" stroke="#141414" stroke-width="1.33" stroke-linecap="round" stroke-linejoin="round"/>
<path d="M13.3335 2.6084C14.0505 2.79198 14.686 3.20898 15.1399 3.79366C15.5937 4.37833 15.84 5.09742 15.84 5.83757C15.84 6.57771 15.5937 7.2968 15.1399 7.88147C14.686 8.46615 14.0505 8.88315 13.3335 9.06673" stroke="#141414" stroke-width="1.33" stroke-linecap="round" stroke-linejoin="round"/>
</svg>
