<svg width="20" height="17" viewBox="0 0 20 17" fill="none" xmlns="http://www.w3.org/2000/svg">
<path d="M12.4414 2.65873C12.6495 3.54092 13.4417 4.19811 14.3877 4.19811C15.492 4.19811 16.3873 3.30279 16.3873 2.19842C16.3873 1.09404 15.492 0.19873 14.3877 0.19873C13.422 0.19873 12.6167 0.883106 12.4292 1.79342C10.812 1.96686 9.54922 3.33842 9.54922 5.00061C9.54922 5.00436 9.54922 5.00717 9.54922 5.01092C7.79047 5.08498 6.18453 5.58561 4.90953 6.37592C4.43609 6.00936 3.84172 5.79092 3.19672 5.79092C1.64891 5.79092 0.394531 7.04529 0.394531 8.59311C0.394531 9.71623 1.05453 10.6837 2.00797 11.1309C2.10078 14.384 5.64547 17.0006 10.0058 17.0006C14.3661 17.0006 17.9155 14.3812 18.0036 11.1253C18.9495 10.6753 19.6039 9.71061 19.6039 8.59404C19.6039 7.04623 18.3495 5.79186 16.8017 5.79186C16.1595 5.79186 15.568 6.00842 15.0955 6.37217C13.8092 5.57623 12.1855 5.07561 10.4089 5.00904C10.4089 5.00623 10.4089 5.00436 10.4089 5.00154C10.4089 3.81092 11.2939 2.82279 12.4414 2.66061V2.65873ZM4.79703 10.3715C4.84391 9.35529 5.51891 8.57529 6.30359 8.57529C7.08828 8.57529 7.68828 9.39936 7.64141 10.4156C7.59453 11.4319 7.00859 11.8012 6.22297 11.8012C5.43734 11.8012 4.75016 11.3878 4.79703 10.3715ZM13.7089 8.57529C14.4945 8.57529 15.1695 9.35529 15.2155 10.3715C15.2623 11.3878 14.5742 11.8012 13.7895 11.8012C13.0048 11.8012 12.418 11.4328 12.3711 10.4156C12.3242 9.39936 12.9233 8.57529 13.7089 8.57529ZM12.7752 12.7228C12.9223 12.7378 13.0161 12.8906 12.9589 13.0275C12.4761 14.1815 11.3361 14.9925 10.0058 14.9925C8.67547 14.9925 7.53641 14.1815 7.05266 13.0275C6.99547 12.8906 7.08922 12.7378 7.23641 12.7228C8.09891 12.6356 9.03172 12.5878 10.0058 12.5878C10.9798 12.5878 11.9117 12.6356 12.7752 12.7228Z" fill="#5B5B5D"/>
</svg>
