<svg width="24" height="24" viewBox="0 0 24 24" fill="none" xmlns="http://www.w3.org/2000/svg">
<g clip-path="url(#clip0_13832_3816)">
<path d="M23.9991 12.073C23.9991 5.40405 18.6261 -0.00195312 11.9991 -0.00195312C5.36909 -0.000453125 -0.00390625 5.40405 -0.00390625 12.0745C-0.00390625 18.1 4.38509 23.095 10.1211 24.001V15.5635H7.07609V12.0745H10.1241V9.41205C10.1241 6.38655 11.9166 4.71555 14.6571 4.71555C15.9711 4.71555 17.3436 4.95105 17.3436 4.95105V7.92105H15.8301C14.3406 7.92105 13.8756 8.85255 13.8756 9.80805V12.073H17.2026L16.6716 15.562H13.8741V23.9995C19.6101 23.0935 23.9991 18.0985 23.9991 12.073Z" fill="#1976D2"/>
</g>
<defs>
<clipPath id="clip0_13832_3816">
<rect width="24" height="24" fill="white"/>
</clipPath>
</defs>
</svg>
