<svg width="24" height="24" viewBox="0 0 24 24" fill="none" xmlns="http://www.w3.org/2000/svg">
<g clip-path="url(#clip0_5894_2801)">
<path d="M22.2234 -0.000610352H1.77187C0.792187 -0.000610352 0 0.772827 0 1.72908V22.265C0 23.2213 0.792187 23.9994 1.77187 23.9994H22.2234C23.2031 23.9994 24 23.2213 24 22.2697V1.72908C24 0.772827 23.2031 -0.000610352 22.2234 -0.000610352ZM7.12031 20.451H3.55781V8.9947H7.12031V20.451ZM5.33906 7.43376C4.19531 7.43376 3.27188 6.51033 3.27188 5.37126C3.27188 4.2322 4.19531 3.30876 5.33906 3.30876C6.47813 3.30876 7.40156 4.2322 7.40156 5.37126C7.40156 6.50564 6.47813 7.43376 5.33906 7.43376ZM20.4516 20.451H16.8937V14.8822C16.8937 13.5556 16.8703 11.8447 15.0422 11.8447C13.1906 11.8447 12.9094 13.2931 12.9094 14.7885V20.451H9.35625V8.9947H12.7687V10.5603H12.8156C13.2891 9.66033 14.4516 8.70877 16.1813 8.70877C19.7859 8.70877 20.4516 11.0806 20.4516 14.165V20.451Z" fill="#5B5B5D"/>
</g>
<defs>
<clipPath id="clip0_5894_2801">
<rect width="24" height="24" fill="white" transform="translate(0 -0.000610352)"/>
</clipPath>
</defs>
</svg>
