<svg width="24" height="24" viewBox="0 0 24 24" fill="none" xmlns="http://www.w3.org/2000/svg">
<g clip-path="url(#clip0_5894_2793)">
<path d="M12 2.16033C15.2063 2.16033 15.5859 2.17439 16.8469 2.23064C18.0188 2.2822 18.6516 2.47908 19.0734 2.64314C19.6313 2.85876 20.0344 3.12126 20.4516 3.53845C20.8734 3.96033 21.1313 4.35876 21.3469 4.91658C21.5109 5.33845 21.7078 5.97595 21.7594 7.14314C21.8156 8.40876 21.8297 8.78845 21.8297 11.99C21.8297 15.1963 21.8156 15.576 21.7594 16.8369C21.7078 18.0088 21.5109 18.6416 21.3469 19.0635C21.1313 19.6213 20.8687 20.0244 20.4516 20.4416C20.0297 20.8635 19.6313 21.1213 19.0734 21.3369C18.6516 21.501 18.0141 21.6978 16.8469 21.7494C15.5813 21.8056 15.2016 21.8197 12 21.8197C8.79375 21.8197 8.41406 21.8056 7.15313 21.7494C5.98125 21.6978 5.34844 21.501 4.92656 21.3369C4.36875 21.1213 3.96563 20.8588 3.54844 20.4416C3.12656 20.0197 2.86875 19.6213 2.65313 19.0635C2.48906 18.6416 2.29219 18.0041 2.24063 16.8369C2.18438 15.5713 2.17031 15.1916 2.17031 11.99C2.17031 8.78376 2.18438 8.40408 2.24063 7.14314C2.29219 5.97126 2.48906 5.33845 2.65313 4.91658C2.86875 4.35876 3.13125 3.95564 3.54844 3.53845C3.97031 3.11658 4.36875 2.85876 4.92656 2.64314C5.34844 2.47908 5.98594 2.2822 7.15313 2.23064C8.41406 2.17439 8.79375 2.16033 12 2.16033ZM12 -0.000610352C8.74219 -0.000610352 8.33438 0.0134521 7.05469 0.0697021C5.77969 0.125952 4.90313 0.332202 4.14375 0.627515C3.35156 0.93689 2.68125 1.3447 2.01563 2.01501C1.34531 2.68064 0.9375 3.35095 0.628125 4.13845C0.332812 4.90251 0.126563 5.77439 0.0703125 7.04939C0.0140625 8.33376 0 8.74158 0 11.9994C0 15.2572 0.0140625 15.665 0.0703125 16.9447C0.126563 18.2197 0.332812 19.0963 0.628125 19.8556C0.9375 20.6478 1.34531 21.3181 2.01563 21.9838C2.68125 22.6494 3.35156 23.0619 4.13906 23.3666C4.90313 23.6619 5.775 23.8681 7.05 23.9244C8.32969 23.9806 8.7375 23.9947 11.9953 23.9947C15.2531 23.9947 15.6609 23.9806 16.9406 23.9244C18.2156 23.8681 19.0922 23.6619 19.8516 23.3666C20.6391 23.0619 21.3094 22.6494 21.975 21.9838C22.6406 21.3181 23.0531 20.6478 23.3578 19.8603C23.6531 19.0963 23.8594 18.2244 23.9156 16.9494C23.9719 15.6697 23.9859 15.2619 23.9859 12.0041C23.9859 8.74627 23.9719 8.33845 23.9156 7.05876C23.8594 5.78376 23.6531 4.9072 23.3578 4.14783C23.0625 3.35095 22.6547 2.68064 21.9844 2.01501C21.3188 1.34939 20.6484 0.93689 19.8609 0.632202C19.0969 0.33689 18.225 0.13064 16.95 0.0743897C15.6656 0.0134522 15.2578 -0.000610352 12 -0.000610352Z" fill="#5B5B5D"/>
<path d="M12 5.83533C8.59688 5.83533 5.83594 8.59626 5.83594 11.9994C5.83594 15.4025 8.59688 18.1635 12 18.1635C15.4031 18.1635 18.1641 15.4025 18.1641 11.9994C18.1641 8.59626 15.4031 5.83533 12 5.83533ZM12 15.9978C9.79219 15.9978 8.00156 14.2072 8.00156 11.9994C8.00156 9.79158 9.79219 8.00095 12 8.00095C14.2078 8.00095 15.9984 9.79158 15.9984 11.9994C15.9984 14.2072 14.2078 15.9978 12 15.9978Z" fill="#5B5B5D"/>
<path d="M19.8469 5.59153C19.8469 6.38841 19.2 7.03059 18.4078 7.03059C17.6109 7.03059 16.9688 6.38372 16.9688 5.59153C16.9688 4.79465 17.6156 4.15247 18.4078 4.15247C19.2 4.15247 19.8469 4.79934 19.8469 5.59153Z" fill="#5B5B5D"/>
</g>
<defs>
<clipPath id="clip0_5894_2793">
<rect width="24" height="24" fill="white" transform="translate(0 -0.000610352)"/>
</clipPath>
</defs>
</svg>
