<svg width="24" height="24" viewBox="0 0 24 24" fill="none" xmlns="http://www.w3.org/2000/svg">
<path d="M12.0012 8.4C11.0464 8.4 10.1307 8.77928 9.45562 9.45442C8.78049 10.1295 8.4012 11.0452 8.4012 12C8.4012 12.9548 8.78049 13.8705 9.45562 14.5456C10.1307 15.2207 11.0464 15.6 12.0012 15.6C12.956 15.6 13.8717 15.2207 14.5468 14.5456C15.2219 13.8705 15.6012 12.9548 15.6012 12C15.6012 11.0452 15.2219 10.1295 14.5468 9.45442C13.8717 8.77928 12.956 8.4 12.0012 8.4ZM12.0012 6C13.5925 6 15.1186 6.63214 16.2438 7.75736C17.3691 8.88258 18.0012 10.4087 18.0012 12C18.0012 13.5913 17.3691 15.1174 16.2438 16.2426C15.1186 17.3679 13.5925 18 12.0012 18C10.4099 18 8.88378 17.3679 7.75856 16.2426C6.63334 15.1174 6.0012 13.5913 6.0012 12C6.0012 10.4087 6.63334 8.88258 7.75856 7.75736C8.88378 6.63214 10.4099 6 12.0012 6ZM19.8012 5.7C19.8012 6.09783 19.6432 6.47936 19.3619 6.76066C19.0806 7.04197 18.699 7.2 18.3012 7.2C17.9034 7.2 17.5218 7.04197 17.2405 6.76066C16.9592 6.47936 16.8012 6.09783 16.8012 5.7C16.8012 5.30218 16.9592 4.92064 17.2405 4.63934C17.5218 4.35804 17.9034 4.2 18.3012 4.2C18.699 4.2 19.0806 4.35804 19.3619 4.63934C19.6432 4.92064 19.8012 5.30218 19.8012 5.7ZM12.0012 2.4C9.0324 2.4 8.5476 2.4084 7.1664 2.4696C6.2256 2.514 5.5944 2.64 5.0088 2.868C4.519 3.04844 4.07607 3.33676 3.7128 3.7116C3.33753 4.07474 3.04879 4.51769 2.868 5.0076C2.64 5.5956 2.514 6.2256 2.4708 7.1652C2.4084 8.49 2.4 8.9532 2.4 12C2.4 14.97 2.4084 15.4536 2.4696 16.8348C2.514 17.7744 2.64 18.4068 2.8668 18.9912C3.0708 19.5132 3.3108 19.8888 3.7092 20.2872C4.1136 20.6904 4.4892 20.9316 5.0052 21.1308C5.598 21.36 6.2292 21.4872 7.1652 21.5304C8.49 21.5928 8.9532 21.6 12 21.6C14.97 21.6 15.4536 21.5916 16.8348 21.5304C17.7732 21.486 18.4044 21.36 18.9912 21.1332C19.481 20.9528 19.9239 20.6644 20.2872 20.2896C20.6916 19.8864 20.9328 19.5108 21.132 18.9936C21.36 18.4032 21.4872 17.772 21.5304 16.8336C21.5928 15.51 21.6 15.0456 21.6 12C21.6 9.0312 21.5916 8.5464 21.5304 7.1652C21.486 6.2268 21.3588 5.5932 21.132 5.0076C20.9516 4.5178 20.6632 4.07487 20.2884 3.7116C19.9253 3.33633 19.4823 3.04759 18.9924 2.8668C18.4044 2.6388 17.7732 2.5128 16.8348 2.4696C15.5112 2.4072 15.048 2.4 12 2.4M12 0C15.2604 0 15.6672 0.0119999 16.9476 0.0719999C18.2244 0.132 19.0956 0.3324 19.86 0.63C20.652 0.9348 21.3192 1.3476 21.9864 2.0136C22.5968 2.61328 23.069 3.33897 23.37 4.14C23.6664 4.9044 23.868 5.7756 23.928 7.0536C23.9844 8.3328 24 8.7396 24 12C24 15.2604 23.988 15.6672 23.928 16.9464C23.868 18.2256 23.6664 19.0944 23.37 19.86C23.069 20.661 22.5968 21.3867 21.9864 21.9864C21.3867 22.5968 20.661 23.069 19.86 23.37C19.0956 23.6664 18.2244 23.868 16.9476 23.928C15.6672 23.9844 15.2604 24 12 24C8.7396 24 8.3328 23.988 7.0524 23.928C5.7756 23.868 4.9056 23.6664 4.14 23.37C3.33897 23.069 2.61328 22.5968 2.0136 21.9864C1.40317 21.3867 0.930979 20.661 0.63 19.86C0.3324 19.0956 0.132 18.2244 0.0719999 16.9464C0.0143999 15.6672 0 15.2604 0 12C0 8.7396 0.0119999 8.3328 0.0719999 7.0536C0.132 5.7744 0.3324 4.9056 0.63 4.14C0.930979 3.33897 1.40317 2.61328 2.0136 2.0136C2.61328 1.40317 3.33897 0.930979 4.14 0.63C4.9044 0.3324 5.7744 0.132 7.0524 0.0719999C8.334 0.0155999 8.7408 0 12.0012 0" fill="white"/>
</svg>
