<svg width="26" height="26" viewBox="0 0 26 26" fill="none" xmlns="http://www.w3.org/2000/svg">
<path d="M17.8 8.57898C19.7096 8.57898 21.5409 9.37747 22.8912 10.7988C24.2414 12.2201 25 14.1479 25 16.1579V25H20.2V16.1579C20.2 15.4879 19.9471 14.8453 19.4971 14.3716C19.047 13.8978 18.4365 13.6316 17.8 13.6316C17.1635 13.6316 16.553 13.8978 16.1029 14.3716C15.6529 14.8453 15.4 15.4879 15.4 16.1579V25H10.6V16.1579C10.6 14.1479 11.3586 12.2201 12.7088 10.7988C14.0591 9.37747 15.8904 8.57898 17.8 8.57898ZM1 9.84214H5.8V25H1V9.84214Z" stroke="white" stroke-width="1.5" stroke-linecap="round" stroke-linejoin="round"/>
<path d="M3.4 6.05263C4.72548 6.05263 5.8 4.92156 5.8 3.52632C5.8 2.13107 4.72548 1 3.4 1C2.07452 1 1 2.13107 1 3.52632C1 4.92156 2.07452 6.05263 3.4 6.05263Z" stroke="white" stroke-width="1.5" stroke-linecap="round" stroke-linejoin="round"/>
</svg>
