<svg width="24" height="24" viewBox="0 0 24 24" fill="none" xmlns="http://www.w3.org/2000/svg">
<g id="Social Icons">
<path id="Vector" d="M14.4412 5.65873C14.6493 6.54092 15.4415 7.19811 16.3874 7.19811C17.4918 7.19811 18.3871 6.30279 18.3871 5.19842C18.3871 4.09404 17.4918 3.19873 16.3874 3.19873C15.4218 3.19873 14.6165 3.88311 14.429 4.79342C12.8118 4.96686 11.549 6.33842 11.549 8.00061C11.549 8.00436 11.549 8.00717 11.549 8.01092C9.79023 8.08498 8.18429 8.58561 6.90929 9.37592C6.43585 9.00936 5.84147 8.79092 5.19647 8.79092C3.64866 8.79092 2.39429 10.0453 2.39429 11.5931C2.39429 12.7162 3.05429 13.6837 4.00772 14.1309C4.10054 17.384 7.64523 20.0006 12.0055 20.0006C16.3659 20.0006 19.9152 17.3812 20.0033 14.1253C20.9493 13.6753 21.6037 12.7106 21.6037 11.594C21.6037 10.0462 20.3493 8.79186 18.8015 8.79186C18.1593 8.79186 17.5677 9.00842 17.0952 9.37217C15.809 8.57623 14.1852 8.07561 12.4087 8.00904C12.4087 8.00623 12.4087 8.00436 12.4087 8.00154C12.4087 6.81092 13.2937 5.82279 14.4412 5.66061V5.65873ZM6.79679 13.3715C6.84366 12.3553 7.51866 11.5753 8.30335 11.5753C9.08804 11.5753 9.68804 12.3994 9.64116 13.4156C9.59429 14.4319 9.00835 14.8012 8.22272 14.8012C7.4371 14.8012 6.74991 14.3878 6.79679 13.3715ZM15.7087 11.5753C16.4943 11.5753 17.1693 12.3553 17.2152 13.3715C17.2621 14.3878 16.574 14.8012 15.7893 14.8012C15.0046 14.8012 14.4177 14.4328 14.3708 13.4156C14.324 12.3994 14.923 11.5753 15.7087 11.5753ZM14.7749 15.7228C14.9221 15.7378 15.0158 15.8906 14.9587 16.0275C14.4758 17.1815 13.3358 17.9925 12.0055 17.9925C10.6752 17.9925 9.53616 17.1815 9.05241 16.0275C8.99522 15.8906 9.08897 15.7378 9.23616 15.7228C10.0987 15.6356 11.0315 15.5878 12.0055 15.5878C12.9796 15.5878 13.9115 15.6356 14.7749 15.7228Z" fill="#5B5B5D"/>
</g>
</svg>
