<svg width="16" height="16" viewBox="0 0 16 16" fill="none" xmlns="http://www.w3.org/2000/svg">
<g id="magnifying-glass" opacity="0.5">
<path id="Vector" d="M13.7105 13.711L13.357 13.3573C13.3439 13.3704 13.3227 13.3704 13.3096 13.3573L10.283 10.3305L9.9665 10.0141L9.61704 10.2937C8.88136 10.8822 7.94909 11.2338 6.9333 11.2338C4.55848 11.2338 2.6333 9.30861 2.6333 6.93379C2.6333 4.55897 4.55848 2.63379 6.9333 2.63379C9.30812 2.63379 11.2333 4.55897 11.2333 6.93379C11.2333 7.94958 10.8817 8.88184 10.2932 9.61753L10.0136 9.96699L10.33 10.2834L13.3568 13.3101C13.3699 13.3232 13.3699 13.3444 13.3568 13.3575L13.7105 13.711ZM13.7105 13.711C13.9187 13.5026 13.9187 13.1649 13.7105 12.9566L12.9561 13.711C13.1644 13.9192 13.5022 13.9192 13.7105 13.711ZM6.9333 11.1671C9.27131 11.1671 11.1666 9.2718 11.1666 6.93379C11.1666 4.59578 9.27131 2.70046 6.9333 2.70046C4.59529 2.70046 2.69997 4.59578 2.69997 6.93379C2.69997 9.2718 4.59529 11.1671 6.9333 11.1671Z" fill="#0A0A0A" stroke="#0A0A0A"/>
</g>
</svg>
