<svg width="16" height="16" viewBox="0 0 16 16" fill="none" xmlns="http://www.w3.org/2000/svg">
<g opacity="0.5">
<path d="M13.711 13.711L13.3575 13.3573C13.3444 13.3704 13.3232 13.3704 13.3101 13.3573L10.2834 10.3305L9.96699 10.0141L9.61753 10.2937C8.88184 10.8822 7.94958 11.2338 6.93379 11.2338C4.55897 11.2338 2.63379 9.30861 2.63379 6.93379C2.63379 4.55897 4.55897 2.63379 6.93379 2.63379C9.30861 2.63379 11.2338 4.55897 11.2338 6.93379C11.2338 7.94958 10.8822 8.88184 10.2937 9.61753L10.0141 9.96699L10.3305 10.2834L13.3573 13.3101C13.3704 13.3232 13.3704 13.3444 13.3573 13.3575L13.711 13.711ZM13.711 13.711C13.9192 13.5026 13.9192 13.1649 13.711 12.9566L12.9566 13.711C13.1649 13.9192 13.5026 13.9192 13.711 13.711ZM6.93379 11.1671C9.2718 11.1671 11.1671 9.2718 11.1671 6.93379C11.1671 4.59578 9.2718 2.70046 6.93379 2.70046C4.59578 2.70046 2.70046 4.59578 2.70046 6.93379C2.70046 9.2718 4.59578 11.1671 6.93379 11.1671Z" fill="#0A0A0A" stroke="#0A0A0A"/>
</g>
</svg>
