<svg width="20" height="21" viewBox="0 0 20 21" fill="none" xmlns="http://www.w3.org/2000/svg">
<path d="M10.0003 10.8786C10.4606 10.8786 10.8337 10.5055 10.8337 10.0452C10.8337 9.58501 10.4606 9.21191 10.0003 9.21191C9.54009 9.21191 9.16699 9.58501 9.16699 10.0452C9.16699 10.5055 9.54009 10.8786 10.0003 10.8786Z" stroke="#0A0A0A" stroke-width="2" stroke-linecap="round" stroke-linejoin="round"/>
<path d="M10.0003 5.0446C10.4606 5.0446 10.8337 4.6715 10.8337 4.21126C10.8337 3.75103 10.4606 3.37793 10.0003 3.37793C9.54009 3.37793 9.16699 3.75103 9.16699 4.21126C9.16699 4.6715 9.54009 5.0446 10.0003 5.0446Z" stroke="#0A0A0A" stroke-width="2" stroke-linecap="round" stroke-linejoin="round"/>
<path d="M10.0003 16.7116C10.4606 16.7116 10.8337 16.3385 10.8337 15.8783C10.8337 15.418 10.4606 15.0449 10.0003 15.0449C9.54009 15.0449 9.16699 15.418 9.16699 15.8783C9.16699 16.3385 9.54009 16.7116 10.0003 16.7116Z" stroke="#0A0A0A" stroke-width="2" stroke-linecap="round" stroke-linejoin="round"/>
</svg>
