<svg width="32" height="33" viewBox="0 0 32 33" fill="none" xmlns="http://www.w3.org/2000/svg">
<path d="M10.1708 15.1873C9.73846 14.727 9.06465 14.755 8.77828 15.3446L1.71446 29.4383C1.43371 29.9999 1.84921 30.6569 2.4669 30.6569H12.2933C12.6189 30.6625 12.911 30.4771 13.0457 30.1852C15.1738 25.8167 13.8936 19.1628 10.1708 15.1873Z" fill="#0C62DC"/>
<path d="M15.3479 2.36767C8.48071 13.2272 14.8706 21.9417 18.9976 30.1902C19.138 30.4767 19.43 30.662 19.7501 30.662H29.5316C30.1605 30.662 30.5647 29.9994 30.284 29.4435C30.284 29.4435 17.1166 3.01898 16.7853 2.36204C16.4878 1.76679 15.7297 1.7556 15.3479 2.36767Z" fill="#2681FF"/>
</svg>
