<svg width="32" height="33" viewBox="0 0 32 33" fill="none" xmlns="http://www.w3.org/2000/svg">
<path d="M27.7749 11.375C29.5698 11.375 31.0249 9.91993 31.0249 8.125C31.0249 6.33007 29.5698 4.875 27.7749 4.875C25.98 4.875 24.5249 6.33007 24.5249 8.125C24.5249 9.91993 25.98 11.375 27.7749 11.375Z" fill="#4F59CA"/>
<path d="M27.075 26.7738H26.575C23.9 26.7738 21.75 24.5988 21.75 21.9488V14.2988C21.75 13.5238 22.375 12.9238 23.125 12.9238H30.525C31.3 12.9238 31.9 13.5488 31.9 14.2988V21.9238C31.925 24.5988 29.75 26.7738 27.075 26.7738Z" fill="#4F59CA"/>
<path d="M17.5749 11.2992C20.1568 11.2992 22.2499 9.20615 22.2499 6.62422C22.2499 4.04229 20.1568 1.94922 17.5749 1.94922C14.993 1.94922 12.8999 4.04229 12.8999 6.62422C12.8999 9.20615 14.993 11.2992 17.5749 11.2992Z" fill="#7B82EA"/>
<path d="M17.5998 31.0992H16.7998C12.5998 31.0992 9.1748 27.6742 9.1748 23.4742V14.0992C9.1748 13.4742 9.6998 12.9492 10.3248 12.9492H24.0748C24.6998 12.9492 25.2248 13.4742 25.2248 14.0992V23.4742C25.2248 27.6742 21.8248 31.0992 17.5998 31.0992Z" fill="#7B82EA"/>
<path d="M14.8749 24.875H1.6249C0.749902 24.875 0.0249023 24.15 0.0249023 23.275V10.225C0.0249023 9.35 0.749902 8.625 1.6249 8.625H14.8749C15.7499 8.625 16.4749 9.35 16.4749 10.225V23.275C16.4749 24.15 15.7749 24.875 14.8749 24.875Z" fill="#4C53BB"/>
<path d="M7.35 13.75H4.75V12.375H11.625V13.75H9.025V21.325H7.375V13.75H7.35Z" fill="white"/>
<path opacity="0.2" d="M16.4998 12.9492V23.2492C16.4998 24.1242 15.7748 24.8492 14.8998 24.8492H9.2998L9.6748 26.2742H16.2498C17.1248 26.2742 17.8498 25.5492 17.8498 24.6742V12.9492H16.4998Z" fill="black"/>
</svg>
