<svg width="32" height="32" viewBox="0 0 32 32" fill="none" xmlns="http://www.w3.org/2000/svg">
<path d="M1.4749 22.5496L18.1249 15.6246L9.7499 10.6746C9.7499 10.6746 8.9999 10.2496 7.8249 10.0996C3.4999 10.1996 0.0249023 13.7246 0.0249023 18.0746C0.0249023 19.7996 0.574902 21.3996 1.4999 22.6996L1.4749 22.5496Z" fill="#0078D4"/>
<path d="M30.85 23.1995C31.55 22.1495 31.975 20.8995 31.975 19.5495C31.975 16.0995 29.275 13.2995 25.9 13.0745C25.9 13.0495 25.9 13.0245 25.875 12.9995C24.675 12.8745 23.575 13.3495 23.575 13.3495L18.125 15.6245L30.85 23.1995Z" fill="#1490DF"/>
<path d="M18.1247 15.65L23.5747 13.375C23.5747 13.375 24.6997 12.9 25.8747 13.025C24.8247 8.725 20.9247 5.5 16.2997 5.5C12.7997 5.5 9.72471 7.325 7.94971 10.075C7.89971 10.075 7.87471 10.075 7.82471 10.075C9.02471 10.225 9.74971 10.65 9.74971 10.65L18.1247 15.65Z" fill="#0364B8"/>
<path d="M18.15 15.6504L1.5 22.5504L1.525 22.7004C2.975 24.7254 5.35 26.0504 8.025 26.0504C8.275 26.0504 8.525 26.0254 8.775 26.0254H25.25C25.35 26.0254 25.425 26.0254 25.525 26.0254C25.625 26.0254 25.7 26.0254 25.8 26.0254H25.825C27.925 25.9254 29.775 24.8254 30.875 23.2004L18.15 15.6504Z" fill="#28A8EA"/>
</svg>
