<svg width="32" height="33" viewBox="0 0 32 33" fill="none" xmlns="http://www.w3.org/2000/svg">
<path d="M6.9496 7.22309C7.84539 7.95081 8.18143 7.89528 9.86348 7.78307L25.7214 6.83087C26.0576 6.83087 25.778 6.49534 25.666 6.43958L23.0321 4.53566C22.5276 4.1439 21.8552 3.69521 20.5667 3.80745L5.21151 4.92741C4.65153 4.98294 4.53966 5.26292 4.7627 5.48736L6.9496 7.22309ZM7.90169 10.9187V27.604C7.90169 28.5007 8.34979 28.8362 9.35839 28.7808L26.7862 27.7723C27.7952 27.7169 27.9077 27.0999 27.9077 26.3716V9.7983C27.9077 9.07102 27.628 8.67881 27.0102 8.73479L8.79794 9.7983C8.12586 9.85477 7.90169 10.191 7.90169 10.9187ZM25.1064 11.8138C25.2182 12.3182 25.1064 12.8222 24.601 12.8789L23.7613 13.0462V25.3642C23.0321 25.7561 22.3599 25.9801 21.7997 25.9801C20.9028 25.9801 20.6781 25.7 20.0063 24.8605L14.5136 16.2378V24.5807L16.2517 24.9728C16.2517 24.9728 16.2517 25.9801 14.8494 25.9801L10.9837 26.2043C10.8714 25.9801 10.9837 25.4208 11.3758 25.3085L12.3846 25.0291V13.9984L10.9839 13.8861C10.8716 13.3817 11.1514 12.6544 11.9365 12.598L16.0836 12.3184L21.7997 21.0534V13.3261L20.3423 13.1589C20.2304 12.5422 20.6781 12.0944 21.2386 12.0389L25.1064 11.8138ZM3.92225 3.41568L19.8942 2.23951C21.8556 2.07128 22.3601 2.18397 23.593 3.07947L28.6912 6.66287C29.5326 7.27909 29.8129 7.44685 29.8129 8.1186V27.7723C29.8129 29.0039 29.3643 29.7324 27.7954 29.8438L9.24743 30.964C8.06981 31.0201 7.50934 30.8522 6.89264 30.0678L3.13808 25.1965C2.46531 24.2999 2.18555 23.629 2.18555 22.8441V5.3747C2.18555 4.36743 2.63436 3.52724 3.92225 3.41568Z" fill="black"/>
</svg>
