<svg width="32" height="33" viewBox="0 0 32 33" fill="none" xmlns="http://www.w3.org/2000/svg">
<g clip-path="url(#clip0_11001_64637)">
<path d="M6.72312 20.7952C6.72312 22.6453 5.21175 24.1567 3.36156 24.1567C1.51144 24.1567 0 22.6453 0 20.7952C0 18.945 1.51144 17.4336 3.36156 17.4336H6.72312V20.7952Z" fill="#E01E5A"/>
<path d="M8.41699 20.7952C8.41699 18.945 9.92843 17.4336 11.7786 17.4336C13.6287 17.4336 15.1401 18.945 15.1401 20.7952V29.2121C15.1401 31.0623 13.6287 32.5737 11.7786 32.5737C9.92843 32.5737 8.41699 31.0623 8.41699 29.2121V20.7952Z" fill="#E01E5A"/>
<path d="M11.7786 7.29734C9.92843 7.29734 8.41699 5.78597 8.41699 3.93578C8.41699 2.08566 9.92843 0.574219 11.7786 0.574219C13.6287 0.574219 15.1401 2.08566 15.1401 3.93578V7.29734H11.7786Z" fill="#36C5F0"/>
<path d="M11.7785 8.99023C13.6287 8.99023 15.1401 10.5017 15.1401 12.3518C15.1401 14.202 13.6287 15.7134 11.7785 15.7134H3.36156C1.51144 15.7134 0 14.202 0 12.3518C0 10.5017 1.51144 8.99023 3.36156 8.99023H11.7785Z" fill="#36C5F0"/>
<path d="M25.2769 12.3518C25.2769 10.5017 26.7883 8.99023 28.6384 8.99023C30.4886 8.99023 32 10.5017 32 12.3518C32 14.202 30.4886 15.7134 28.6384 15.7134H25.2769V12.3518Z" fill="#2EB67D"/>
<path d="M23.583 12.3527C23.583 14.2029 22.0716 15.7143 20.2214 15.7143C18.3713 15.7143 16.8599 14.2029 16.8599 12.3527V3.93578C16.8599 2.08566 18.3713 0.574219 20.2214 0.574219C22.0716 0.574219 23.583 2.08566 23.583 3.93578V12.3527Z" fill="#2EB67D"/>
<path d="M20.2214 25.8496C22.0716 25.8496 23.583 27.361 23.583 29.2112C23.583 31.0614 22.0716 32.5727 20.2214 32.5727C18.3713 32.5727 16.8599 31.0614 16.8599 29.2112V25.8496H20.2214Z" fill="#ECB22E"/>
<path d="M20.2214 24.1567C18.3713 24.1567 16.8599 22.6453 16.8599 20.7952C16.8599 18.945 18.3713 17.4336 20.2214 17.4336H28.6384C30.4886 17.4336 31.9999 18.945 31.9999 20.7952C31.9999 22.6453 30.4886 24.1567 28.6384 24.1567H20.2214Z" fill="#ECB22E"/>
</g>
<defs>
<clipPath id="clip0_11001_64637">
<rect width="32" height="32" fill="white" transform="translate(0 0.574219)"/>
</clipPath>
</defs>
</svg>
