<svg width="81" height="34" viewBox="0 0 81 34" fill="none" xmlns="http://www.w3.org/2000/svg">
<g clip-path="url(#clip0_10574_7213)">
<path d="M6.12219 13.3256C6.12219 12.4591 6.83328 12.1256 8.01125 12.1256C9.7 12.1256 11.8333 12.6369 13.5222 13.548V8.32562C11.6778 7.59234 9.85563 7.30344 8.01125 7.30344C3.5 7.30344 0.5 9.65906 0.5 13.5925C0.5 19.7256 8.94438 18.748 8.94438 21.3925C8.94438 22.4145 8.05562 22.748 6.81109 22.748C4.96672 22.748 2.61109 21.9923 0.744375 20.9701V26.2591C2.81109 27.148 4.9 27.5256 6.81109 27.5256C11.4333 27.5256 14.6111 25.2369 14.6111 21.2591C14.5889 14.6369 6.12219 15.8145 6.12219 13.3256ZM21.1444 2.85906L15.7222 4.01453L15.7 21.8145C15.7 25.1036 18.1667 27.5256 21.4556 27.5256C23.2778 27.5256 24.6111 27.1923 25.3444 26.7923V22.2812C24.6334 22.5702 21.1222 23.5923 21.1222 20.3034V12.4145H25.3444V7.68125H21.1222L21.1444 2.85906ZM32.2556 9.32562L31.9 7.68125H27.1V27.1256H32.6556V13.948C33.9666 12.2369 36.1889 12.548 36.8778 12.7923V7.68125C36.1667 7.41453 33.5667 6.92562 32.2556 9.32562ZM38.2333 7.68125H43.8111V27.1256H38.2333V7.68125ZM38.2333 5.99234L43.8111 4.79234V0.28125L38.2333 1.45906V5.99234ZM55.4111 7.30344C53.2333 7.30344 51.8333 8.32562 51.0556 9.03687L50.7666 7.65906H45.8778V33.57L51.4333 32.3923L51.4556 26.1034C52.2556 26.6812 53.4333 27.5034 55.3889 27.5034C59.3667 27.5034 62.9889 24.3034 62.9889 17.2591C62.9667 10.8145 59.3 7.30344 55.4111 7.30344ZM54.0778 22.6145C52.7667 22.6145 51.9888 22.148 51.4556 21.5701L51.4333 13.3256C52.0111 12.6812 52.8111 12.2369 54.0778 12.2369C56.1 12.2369 57.5 14.5034 57.5 17.4145C57.5 20.3923 56.1222 22.6145 54.0778 22.6145ZM80.5 17.4812C80.5 11.7923 77.7444 7.30344 72.4778 7.30344C67.1888 7.30344 63.9888 11.7925 63.9888 17.4369C63.9888 24.1256 67.7667 27.5034 73.1888 27.5034C75.8333 27.5034 77.8333 26.9034 79.3444 26.0591V21.6145C77.8334 22.3702 76.1 22.8369 73.9 22.8369C71.7444 22.8369 69.8333 22.0812 69.5889 19.4591H80.4556C80.4556 19.17 80.5 18.0145 80.5 17.4812ZM69.5222 15.3702C69.5222 12.8591 71.0556 11.8145 72.4556 11.8145C73.8111 11.8145 75.2556 12.8591 75.2556 15.3702H69.5222Z" fill="#6772E5"/>
</g>
<defs>
<clipPath id="clip0_10574_7213">
<rect width="80" height="33.44" fill="white" transform="translate(0.5 0.280273)"/>
</clipPath>
</defs>
</svg>
