<svg width="32" height="32" viewBox="0 0 32 32" fill="none" xmlns="http://www.w3.org/2000/svg">
<g clip-path="url(#clip0_11001_64568)">
<path d="M28 0H4C1.79067 0 0 1.79067 0 4V28C0 30.208 1.79067 32 4 32H28C30.208 32 32 30.208 32 28V4C32 1.79067 30.208 0 28 0ZM13.92 24.24C13.92 25.3 13.06 26.16 12 26.16H6.08C5.02 26.16 4.16 25.2987 4.16 24.24V6.08C4.16 5.02 5.02 4.16 6.08 4.16H12C13.06 4.16 13.92 5.02 13.92 6.08V24.24ZM27.84 16.24C27.84 17.2987 26.98 18.16 25.92 18.16H20C18.94 18.16 18.08 17.2987 18.08 16.24V6.08C18.08 5.02 18.9413 4.16 20 4.16H25.92C26.98 4.16 27.84 5.02 27.84 6.08V16.24Z" fill="black"/>
</g>
<defs>
<clipPath id="clip0_11001_64568">
<rect width="32" height="32" fill="white"/>
</clipPath>
</defs>
</svg>
