<svg width="36" height="24" viewBox="0 0 36 24" fill="none" xmlns="http://www.w3.org/2000/svg">
<g clip-path="url(#clip0_148_7202)">
<rect width="36" height="24" fill="white"/>
<path d="M0 0H35.9993V23.9998H0V0Z" fill="#F0F0F0"/>
<path d="M20.2496 0H15.7497V9.74976H0V14.2497H15.7497V23.9994H20.2496V14.2497H35.9993V9.74976H20.2496V0Z" fill="#D80027"/>
<path d="M27.6875 16.1738L35.9993 20.7916V16.1738H27.6875ZM21.9126 16.1738L35.9993 23.9997V21.7868L25.8961 16.1738H21.9126ZM32.2471 23.9997L21.9126 18.2578V23.9997H32.2471Z" fill="#0052B4"/>
<path d="M21.9126 16.1738L35.9993 23.9997V21.7868L25.8961 16.1738H21.9126Z" fill="#F0F0F0"/>
<path d="M21.9126 16.1738L35.9993 23.9997V21.7868L25.8961 16.1738H21.9126Z" fill="#D80027"/>
<path d="M6.35198 16.1738L0 19.7027V16.1738H6.35198ZM14.0867 17.169V23.9998H1.7923L14.0867 17.169Z" fill="#0052B4"/>
<path d="M10.1032 16.1738L0 21.7868V23.9997L14.0867 16.1738H10.1032Z" fill="#D80027"/>
<path d="M8.31183 7.82591L0 3.20816V7.82591H8.31183ZM14.0867 7.82591L0 0V2.21297L10.1032 7.82591H14.0867ZM3.75222 0L14.0867 5.74189V0H3.75222Z" fill="#0052B4"/>
<path d="M14.0867 7.82591L0 0V2.21297L10.1032 7.82591H14.0867Z" fill="#F0F0F0"/>
<path d="M14.0867 7.82591L0 0V2.21297L10.1032 7.82591H14.0867Z" fill="#D80027"/>
<path d="M29.6473 7.82598L35.9993 4.29706V7.82598H29.6473ZM21.9126 6.8308V0H34.207L21.9126 6.8308Z" fill="#0052B4"/>
<path d="M25.8961 7.82591L35.9993 2.21297V0L21.9126 7.82591H25.8961Z" fill="#D80027"/>
<path d="M0 0H35.9996V24H0V0Z" fill="white"/>
<path d="M0 2.99805H35.9996V5.99776H0V2.99805ZM0 8.99824H35.9996V11.998H0V8.99824ZM0 14.9977H35.9996V17.9974H0V14.9977ZM0 20.9979H35.9996V23.9976H0V20.9979Z" fill="#D80027"/>
<path d="M0 0H17.9998V12.9231H0V0Z" fill="#2E52B2"/>
<path d="M7.01861 5.29364L6.72871 6.18548H5.79104L6.54977 6.73637L6.25987 7.62814L7.01861 7.07724L7.77685 7.62814L7.48703 6.73637L8.24576 6.18548H7.30801L7.01861 5.29364ZM7.30801 9.40379L7.01861 8.51203L6.72871 9.40379H5.79104L6.54977 9.95475L6.25987 10.8465L7.01861 10.2956L7.77685 10.8465L7.48703 9.95475L8.24576 9.40379H7.30801ZM3.34517 9.40379L3.0557 8.51203L2.7658 9.40379H1.82812L2.58686 9.95475L2.29696 10.8465L3.0557 10.2956L3.81401 10.8465L3.52419 9.95475L4.28278 9.40379H3.34517ZM3.0557 5.29364L2.7658 6.18548H1.82812L2.58686 6.73637L2.29696 7.62814L3.0557 7.07724L3.81401 7.62814L3.52419 6.73637L4.28278 6.18548H3.34517L3.0557 5.29364ZM7.01861 2.0752L6.72871 2.9671H5.79104L6.54977 3.51806L6.25987 4.40983L7.01861 3.85886L7.77685 4.40983L7.48703 3.51806L8.24576 2.9671H7.30801L7.01861 2.0752ZM3.0557 2.0752L2.7658 2.9671H1.82812L2.58686 3.51806L2.29696 4.40983L3.0557 3.85886L3.81401 4.40983L3.52419 3.51806L4.28278 2.9671H3.34517L3.0557 2.0752ZM10.9814 5.29364L10.6916 6.18548H9.75395L10.5126 6.73637L10.2229 7.62814L10.9814 7.07724L11.7398 7.62814L11.4499 6.73637L12.2087 6.18548H11.271L10.9814 5.29364ZM11.271 9.40379L10.9814 8.51203L10.6916 9.40379H9.75395L10.5126 9.95475L10.2229 10.8465L10.9814 10.2956L11.7398 10.8465L11.4499 9.95475L12.2087 9.40379H11.271ZM15.2339 9.40379L14.9444 8.51203L14.6545 9.40379H13.7169L14.4755 9.95475L14.1857 10.8465L14.9444 10.2956L15.7027 10.8465L15.4128 9.95475L16.1716 9.40379H15.2339ZM14.9444 5.29364L14.6545 6.18548H13.7169L14.4755 6.73637L14.1857 7.62814L14.9444 7.07724L15.7027 7.62814L15.4128 6.73637L16.1716 6.18548H15.2339L14.9444 5.29364ZM10.9814 2.0752L10.6916 2.9671H9.75395L10.5126 3.51806L10.2229 4.40983L10.9814 3.85886L11.7398 4.40983L11.4499 3.51806L12.2087 2.9671H11.271L10.9814 2.0752ZM14.9444 2.0752L14.6545 2.9671H13.7169L14.4755 3.51806L14.1857 4.40983L14.9444 3.85886L15.7027 4.40983L15.4128 3.51806L16.1716 2.9671H15.2339L14.9444 2.0752Z" fill="#F0F0F0"/>
</g>
<defs>
<clipPath id="clip0_148_7202">
<rect width="36" height="24" fill="white"/>
</clipPath>
</defs>
</svg>
