<svg width="24" height="24" viewBox="0 0 24 24" fill="none" xmlns="http://www.w3.org/2000/svg">
<g id="flat-color-icons:google">
<path id="Vector" d="M21.8055 10.0415H21V10H12V14H17.6515C16.827 16.3285 14.6115 18 12 18C8.6865 18 6 15.3135 6 12C6 8.6865 8.6865 6 12 6C13.5295 6 14.921 6.577 15.9805 7.5195L18.809 4.691C17.023 3.0265 14.634 2 12 2C6.4775 2 2 6.4775 2 12C2 17.5225 6.4775 22 12 22C17.5225 22 22 17.5225 22 12C22 11.3295 21.931 10.675 21.8055 10.0415Z" fill="#FFC107"/>
<path id="Vector_2" d="M3.15283 7.3455L6.43833 9.755C7.32733 7.554 9.48033 6 11.9998 6C13.5293 6 14.9208 6.577 15.9803 7.5195L18.8088 4.691C17.0228 3.0265 14.6338 2 11.9998 2C8.15883 2 4.82783 4.1685 3.15283 7.3455Z" fill="#F97316"/>
<path id="Vector_3" d="M12.0002 22C14.5832 22 16.9302 21.0115 18.7047 19.404L15.6097 16.785C14.5719 17.5742 13.3039 18.001 12.0002 18C9.39916 18 7.19066 16.3415 6.35866 14.027L3.09766 16.5395C4.75266 19.778 8.11366 22 12.0002 22Z" fill="#4CAF50"/>
<path id="Vector_4" d="M21.8055 10.0415H21V10H12V14H17.6515C17.2571 15.1082 16.5467 16.0766 15.608 16.7855L15.6095 16.7845L18.7045 19.4035C18.4855 19.6025 22 17 22 12C22 11.3295 21.931 10.675 21.8055 10.0415Z" fill="#1976D2"/>
</g>
</svg>
