<svg width="103" height="40" viewBox="0 0 103 40" fill="none" xmlns="http://www.w3.org/2000/svg">
<rect width="103" height="40" rx="6" fill="#F97316"/>
<g clip-path="url(#clip0_7977_153)">
<path d="M21.8333 18H15.8333C15.097 18 14.5 18.597 14.5 19.3333V25.3333C14.5 26.0697 15.097 26.6667 15.8333 26.6667H21.8333C22.5697 26.6667 23.1667 26.0697 23.1667 25.3333V19.3333C23.1667 18.597 22.5697 18 21.8333 18Z" stroke="white" stroke-width="2" stroke-linecap="round" stroke-linejoin="round"/>
<path d="M11.8335 22H11.1668C10.8132 22 10.4741 21.8596 10.224 21.6095C9.97397 21.3595 9.8335 21.0203 9.8335 20.6667V14.6667C9.8335 14.3131 9.97397 13.9739 10.224 13.7239C10.4741 13.4738 10.8132 13.3334 11.1668 13.3334H17.1668C17.5205 13.3334 17.8596 13.4738 18.1096 13.7239C18.3597 13.9739 18.5002 14.3131 18.5002 14.6667V15.3334" stroke="white" stroke-width="2" stroke-linecap="round" stroke-linejoin="round"/>
</g>
<path d="M42.0753 18.1293H40.5241C40.4645 17.7978 40.3535 17.5062 40.1911 17.2543C40.0286 17.0024 39.8298 16.7886 39.5945 16.6129C39.3591 16.4373 39.0956 16.3047 38.804 16.2152C38.5156 16.1257 38.209 16.081 37.8842 16.081C37.2976 16.081 36.7723 16.2285 36.3082 16.5234C35.8475 16.8184 35.483 17.2509 35.2145 17.821C34.9493 18.3911 34.8168 19.0871 34.8168 19.9091C34.8168 20.7377 34.9493 21.437 35.2145 22.0071C35.483 22.5772 35.8492 23.008 36.3132 23.2997C36.7772 23.5914 37.2992 23.7372 37.8793 23.7372C38.2008 23.7372 38.5057 23.6941 38.794 23.608C39.0857 23.5185 39.3492 23.3875 39.5845 23.2152C39.8198 23.0429 40.0187 22.8324 40.1811 22.5838C40.3468 22.3319 40.4612 22.0436 40.5241 21.7188L42.0753 21.7237C41.9924 22.2242 41.8317 22.6849 41.593 23.1058C41.3577 23.5234 41.0545 23.8847 40.6832 24.1896C40.3153 24.4912 39.8944 24.7249 39.4205 24.8906C38.9465 25.0563 38.4295 25.1392 37.8693 25.1392C36.9877 25.1392 36.2022 24.9304 35.5128 24.5128C34.8234 24.0919 34.2798 23.4903 33.8821 22.7081C33.4877 21.9259 33.2905 20.9929 33.2905 19.9091C33.2905 18.822 33.4893 17.889 33.8871 17.1101C34.2848 16.3279 34.8284 15.728 35.5178 15.3104C36.2071 14.8894 36.991 14.679 37.8693 14.679C38.4096 14.679 38.9134 14.7569 39.3807 14.9126C39.8513 15.0651 40.2739 15.2905 40.6484 15.5888C41.023 15.8838 41.3329 16.245 41.5781 16.6726C41.8234 17.0968 41.9891 17.5824 42.0753 18.1293ZM47.0108 25.1541C46.2949 25.1541 45.6702 24.9901 45.1365 24.6619C44.6029 24.3338 44.1886 23.8748 43.8936 23.2848C43.5987 22.6948 43.4512 22.0054 43.4512 21.2166C43.4512 20.4245 43.5987 19.7318 43.8936 19.1385C44.1886 18.5452 44.6029 18.0845 45.1365 17.7564C45.6702 17.4283 46.2949 17.2642 47.0108 17.2642C47.7267 17.2642 48.3515 17.4283 48.8851 17.7564C49.4187 18.0845 49.833 18.5452 50.128 19.1385C50.423 19.7318 50.5705 20.4245 50.5705 21.2166C50.5705 22.0054 50.423 22.6948 50.128 23.2848C49.833 23.8748 49.4187 24.3338 48.8851 24.6619C48.3515 24.9901 47.7267 25.1541 47.0108 25.1541ZM47.0158 23.9062C47.4798 23.9062 47.8643 23.7836 48.1692 23.5384C48.4741 23.2931 48.6995 22.9666 48.8453 22.5589C48.9945 22.1513 49.0691 21.7022 49.0691 21.2116C49.0691 20.7244 48.9945 20.277 48.8453 19.8693C48.6995 19.4583 48.4741 19.1286 48.1692 18.88C47.8643 18.6314 47.4798 18.5071 47.0158 18.5071C46.5485 18.5071 46.1607 18.6314 45.8525 18.88C45.5475 19.1286 45.3205 19.4583 45.1713 19.8693C45.0255 20.277 44.9526 20.7244 44.9526 21.2116C44.9526 21.7022 45.0255 22.1513 45.1713 22.5589C45.3205 22.9666 45.5475 23.2931 45.8525 23.5384C46.1607 23.7836 46.5485 23.9062 47.0158 23.9062ZM52.2298 27.8636V17.3636H53.6815V18.6016H53.8058C53.8919 18.4425 54.0162 18.2585 54.1786 18.0497C54.341 17.8409 54.5664 17.6586 54.8548 17.5028C55.1431 17.3438 55.5243 17.2642 55.9982 17.2642C56.6147 17.2642 57.1649 17.42 57.6488 17.7315C58.1327 18.0431 58.5122 18.4922 58.7873 19.0788C59.0657 19.6655 59.2049 20.3714 59.2049 21.1967C59.2049 22.022 59.0674 22.7296 58.7923 23.3196C58.5172 23.9062 58.1393 24.3587 57.6587 24.6768C57.1781 24.9917 56.6296 25.1491 56.0131 25.1491C55.5491 25.1491 55.1696 25.0713 54.8746 24.9155C54.583 24.7597 54.3543 24.5774 54.1886 24.3686C54.0228 24.1598 53.8952 23.9742 53.8058 23.8118H53.7163V27.8636H52.2298ZM53.6864 21.1818C53.6864 21.7187 53.7643 22.1894 53.9201 22.5938C54.0759 22.9981 54.3013 23.3146 54.5962 23.5433C54.8912 23.7687 55.2525 23.8814 55.68 23.8814C56.1242 23.8814 56.4954 23.7637 56.7937 23.5284C57.092 23.2898 57.3174 22.9666 57.4698 22.5589C57.6256 22.1513 57.7035 21.6922 57.7035 21.1818C57.7035 20.678 57.6272 20.2256 57.4748 19.8246C57.3256 19.4235 57.1003 19.107 56.7987 18.875C56.5004 18.643 56.1275 18.527 55.68 18.527C55.2492 18.527 54.8846 18.638 54.5863 18.8601C54.2913 19.0821 54.0676 19.392 53.9151 19.7898C53.7627 20.1875 53.6864 20.6515 53.6864 21.1818ZM61.5502 27.8636C61.3282 27.8636 61.126 27.8454 60.9437 27.8089C60.7614 27.7758 60.6255 27.7393 60.536 27.6996L60.894 26.4815C61.1658 26.5545 61.4077 26.5859 61.6199 26.576C61.832 26.5661 62.0192 26.4865 62.1816 26.3374C62.3474 26.1882 62.4932 25.9446 62.6191 25.6065L62.8031 25.0994L60.0091 17.3636H61.6L63.5339 23.2898H63.6135L65.5474 17.3636H67.1433L63.9963 26.0192C63.8504 26.4169 63.6648 26.7533 63.4395 27.0284C63.2141 27.3068 62.9456 27.5156 62.6341 27.6548C62.3225 27.794 61.9612 27.8636 61.5502 27.8636ZM73.7319 14.8182V25H72.2454V14.8182H73.7319ZM75.7317 25V17.3636H77.2182V25H75.7317ZM76.4824 16.1854C76.2239 16.1854 76.0018 16.0992 75.8162 15.9268C75.6339 15.7512 75.5428 15.5424 75.5428 15.3004C75.5428 15.0552 75.6339 14.8464 75.8162 14.674C76.0018 14.4983 76.2239 14.4105 76.4824 14.4105C76.7409 14.4105 76.9614 14.4983 77.1436 14.674C77.3292 14.8464 77.4221 15.0552 77.4221 15.3004C77.4221 15.5424 77.3292 15.7512 77.1436 15.9268C76.9614 16.0992 76.7409 16.1854 76.4824 16.1854ZM80.7045 20.4659V25H79.218V17.3636H80.6449V18.6065H80.7393C80.915 18.2022 81.1901 17.8774 81.5646 17.6321C81.9425 17.3868 82.4181 17.2642 82.9915 17.2642C83.5118 17.2642 83.9676 17.3736 84.3587 17.5923C84.7498 17.8078 85.053 18.1293 85.2685 18.5568C85.4839 18.9844 85.5916 19.513 85.5916 20.1428V25H84.1051V20.3217C84.1051 19.7682 83.9609 19.3357 83.6726 19.0241C83.3842 18.7093 82.9882 18.5518 82.4844 18.5518C82.1397 18.5518 81.8331 18.6264 81.5646 18.7756C81.2995 18.9247 81.089 19.1435 80.9332 19.4318C80.7808 19.7169 80.7045 20.0616 80.7045 20.4659ZM88.9524 22.4098L88.9425 20.5952H89.201L92.2436 17.3636H94.0234L90.5533 21.0426H90.3196L88.9524 22.4098ZM87.5852 25V14.8182H89.0717V25H87.5852ZM92.4077 25L89.6733 21.3707L90.6974 20.3317L94.2322 25H92.4077Z" fill="white"/>
<defs>
<clipPath id="clip0_7977_153">
<rect width="16" height="16" fill="white" transform="translate(8.5 12)"/>
</clipPath>
</defs>
</svg>
