<svg width="14" height="14" viewBox="0 0 14 14" fill="none" xmlns="http://www.w3.org/2000/svg">
<path d="M3.11055 2.35671C3.11037 2.73978 2.96648 3.10708 2.71053 3.37782C2.45458 3.64855 2.10754 3.80054 1.74576 3.80035C1.38397 3.80016 1.03707 3.6478 0.781382 3.37679C0.525689 3.10579 0.382143 2.73833 0.382324 2.35526C0.382505 1.97219 0.526397 1.60489 0.782346 1.33415C1.03829 1.06342 1.38533 0.91143 1.74712 0.911621C2.10891 0.911813 2.4558 1.06417 2.71149 1.33518C2.96719 1.60618 3.11073 1.97364 3.11055 2.35671ZM3.15147 4.8699H0.423248V13.9116H3.15147V4.8699ZM7.46207 4.8699H4.74749V13.9116H7.43479V9.16689C7.43479 6.5237 10.6882 6.27816 10.6882 9.16689V13.9116H13.3823V8.18472C13.3823 3.72885 8.567 3.89496 7.43479 6.08317L7.46207 4.8699Z" fill="#FAFAFA"/>
</svg>
