<svg width="40" height="40" viewBox="0 0 40 40" fill="none" xmlns="http://www.w3.org/2000/svg">
<rect width="40" height="40" rx="20" fill="#F97316"/>
<path d="M18.6668 22.0002L22.1268 20.0002L18.6668 18.0002V22.0002ZM26.3735 16.7802C26.4602 17.0935 26.5202 17.5135 26.5602 18.0468C26.6068 18.5802 26.6268 19.0402 26.6268 19.4402L26.6668 20.0002C26.6668 21.4602 26.5602 22.5335 26.3735 23.2202C26.2068 23.8202 25.8202 24.2068 25.2202 24.3735C24.9068 24.4602 24.3335 24.5202 23.4535 24.5602C22.5868 24.6068 21.7935 24.6268 21.0602 24.6268L20.0002 24.6668C17.2068 24.6668 15.4668 24.5602 14.7802 24.3735C14.1802 24.2068 13.7935 23.8202 13.6268 23.2202C13.5402 22.9068 13.4802 22.4868 13.4402 21.9535C13.3935 21.4202 13.3735 20.9602 13.3735 20.5602L13.3335 20.0002C13.3335 18.5402 13.4402 17.4668 13.6268 16.7802C13.7935 16.1802 14.1802 15.7935 14.7802 15.6268C15.0935 15.5402 15.6668 15.4802 16.5468 15.4402C17.4135 15.3935 18.2068 15.3735 18.9402 15.3735L20.0002 15.3335C22.7935 15.3335 24.5335 15.4402 25.2202 15.6268C25.8202 15.7935 26.2068 16.1802 26.3735 16.7802Z" fill="#FAFAFA"/>
</svg>

