<svg width="24" height="25" viewBox="0 0 24 25" fill="none" xmlns="http://www.w3.org/2000/svg">
<path d="M12 22.5C17.5228 22.5 22 18.0228 22 12.5C22 6.97715 17.5228 2.5 12 2.5C6.47715 2.5 2 6.97715 2 12.5C2 18.0228 6.47715 22.5 12 22.5Z" stroke="#0A0A0A" stroke-width="2" stroke-linecap="round" stroke-linejoin="round"/>
<path d="M9.09003 9.49996C9.32513 8.83163 9.78918 8.26807 10.4 7.90909C11.0108 7.55012 11.7289 7.4189 12.4272 7.53867C13.1255 7.65844 13.7588 8.02148 14.2151 8.56349C14.6714 9.10549 14.9211 9.79148 14.92 10.5C14.92 12.5 11.92 13.5 11.92 13.5" stroke="#0A0A0A" stroke-width="2" stroke-linecap="round" stroke-linejoin="round"/>
<path d="M12 17.5H12.01" stroke="#0A0A0A" stroke-width="2" stroke-linecap="round" stroke-linejoin="round"/>
</svg>
