<svg width="20" height="20" viewBox="0 0 20 20" fill="none" xmlns="http://www.w3.org/2000/svg">
<path d="M10.1833 1.66675H9.81667C9.37464 1.66675 8.95072 1.84234 8.63816 2.1549C8.3256 2.46746 8.15 2.89139 8.15 3.33341V3.48341C8.1497 3.77569 8.07255 4.06274 7.92628 4.31578C7.78002 4.56882 7.56978 4.77895 7.31667 4.92508L6.95834 5.13341C6.70497 5.2797 6.41756 5.35671 6.125 5.35671C5.83244 5.35671 5.54503 5.2797 5.29167 5.13341L5.16667 5.06675C4.78422 4.84613 4.32987 4.78628 3.90334 4.90034C3.47681 5.01439 3.11296 5.29303 2.89167 5.67508L2.70833 5.99175C2.48772 6.37419 2.42787 6.82855 2.54192 7.25508C2.65598 7.68161 2.93461 8.04546 3.31667 8.26675L3.44167 8.35008C3.69356 8.49551 3.90302 8.70432 4.04921 8.95577C4.1954 9.20723 4.27325 9.49256 4.275 9.78341V10.2084C4.27617 10.5021 4.19971 10.7909 4.05337 11.0455C3.90703 11.3001 3.69601 11.5116 3.44167 11.6584L3.31667 11.7334C2.93461 11.9547 2.65598 12.3186 2.54192 12.7451C2.42787 13.1716 2.48772 13.626 2.70833 14.0084L2.89167 14.3251C3.11296 14.7071 3.47681 14.9858 3.90334 15.0998C4.32987 15.2139 4.78422 15.154 5.16667 14.9334L5.29167 14.8667C5.54503 14.7205 5.83244 14.6435 6.125 14.6435C6.41756 14.6435 6.70497 14.7205 6.95834 14.8667L7.31667 15.0751C7.56978 15.2212 7.78002 15.4313 7.92628 15.6844C8.07255 15.9374 8.1497 16.2245 8.15 16.5167V16.6667C8.15 17.1088 8.3256 17.5327 8.63816 17.8453C8.95072 18.1578 9.37464 18.3334 9.81667 18.3334H10.1833C10.6254 18.3334 11.0493 18.1578 11.3618 17.8453C11.6744 17.5327 11.85 17.1088 11.85 16.6667V16.5167C11.8503 16.2245 11.9275 15.9374 12.0737 15.6844C12.22 15.4313 12.4302 15.2212 12.6833 15.0751L13.0417 14.8667C13.295 14.7205 13.5824 14.6435 13.875 14.6435C14.1676 14.6435 14.455 14.7205 14.7083 14.8667L14.8333 14.9334C15.2158 15.154 15.6701 15.2139 16.0967 15.0998C16.5232 14.9858 16.887 14.7071 17.1083 14.3251L17.2917 14.0001C17.5123 13.6176 17.5721 13.1633 17.4581 12.7367C17.344 12.3102 17.0654 11.9464 16.6833 11.7251L16.5583 11.6584C16.304 11.5116 16.093 11.3001 15.9466 11.0455C15.8003 10.7909 15.7238 10.5021 15.725 10.2084V9.79175C15.7238 9.49807 15.8003 9.20929 15.9466 8.95466C16.093 8.70003 16.304 8.48859 16.5583 8.34175L16.6833 8.26675C17.0654 8.04546 17.344 7.68161 17.4581 7.25508C17.5721 6.82855 17.5123 6.37419 17.2917 5.99175L17.1083 5.67508C16.887 5.29303 16.5232 5.01439 16.0967 4.90034C15.6701 4.78628 15.2158 4.84613 14.8333 5.06675L14.7083 5.13341C14.455 5.2797 14.1676 5.35671 13.875 5.35671C13.5824 5.35671 13.295 5.2797 13.0417 5.13341L12.6833 4.92508C12.4302 4.77895 12.22 4.56882 12.0737 4.31578C11.9275 4.06274 11.8503 3.77569 11.85 3.48341V3.33341C11.85 2.89139 11.6744 2.46746 11.3618 2.1549C11.0493 1.84234 10.6254 1.66675 10.1833 1.66675Z" stroke="#525252" stroke-linecap="round" stroke-linejoin="round"/>
<path d="M10 12.5C11.3807 12.5 12.5 11.3807 12.5 10C12.5 8.61929 11.3807 7.5 10 7.5C8.61929 7.5 7.5 8.61929 7.5 10C7.5 11.3807 8.61929 12.5 10 12.5Z" stroke="#525252" stroke-linecap="round" stroke-linejoin="round"/>
</svg>
