<svg width="24" height="25" viewBox="0 0 24 25" fill="none" xmlns="http://www.w3.org/2000/svg">
<path d="M3 9.5H21V19.5C21 20.0304 20.7893 20.5391 20.4142 20.9142C20.0391 21.2893 19.5304 21.5 19 21.5H5C4.46957 21.5 3.96086 21.2893 3.58579 20.9142C3.21071 20.5391 3 20.0304 3 19.5V9.5Z" stroke="#141414" stroke-width="1.33" stroke-linecap="round" stroke-linejoin="round"/>
<path d="M3 9.50005L5.45 4.60005C5.61696 4.2687 5.87281 3.99034 6.18893 3.79607C6.50504 3.60181 6.86897 3.49932 7.24 3.50005H16.76C17.1327 3.49745 17.4988 3.59907 17.8168 3.79344C18.1349 3.9878 18.3923 4.26718 18.56 4.60005L21 9.50005" stroke="#141414" stroke-width="1.33" stroke-linecap="round" stroke-linejoin="round"/>
<path d="M12 3.5V9.5" stroke="#141414" stroke-width="1.33" stroke-linecap="round" stroke-linejoin="round"/>
</svg>
