<svg width="20" height="20" viewBox="0 0 20 20" fill="none" xmlns="http://www.w3.org/2000/svg">
<path d="M13.3334 17.5V15.8333C13.3334 14.9493 12.9822 14.1014 12.3571 13.4763C11.732 12.8512 10.8841 12.5 10.0001 12.5H5.00008C4.11603 12.5 3.26818 12.8512 2.64306 13.4763C2.01794 14.1014 1.66675 14.9493 1.66675 15.8333V17.5" stroke="#FAFAFA" stroke-width="1.33" stroke-linecap="round" stroke-linejoin="round"/>
<path d="M7.50008 9.16667C9.34103 9.16667 10.8334 7.67428 10.8334 5.83333C10.8334 3.99238 9.34103 2.5 7.50008 2.5C5.65913 2.5 4.16675 3.99238 4.16675 5.83333C4.16675 7.67428 5.65913 9.16667 7.50008 9.16667Z" stroke="#FAFAFA" stroke-width="1.33" stroke-linecap="round" stroke-linejoin="round"/>
<path d="M18.3333 17.4999V15.8333C18.3327 15.0947 18.0869 14.3773 17.6344 13.7935C17.1819 13.2098 16.5484 12.7929 15.8333 12.6083" stroke="#FAFAFA" stroke-width="1.33" stroke-linecap="round" stroke-linejoin="round"/>
<path d="M13.3333 2.60828C14.0503 2.79186 14.6858 3.20886 15.1396 3.79353C15.5935 4.37821 15.8398 5.0973 15.8398 5.83744C15.8398 6.57758 15.5935 7.29668 15.1396 7.88135C14.6858 8.46603 14.0503 8.88303 13.3333 9.06661" stroke="#FAFAFA" stroke-width="1.33" stroke-linecap="round" stroke-linejoin="round"/>
</svg>
