<svg width="20" height="20" viewBox="0 0 20 20" fill="none" xmlns="http://www.w3.org/2000/svg">
<path d="M14.9999 1.66675H4.99992C4.07944 1.66675 3.33325 2.41294 3.33325 3.33341V16.6667C3.33325 17.5872 4.07944 18.3334 4.99992 18.3334H14.9999C15.9204 18.3334 16.6666 17.5872 16.6666 16.6667V3.33341C16.6666 2.41294 15.9204 1.66675 14.9999 1.66675Z" stroke="#525252" stroke-width="1.33" stroke-linecap="round" stroke-linejoin="round"/>
<path d="M7.5 18.3333V15H12.5V18.3333" stroke="#525252" stroke-width="1.33" stroke-linecap="round" stroke-linejoin="round"/>
<path d="M6.66675 5H6.67508" stroke="#141414" stroke-width="1.33" stroke-linecap="round" stroke-linejoin="round"/>
<path d="M13.3333 5H13.3416" stroke="#141414" stroke-width="2" stroke-linecap="round" stroke-linejoin="round"/>
<path d="M10 5H10.0083" stroke="#141414" stroke-width="2" stroke-linecap="round" stroke-linejoin="round"/>
<path d="M10 8.33325H10.0083" stroke="#141414" stroke-width="2" stroke-linecap="round" stroke-linejoin="round"/>
<path d="M10 11.6667H10.0083" stroke="#141414" stroke-width="2" stroke-linecap="round" stroke-linejoin="round"/>
<path d="M13.3333 8.33325H13.3416" stroke="#141414" stroke-width="2" stroke-linecap="round" stroke-linejoin="round"/>
<path d="M13.3333 11.6667H13.3416" stroke="#141414" stroke-width="2" stroke-linecap="round" stroke-linejoin="round"/>
<path d="M6.66675 8.33325H6.67508" stroke="#141414" stroke-width="2" stroke-linecap="round" stroke-linejoin="round"/>
<path d="M6.66675 11.6667H6.67508" stroke="#141414" stroke-width="2" stroke-linecap="round" stroke-linejoin="round"/>
</svg>
