<svg width="23" height="22" viewBox="0 0 23 22" fill="none" xmlns="http://www.w3.org/2000/svg">
<g id="circle 1">
<path id="Union" fill-rule="evenodd" clip-rule="evenodd" d="M3.16667 10.0834C3.16667 5.481 6.89763 1.75004 11.5 1.75004C16.1024 1.75004 19.8333 5.481 19.8333 10.0834C19.8333 14.6857 16.1024 18.4167 11.5 18.4167C6.89763 18.4167 3.16667 14.6857 3.16667 10.0834ZM11.5 0.083374C5.97715 0.083374 1.5 4.56053 1.5 10.0834C1.5 15.6062 5.97715 20.0834 11.5 20.0834C17.0228 20.0834 21.5 15.6062 21.5 10.0834C21.5 4.56053 17.0228 0.083374 11.5 0.083374ZM11.4959 13.5277L16.803 8.02774L15.3637 6.63901L10.6806 11.4924L7.53036 9.04383L6.30297 10.6229L10.1626 13.6229L10.872 14.1743L11.4959 13.5277Z" fill="#2B9B5B"/>
</g>
</svg>
