<svg width="31" height="31" viewBox="0 0 31 31" fill="none" xmlns="http://www.w3.org/2000/svg">
<g clip-path="url(#clip0_518_8357)">
<path d="M9.81836 15.1434L13.6371 26.5196" stroke="#141414" stroke-width="2" stroke-linecap="round" stroke-linejoin="round"/>
<path d="M16.0916 8.69167L16.4547 12.9157L21.9816 11.0604C22.276 10.9616 22.5893 10.9327 22.8968 10.976C23.2042 11.0192 23.4974 11.1335 23.753 11.3097C24.0087 11.4859 24.2198 11.7192 24.3697 11.9911C24.5196 12.263 24.6041 12.5661 24.6165 12.8763L24.9535 21.2019C24.9708 21.6343 24.8474 22.0607 24.6019 22.417C24.3563 22.7733 24.0018 23.0403 23.5915 23.1781L10.7934 27.4742C10.2905 27.643 9.7412 27.6051 9.26627 27.3689C8.79133 27.1327 8.42969 26.7175 8.26089 26.2146L5.71503 18.6305C5.54623 18.1277 5.5841 17.5783 5.82032 17.1034C6.05653 16.6285 6.47174 16.2668 6.97459 16.098L9.59111 15.2197C9.94379 15.1011 10.2564 14.8865 10.4938 14.6C10.7311 14.3134 10.8839 13.9664 10.9348 13.5978L12.0128 5.96807C12.4618 5.82354 12.9375 5.78232 13.4046 5.84749C13.8717 5.91266 14.318 6.08254 14.7103 6.34444C15.1025 6.60634 15.4304 6.95348 15.6696 7.35993C15.9088 7.76638 16.0531 8.22163 16.0916 8.69167Z" stroke="#141414" stroke-width="2" stroke-linecap="round" stroke-linejoin="round"/>
</g>
<defs>
<clipPath id="clip0_518_8357">
<rect width="24" height="24" fill="white" transform="translate(0 7.89087) rotate(-18.556)"/>
</clipPath>
</defs>
</svg>
