<svg width="25" height="25" viewBox="0 0 25 25" fill="none" xmlns="http://www.w3.org/2000/svg">
<path d="M19.75 1C18.7554 1 17.8016 1.39509 17.0983 2.09835C16.3951 2.80161 16 3.75544 16 4.75V19.75C16 20.7446 16.3951 21.6984 17.0983 22.4017C17.8016 23.1049 18.7554 23.5 19.75 23.5C20.7446 23.5 21.6984 23.1049 22.4017 22.4017C23.1049 21.6984 23.5 20.7446 23.5 19.75C23.5 18.7554 23.1049 17.8016 22.4017 17.0983C21.6984 16.3951 20.7446 16 19.75 16H4.75C3.75544 16 2.80161 16.3951 2.09835 17.0983C1.39509 17.8016 1 18.7554 1 19.75C1 20.7446 1.39509 21.6984 2.09835 22.4017C2.80161 23.1049 3.75544 23.5 4.75 23.5C5.74456 23.5 6.69839 23.1049 7.40165 22.4017C8.10491 21.6984 8.5 20.7446 8.5 19.75V4.75C8.5 3.75544 8.10491 2.80161 7.40165 2.09835C6.69839 1.39509 5.74456 1 4.75 1C3.75544 1 2.80161 1.39509 2.09835 2.09835C1.39509 2.80161 1 3.75544 1 4.75C1 5.74456 1.39509 6.69839 2.09835 7.40165C2.80161 8.10491 3.75544 8.5 4.75 8.5H19.75C20.7446 8.5 21.6984 8.10491 22.4017 7.40165C23.1049 6.69839 23.5 5.74456 23.5 4.75C23.5 3.75544 23.1049 2.80161 22.4017 2.09835C21.6984 1.39509 20.7446 1 19.75 1Z" stroke="white" stroke-width="2" stroke-linecap="round" stroke-linejoin="round"/>
</svg>
